<?xml version="1.0" encoding="utf-8"?>
<!-- Generator: Adobe Illustrator 15.1.0, SVG Export Plug-In . SVG Version: 6.00 Build 0)  -->
<!DOCTYPE svg PUBLIC "-//W3C//DTD SVG 1.1//EN" "http://www.w3.org/Graphics/SVG/1.1/DTD/svg11.dtd">
<svg version="1.1" id="Layer_1" xmlns="http://www.w3.org/2000/svg" xmlns:xlink="http://www.w3.org/1999/xlink" x="0px" y="0px"
	 width="331.653px" height="257.953px" viewBox="0 0 331.653 257.953" enable-background="new 0 0 331.653 257.953"
	 xml:space="preserve">
<g>
	<g>
		<g>
			<g>
				<path fill="#DADADA" d="M148.741,125.241h-2.922v-24.229c0-3.947-3.211-7.159-7.16-7.159h-16.858
					c-5.559,0-10.083-4.521-10.083-10.081V40.913h2.923v42.861c0,3.948,3.21,7.159,7.159,7.159h16.859
					c5.559,0,10.08,4.522,10.08,10.082L148.741,125.241L148.741,125.241z"/>
			</g>
			<g>
				<path fill="#DADADA" d="M200.602,128.124h-2.924V95.511c0-5.559,4.523-10.082,10.082-10.082h1.533
					c3.949,0,7.16-3.212,7.16-7.159V44.674h2.922v33.595c0,5.559-4.521,10.081-10.082,10.081h-1.533
					c-3.947,0-7.158,3.211-7.158,7.16V128.124L200.602,128.124z"/>
			</g>
			<g>
				<path fill="#DADADA" d="M98.782,180.238H46.851c-5.559,0-10.081-4.521-10.081-10.082V89.319h2.922v80.837
					c0,3.949,3.212,7.16,7.16,7.16h51.931L98.782,180.238L98.782,180.238z"/>
			</g>
			<g>
				<path fill="#DADADA" d="M281.94,188.561h-51.479v-2.922h51.479c3.949,0,7.158-3.211,7.158-7.16V78.077h2.924v100.401
					C292.022,184.037,287.497,188.561,281.94,188.561z"/>
			</g>
			<g>
				<g>
					<path fill="#C6C6C6" d="M263.936,250.094H67.718c-4.136,0-7.49-3.354-7.49-7.49V117.168c0-4.135,3.353-7.488,7.49-7.488
						h196.216c4.137,0,7.488,3.354,7.488,7.488v125.435C271.422,246.74,268.071,250.094,263.936,250.094z"/>
					<path fill="#575756" d="M62.347,240.484V119.288c0-4.135,3.353-7.488,7.489-7.488h191.983c4.133,0,7.488,3.353,7.488,7.488
						v121.197c0,4.139-3.354,7.49-7.488,7.49H69.834C65.7,247.975,62.347,244.623,62.347,240.484z"/>
					<path fill="#40BCD4" d="M74.452,228.383v-96.99c0-4.135,3.352-7.489,7.49-7.489h167.77c4.139,0,7.492,3.354,7.492,7.489v96.99
						c0,4.133-3.352,7.488-7.492,7.488H81.94C77.804,235.871,74.452,232.516,74.452,228.383z"/>
					<rect x="50.243" y="244.797" fill="#DADADA" width="231.168" height="6.342"/>
				</g>
				<path fill="#F6F6F6" d="M179.26,250.094h-26.866c-2.823,0-5.112-2.289-5.112-5.115v-0.184h37.091v0.184
					C184.372,247.805,182.084,250.094,179.26,250.094z"/>
				<rect x="81.567" y="133.133" fill="#F6F6F6" width="168.52" height="98.271"/>
				<rect x="81.567" y="128.124" fill="#DADADA" width="168.52" height="5.011"/>
				<circle fill="#EB645A" cx="84.689" cy="130.662" r="1.463"/>
				<circle fill="#FFD920" cx="89.279" cy="130.662" r="1.463"/>
				<circle fill="#92BF33" cx="93.869" cy="130.662" r="1.463"/>
				<rect x="86.153" y="136.613" fill="#EB645A" width="73.938" height="6.656"/>
				<rect x="86.153" y="146.043" fill="#B2B2B2" width="51.331" height="2.623"/>
				<rect x="86.153" y="150.281" fill="#B2B2B2" width="43.543" height="2.623"/>
				<rect x="86.153" y="154.518" fill="#B2B2B2" width="49.194" height="2.625"/>
				<rect x="86.153" y="158.754" fill="#B2B2B2" width="40.129" height="2.623"/>
				<rect x="86.153" y="162.99" fill="#B2B2B2" width="46.518" height="2.623"/>
				<rect x="151.497" y="146.043" fill="#B2B2B2" width="8.595" height="2.623"/>
				<rect x="154.354" y="150.281" fill="#B2B2B2" width="5.738" height="2.623"/>
				<rect x="153.018" y="154.518" fill="#B2B2B2" width="7.072" height="2.625"/>
				<rect x="156.067" y="158.754" fill="#B2B2B2" width="4.022" height="2.623"/>
				<rect x="153.788" y="162.99" fill="#B2B2B2" width="6.303" height="2.623"/>
				<rect x="86.153" y="172.119" fill="#17B1A1" width="73.938" height="6.66"/>
				<rect x="86.153" y="181.551" fill="#B2B2B2" width="46.547" height="2.621"/>
				<rect x="86.153" y="185.787" fill="#B2B2B2" width="48.709" height="2.623"/>
				<rect x="86.153" y="190.023" fill="#B2B2B2" width="52.233" height="2.623"/>
				<rect x="86.153" y="194.26" fill="#B2B2B2" width="43.235" height="2.623"/>
				<rect x="86.153" y="198.498" fill="#B2B2B2" width="37.042" height="2.621"/>
				<rect x="86.153" y="208.787" fill="#B2B2B2" width="73.74" height="2.623"/>
				<rect x="86.153" y="213.324" fill="#B2B2B2" width="73.74" height="2.623"/>
				<rect x="86.153" y="217.865" fill="#B2B2B2" width="73.74" height="2.623"/>
				<rect x="86.153" y="222.404" fill="#B2B2B2" width="54.055" height="2.623"/>
				<rect x="153.894" y="181.551" fill="#B2B2B2" width="6.196" height="2.621"/>
				<rect x="149.592" y="185.787" fill="#B2B2B2" width="10.499" height="2.623"/>
				<rect x="155.593" y="190.023" fill="#B2B2B2" width="4.497" height="2.623"/>
				<rect x="153.335" y="194.26" fill="#B2B2B2" width="6.755" height="2.623"/>
				<rect x="155.938" y="198.498" fill="#B2B2B2" width="4.153" height="2.621"/>
			</g>
			<g>
				<polygon fill="#EAE9E9" points="53.413,38.082 12.75,38.082 12.75,102.807 69.438,102.807 69.438,54.106 				"/>
				<g>
					<path fill="#EB645A" d="M27.432,58.638H22.09l-1.389,3.03h-2.029l6.175-13.262l5.956,13.262h-2.06L27.432,58.638z
						 M26.665,56.869l-1.851-4.242l-1.938,4.242H26.665z"/>
				</g>
				<rect x="33.934" y="49.076" fill="#556F7B" width="29.368" height="1.864"/>
				<rect x="33.934" y="54.106" fill="#556F7B" width="29.368" height="1.864"/>
				<rect x="33.934" y="59.136" fill="#556F7B" width="29.368" height="1.864"/>
				<rect x="18.672" y="64.167" fill="#556F7B" width="44.63" height="1.864"/>
				<rect x="18.672" y="69.198" fill="#556F7B" width="44.63" height="1.863"/>
				<rect x="18.672" y="74.228" fill="#556F7B" width="44.63" height="1.863"/>
				<rect x="18.672" y="79.258" fill="#556F7B" width="44.63" height="1.864"/>
				<rect x="18.672" y="84.288" fill="#556F7B" width="44.63" height="1.864"/>
				<rect x="18.672" y="89.318" fill="#556F7B" width="44.63" height="1.864"/>
				<rect x="18.672" y="94.349" fill="#556F7B" width="32.122" height="1.864"/>
				<polygon fill="#DADADA" points="53.413,54.106 69.438,54.106 53.413,38.082 				"/>
			</g>
			<g>
				<polygon fill="#EAE9E9" points="126.534,6.815 85.871,6.815 85.871,71.54 142.558,71.54 142.558,22.84 				"/>
				<rect x="94.832" y="18.743" fill="#556F7B" width="38.765" height="44.34"/>
				<rect x="96.875" y="20.788" fill="#99D6F6" width="34.675" height="33.361"/>
				<polygon fill="#92BE33" points="96.875,40.913 105.62,32.168 127.591,54.139 96.875,54.139 				"/>
				<polygon fill="#699E2F" points="131.551,54.139 127.591,54.139 116.624,43.172 124.585,35.21 131.551,42.175 				"/>
				<circle fill="#FFD920" cx="115.675" cy="30.241" r="4.091"/>
				<polygon fill="#DADADA" points="126.534,22.84 142.558,22.84 126.534,6.815 				"/>
			</g>
			<g>
				<polygon fill="#EAE9E9" points="229.655,6.815 188.989,6.815 188.989,71.54 245.678,71.54 245.678,22.84 				"/>
				<polygon fill="#DADADA" points="229.655,22.84 245.678,22.84 229.655,6.815 				"/>
				<g>
					<polygon fill="#F59E00" points="233.987,29.955 195.901,29.955 198.352,58.001 236.434,58.001 					"/>
					<rect x="199.141" y="30.501" fill="#C6C6C6" width="33.371" height="27.501"/>
					<rect x="200.706" y="28.709" fill="#DADADA" width="33.373" height="29.292"/>
					<rect x="202.274" y="26.685" fill="#EDEDED" width="33.371" height="31.316"/>
					<path fill="#FCC400" d="M225.458,29.955L225.458,29.955c-0.125,1.222-1.221,2.213-2.441,2.213H201.12l-2.707,25.834H236.5
						l2.705-25.834l0.23-2.213c0.127-1.222-0.76-2.213-1.982-2.213h-9.549C226.684,27.743,225.586,28.733,225.458,29.955z"/>
				</g>
			</g>
			<g>
				<polygon fill="#EAE9E9" points="302.879,38.082 262.215,38.082 262.215,102.807 318.903,102.807 318.903,54.106 				"/>
				<g>
					<rect x="270.112" y="52.417" fill="#8DCBC7" width="13.242" height="4.919"/>
					<rect x="283.94" y="52.417" fill="#8DCBC7" width="13.24" height="4.919"/>
					<rect x="297.764" y="52.417" fill="#8DCBC7" width="13.238" height="4.919"/>
					<path fill="#009588" d="M297.764,51.833h-0.584h-13.24h-0.586h-13.822v5.504v0.584v4.919v0.585v4.918v0.585v4.918v0.584v4.919
						v0.585v4.919v0.585v4.919v0.585v5.502h13.824h0.586h13.24h0.584h13.824v-5.502v-0.585v-4.919v-0.585v-4.919v-0.585V74.43
						v-0.584v-4.918v-0.585v-4.918V62.84v-4.919v-0.584v-5.504H297.764z M311.004,95.858h-13.238V90.94h13.238V95.858z
						 M297.18,95.858h-13.24V90.94h13.24V95.858z M283.354,95.858h-13.24V90.94h13.24V95.858z M270.112,52.417h13.242v4.919h-13.242
						V52.417z M283.94,52.417h13.24v4.919h-13.24V52.417z M297.18,62.84h-13.24v-4.919h13.24V62.84z M297.18,68.343h-13.24v-4.918
						h13.24V68.343z M297.18,73.845h-13.24v-4.919h13.24V73.845z M297.18,79.35h-13.24v-4.919h13.24V79.35z M297.18,84.852h-13.24
						v-4.919h13.24V84.852z M297.18,90.355h-13.24v-4.918h13.24V90.355z M270.112,57.921h13.242v4.919h-13.242V57.921z
						 M270.112,63.424h13.242v4.918h-13.242V63.424z M270.112,68.926h13.242v4.919h-13.242V68.926z M270.112,74.431h13.242v4.919
						h-13.242V74.431z M270.112,79.934h13.242v4.919h-13.242V79.934z M270.112,85.437h13.242v4.918h-13.242V85.437z M311.004,90.355
						h-13.238v-4.918h13.238V90.355z M311.004,84.852h-13.238v-4.919h13.238V84.852z M311.004,79.35h-13.238v-4.919h13.238V79.35z
						 M311.004,73.845h-13.238v-4.919h13.238V73.845z M311.004,68.343h-13.238v-4.918h13.238V68.343z M311.004,62.84h-13.238v-4.919
						h13.238V62.84z M311.004,57.337h-13.238v-4.919h13.238V57.337z"/>
					<rect x="270.112" y="57.921" fill="#8DCBC7" width="13.242" height="4.919"/>
					<rect x="283.94" y="57.921" fill="#FFFFFF" width="13.24" height="4.919"/>
					<rect x="297.764" y="57.921" fill="#FFFFFF" width="13.238" height="4.919"/>
					<rect x="270.112" y="63.424" fill="#8DCBC7" width="13.242" height="4.918"/>
					<rect x="283.94" y="63.424" fill="#FFFFFF" width="13.24" height="4.918"/>
					<rect x="297.764" y="63.424" fill="#FFFFFF" width="13.238" height="4.918"/>
					<rect x="270.112" y="68.926" fill="#8DCBC7" width="13.242" height="4.919"/>
					<rect x="283.94" y="68.926" fill="#FFFFFF" width="13.24" height="4.919"/>
					<rect x="297.764" y="68.926" fill="#FFFFFF" width="13.238" height="4.919"/>
					<rect x="270.112" y="74.431" fill="#8DCBC7" width="13.242" height="4.919"/>
					<rect x="283.94" y="74.431" fill="#FFFFFF" width="13.24" height="4.919"/>
					<rect x="297.764" y="74.431" fill="#FFFFFF" width="13.238" height="4.919"/>
					<rect x="270.112" y="79.934" fill="#8DCBC7" width="13.242" height="4.919"/>
					<rect x="283.94" y="79.934" fill="#FFFFFF" width="13.24" height="4.919"/>
					<rect x="297.764" y="79.934" fill="#FFFFFF" width="13.238" height="4.919"/>
					<rect x="270.112" y="85.437" fill="#8DCBC7" width="13.242" height="4.918"/>
					<rect x="283.94" y="85.437" fill="#FFFFFF" width="13.24" height="4.918"/>
					<rect x="297.764" y="85.437" fill="#FFFFFF" width="13.238" height="4.918"/>
					<rect x="270.112" y="90.94" fill="#8DCBC7" width="13.242" height="4.918"/>
					<rect x="283.94" y="90.94" fill="#FFFFFF" width="13.24" height="4.918"/>
					<rect x="297.764" y="90.94" fill="#FFFFFF" width="13.238" height="4.918"/>
				</g>
				<polygon fill="#DADADA" points="302.879,54.106 318.903,54.106 302.879,38.082 				"/>
			</g>
		</g>
	</g>
	<rect x="167.284" y="137.344" fill="#808080" width="73.939" height="6.658"/>
	<rect x="167.284" y="146.775" fill="#999999" width="51.33" height="2.623"/>
	<rect x="167.284" y="151.014" fill="#999999" width="43.543" height="2.623"/>
	<rect x="167.284" y="155.248" fill="#999999" width="49.193" height="2.623"/>
	<rect x="167.284" y="159.486" fill="#999999" width="40.131" height="2.621"/>
	<rect x="167.284" y="163.723" fill="#999999" width="46.52" height="2.623"/>
	<rect x="232.627" y="146.775" fill="#999999" width="8.596" height="2.623"/>
	<rect x="235.487" y="151.014" fill="#999999" width="5.734" height="2.623"/>
	<rect x="234.149" y="155.248" fill="#999999" width="7.074" height="2.623"/>
	<rect x="237.2" y="159.486" fill="#999999" width="4.021" height="2.621"/>
	<rect x="234.92" y="163.723" fill="#999999" width="6.303" height="2.623"/>
	<rect x="167.284" y="172.852" fill="#BABABA" width="73.939" height="6.656"/>
	<rect x="167.284" y="182.281" fill="#999999" width="46.549" height="2.625"/>
	<rect x="167.284" y="186.52" fill="#999999" width="48.711" height="2.621"/>
	<rect x="167.284" y="190.754" fill="#999999" width="52.234" height="2.623"/>
	<rect x="167.284" y="194.992" fill="#999999" width="43.236" height="2.623"/>
	<rect x="167.284" y="199.229" fill="#999999" width="37.043" height="2.625"/>
	<rect x="167.284" y="209.518" fill="#999999" width="73.738" height="2.623"/>
	<rect x="167.284" y="214.057" fill="#999999" width="73.738" height="2.621"/>
	<rect x="167.284" y="218.596" fill="#999999" width="73.738" height="2.623"/>
	<rect x="167.284" y="223.135" fill="#999999" width="54.057" height="2.623"/>
	<rect x="235.026" y="182.281" fill="#999999" width="6.195" height="2.625"/>
	<rect x="230.725" y="186.52" fill="#999999" width="10.5" height="2.621"/>
	<rect x="236.727" y="190.754" fill="#999999" width="4.496" height="2.623"/>
	<rect x="234.467" y="194.992" fill="#999999" width="6.756" height="2.623"/>
	<rect x="237.067" y="199.229" fill="#999999" width="4.154" height="2.625"/>
</g>
</svg>
