<?xml version="1.0" encoding="utf-8"?>
<!-- Generator: Adobe Illustrator 15.1.0, SVG Export Plug-In . SVG Version: 6.00 Build 0)  -->
<!DOCTYPE svg PUBLIC "-//W3C//DTD SVG 1.1//EN" "http://www.w3.org/Graphics/SVG/1.1/DTD/svg11.dtd">
<svg version="1.1" id="Layer_1" xmlns="http://www.w3.org/2000/svg" xmlns:xlink="http://www.w3.org/1999/xlink" x="0px" y="0px"
	 width="283.465px" height="269.291px" viewBox="63.268 55.354 283.465 269.291"
	 enable-background="new 63.268 55.354 283.465 269.291" xml:space="preserve">
<g>
	<g>
		<polygon fill="#A2B2D6" points="214.967,102.539 202.622,137.412 202.573,137.547 155.725,270.201 285.888,316.645 
			343.536,145.94 340.816,144.895 		"/>
		<g>
			
				<rect x="187.254" y="118.468" transform="matrix(0.9427 0.3337 -0.3337 0.9427 83.5501 -72.2637)" fill="#F1F2F2" width="129.753" height="177.219"/>
			
				<rect x="207.541" y="140.438" transform="matrix(0.9427 0.3337 -0.3337 0.9427 65.5902 -82.3195)" fill="#5A5A7A" width="129.754" height="18.655"/>
			
				<rect x="243.577" y="130.969" transform="matrix(0.9427 0.3337 -0.3337 0.9427 60.9201 -86.9685)" fill="#5A5A7A" width="80.077" height="5.756"/>
			
				<rect x="161.891" y="277.506" transform="matrix(0.9427 0.3337 -0.3337 0.9427 106.0032 -59.6942)" fill="#5A5A7A" width="129.752" height="2.429"/>
			<g>
				<path fill="#6B2D6E" d="M236.657,217.79c4.608,0.523,9.187-0.082,13.389-1.647l-9.649-23.306L236.657,217.79z"/>
				<path fill="#FFD121" d="M252.004,215.331c6.606-3.023,12.078-8.504,14.934-15.736l-25.135-8.899L252.004,215.331z"/>
				<path fill="#75CF33" d="M250.604,161.879l-9.338,26.379l26.379,9.338C272.206,183.077,264.759,167.469,250.604,161.879z"/>
				<path fill="#F2274D" d="M214.725,203.398c3.336,5.804,8.685,10.493,15.49,12.902c1.44,0.51,2.893,0.897,4.348,1.172
					l3.993-26.652L214.725,203.398z"/>
				<path fill="#317AB0" d="M212.517,179.205c-1.915,5.41-2.131,11.008-0.93,16.213l0.552,2.046
					c0.431,1.394,0.965,2.749,1.597,4.061l25.189-13.001l0.177-0.499l3.825-10.803l5.682-16.05
					C233.753,156.506,217.754,164.408,212.517,179.205z"/>
			</g>
			<g>
				
					<rect x="199.374" y="217.149" transform="matrix(0.9428 0.3335 -0.3335 0.9428 90.1106 -54.0775)" fill="#2E97CC" width="6.425" height="36.623"/>
				
					<rect x="206.604" y="232.512" transform="matrix(0.9427 0.3336 -0.3336 0.9427 93.6346 -55.9868)" fill="#BCD81A" width="6.425" height="24.202"/>
				
					<rect x="214.715" y="242.423" transform="matrix(0.9427 0.3335 -0.3335 0.9427 96.2344 -58.3089)" fill="#FFC022" width="6.427" height="17.367"/>
				
					<rect x="223.047" y="250.804" transform="matrix(0.9427 0.3336 -0.3336 0.9427 98.6613 -60.7715)" fill="#8A379B" width="6.425" height="12.101"/>
				
					<rect x="233.687" y="245.917" transform="matrix(0.9427 0.3337 -0.3337 0.9427 99.0586 -64.3676)" fill="#F44D3B" width="6.424" height="20.506"/>
			</g>
			<g>
				
					<rect x="279.246" y="186.929" transform="matrix(0.9426 0.3338 -0.3338 0.9426 79.2336 -83.0703)" fill="#317AB0" width="4.207" height="4.208"/>
				
					<rect x="286.082" y="194.709" transform="matrix(0.9427 0.3337 -0.3337 0.9427 82.4183 -88.7824)" fill="#949AAA" width="27.114" height="1.609"/>
				
					<rect x="276.969" y="193.376" transform="matrix(0.9427 0.3336 -0.3336 0.9427 81.1943 -81.8972)" fill="#75CF33" width="4.207" height="4.207"/>
				
					<rect x="284.327" y="198.209" transform="matrix(0.9426 0.3338 -0.3338 0.9426 83.009 -85.0819)" fill="#949AAA" width="9.529" height="1.609"/>
				
					<rect x="274.699" y="199.788" transform="matrix(0.9426 0.3339 -0.3339 0.9426 83.287 -80.8299)" fill="#FFD121" width="4.206" height="4.208"/>
				
					<rect x="281.687" y="206.649" transform="matrix(0.9426 0.3338 -0.3338 0.9426 86.0313 -85.7571)" fill="#949AAA" width="21.725" height="1.609"/>
				
					<rect x="272.421" y="206.225" transform="matrix(0.9427 0.3335 -0.3335 0.9427 85.1979 -79.6295)" fill="#6B2D6E" width="4.208" height="4.209"/>
				
					<rect x="279.575" y="212.162" transform="matrix(0.9427 0.3337 -0.3337 0.9427 87.5666 -83.7966)" fill="#949AAA" width="16.202" height="1.609"/>
				
					<rect x="270.089" y="212.782" transform="matrix(0.9426 0.334 -0.334 0.9426 87.4021 -78.5717)" fill="#F2274D" width="4.207" height="4.207"/>
				
					<rect x="277.013" y="220.122" transform="matrix(0.9427 0.3337 -0.3337 0.9427 90.2973 -83.8708)" fill="#949AAA" width="24.579" height="1.61"/>
			</g>
			<g>
				<circle fill="#231F20" cx="205.952" cy="162.522" r="2.024"/>
				<circle fill="#231F20" cx="188.204" cy="212.66" r="2.023"/>
			</g>
			<g>
				
					<rect x="256.36" y="242.146" transform="matrix(0.9427 0.3337 -0.3337 0.9427 97.166 -78.1439)" fill="#5A5A7A" width="39.379" height="3.238"/>
				
					<rect x="259.903" y="250.244" transform="matrix(0.9427 0.3337 -0.3337 0.9427 99.6329 -77.9196)" fill="#949AAA" width="33.44" height="1.61"/>
				
					<rect x="252.586" y="253.626" transform="matrix(0.9427 0.3337 -0.3337 0.9427 100.5112 -76.2744)" fill="#949AAA" width="39.378" height="1.609"/>
				
					<rect x="251.039" y="257.994" transform="matrix(0.9427 0.3337 -0.3337 0.9427 101.8775 -75.5066)" fill="#949AAA" width="39.379" height="1.609"/>
				
					<rect x="249.482" y="262.37" transform="matrix(0.9427 0.3337 -0.3337 0.9427 103.2457 -74.7349)" fill="#949AAA" width="39.38" height="1.61"/>
				
					<rect x="247.944" y="266.737" transform="matrix(0.9427 0.3337 -0.3337 0.9427 104.6174 -73.9726)" fill="#949AAA" width="39.379" height="1.609"/>
				
					<rect x="246.699" y="269.414" transform="matrix(0.9427 0.3337 -0.3337 0.9427 105.1572 -71.719)" fill="#949AAA" width="29.26" height="1.609"/>
			</g>
			
				<rect x="223.706" y="221.064" transform="matrix(0.9427 0.3336 -0.3336 0.9427 87.0996 -63.432)" fill="#949AAA" width="9.045" height="1.609"/>
			
				<rect x="208.917" y="262.84" transform="matrix(0.9427 0.3337 -0.3337 0.9427 100.2227 -56.1159)" fill="#5A5A7A" width="9.045" height="1.61"/>
		</g>
	</g>
	<g>
		<polygon fill="#A2B2D6" points="82.424,207.577 282.637,225.89 291.4,81.584 98.91,63.997 		"/>
		<g>
			<g>
				
					<rect x="91.86" y="71.548" transform="matrix(0.9962 0.0875 -0.0875 0.9962 13.1805 -15.9553)" fill="#F7F7F7" width="193.466" height="141.648"/>
			</g>
			<g>
				<polygon fill="#5A5A7A" points="216.819,90.096 268.884,94.733 269.217,90.926 217.154,86.288 				"/>
				<polygon fill="#949AAA" points="226.358,97.882 268.276,101.629 268.443,99.736 226.523,95.989 				"/>
				<polygon fill="#949AAA" points="215.735,102.443 267.798,107.08 267.964,105.187 215.901,100.55 				"/>
				<polygon fill="#949AAA" points="215.258,107.894 267.32,112.532 267.485,110.639 215.423,106.002 				"/>
				<polygon fill="#949AAA" points="214.777,113.346 266.841,117.983 267.006,116.09 214.943,111.452 				"/>
				<polygon fill="#949AAA" points="214.298,118.797 266.362,123.434 266.527,121.542 214.465,116.905 				"/>
				<polygon fill="#949AAA" points="213.796,124.528 265.858,129.166 266.025,127.272 213.962,122.636 				"/>
				<polygon fill="#949AAA" points="213.316,129.979 265.38,134.617 265.546,132.724 213.483,128.087 				"/>
				<polygon fill="#949AAA" points="212.837,135.431 247.616,138.55 247.782,136.657 213.004,133.539 				"/>
			</g>
		</g>
		<g>
			<path opacity="0.6" fill="#A8F4F4" enable-background="new    " d="M190.603,139.411c-38.741-3.56-24.017-48.189-47.2-51.47
				c-21.291-3.013-20.675,32.892-35.63,31.517l-1.282,17.846l91.352,8.205l-0.26-5.687
				C195.375,139.768,193.051,139.635,190.603,139.411z"/>
			<path opacity="0.5" fill="#FFDA40" enable-background="new    " d="M186.226,122.768c-8.767-11.729-20.708-14.295-34.421-0.392
				c-8.565,8.685-19.604,4.721-24.376-2.565c-3.09-4.72-8.209-12.167-18.229-13.089l-2.711,30.581l91.352,8.205l0.865-14.83
				C194.077,130.196,189.693,127.406,186.226,122.768z"/>
			<g opacity="0.2">
				<path fill="#3F4751" d="M147.469,140.983l11.913,1.07l2.323-26.931c-3.053-8.621-4.849-17.453-9.625-22.672L147.469,140.983z"/>
			</g>
			<g>
				<g>
					<path fill="#9C9DA1" d="M161.747,114.741c-0.213-0.019-0.401,0.137-0.42,0.35l-0.071,0.771c-0.02,0.213,0.137,0.401,0.35,0.42
						c0.012,0.001,0.024,0.001,0.036,0.001c0.198,0,0.367-0.15,0.385-0.352l0.071-0.771
						C162.117,114.949,161.959,114.76,161.747,114.741z"/>
				</g>
				<g>
					<path fill="#9C9DA1" d="M160.375,129.665c-0.21-0.02-0.401,0.138-0.42,0.351l-0.145,1.572c-0.02,0.213,0.136,0.401,0.35,0.42
						c0.012,0.001,0.024,0.002,0.036,0.002c0.198,0,0.367-0.151,0.385-0.352l0.145-1.573
						C160.745,129.873,160.588,129.684,160.375,129.665z"/>
					<path fill="#9C9DA1" d="M159.653,137.527c-0.212-0.018-0.401,0.138-0.421,0.351l-0.145,1.573
						c-0.019,0.213,0.138,0.401,0.35,0.42c0.012,0.001,0.024,0.001,0.036,0.001c0.198,0,0.367-0.15,0.385-0.352l0.145-1.572
						C160.022,137.736,159.866,137.547,159.653,137.527z"/>
					<path fill="#9C9DA1" d="M160.014,133.597c-0.211-0.019-0.401,0.137-0.421,0.35l-0.145,1.573
						c-0.019,0.212,0.137,0.401,0.35,0.42c0.012,0,0.024,0.001,0.036,0.001c0.198,0,0.366-0.15,0.385-0.352l0.145-1.573
						C160.384,133.804,160.227,133.616,160.014,133.597z"/>
					<path fill="#9C9DA1" d="M161.459,117.871c-0.213-0.018-0.401,0.137-0.42,0.35l-0.145,1.572c-0.02,0.213,0.137,0.401,0.35,0.421
						c0.012,0,0.024,0.001,0.036,0.001c0.198,0,0.366-0.151,0.385-0.352l0.145-1.572
						C161.828,118.079,161.672,117.891,161.459,117.871z"/>
					<path fill="#9C9DA1" d="M161.098,121.802c-0.211-0.019-0.401,0.137-0.42,0.35l-0.145,1.573c-0.02,0.213,0.137,0.401,0.35,0.421
						c0.012,0,0.024,0.001,0.036,0.001c0.198,0,0.367-0.151,0.385-0.352l0.145-1.572
						C161.468,122.01,161.311,121.822,161.098,121.802z"/>
					<path fill="#9C9DA1" d="M160.737,125.734c-0.212-0.018-0.401,0.137-0.42,0.35l-0.145,1.573c-0.02,0.213,0.137,0.401,0.35,0.421
						c0.012,0.001,0.024,0.001,0.036,0.001c0.197,0,0.366-0.151,0.385-0.352l0.145-1.572
						C161.106,125.942,160.95,125.753,160.737,125.734z"/>
				</g>
				<g>
					<path fill="#9C9DA1" d="M159.292,141.459c-0.21-0.02-0.401,0.138-0.42,0.35l-0.071,0.771c-0.019,0.212,0.137,0.401,0.351,0.42
						c0.012,0.001,0.023,0.001,0.036,0.001c0.198,0,0.366-0.151,0.385-0.352l0.071-0.771
						C159.661,141.667,159.504,141.479,159.292,141.459z"/>
				</g>
			</g>
			<g>
				<g>
					<path fill="#9C9DA1" d="M177.483,113.596c-0.213-0.018-0.401,0.137-0.421,0.35l-0.071,0.771c-0.02,0.213,0.136,0.401,0.35,0.42
						c0.012,0.001,0.024,0.001,0.036,0.001c0.198,0,0.367-0.15,0.385-0.352l0.071-0.771
						C177.852,113.804,177.696,113.615,177.483,113.596z"/>
				</g>
				<g>
					<path fill="#9C9DA1" d="M175.481,135.379c-0.213-0.019-0.401,0.136-0.42,0.349l-0.139,1.501
						c-0.019,0.213,0.138,0.401,0.351,0.421c0.013,0.001,0.024,0.001,0.036,0.001c0.198,0,0.367-0.151,0.385-0.352l0.138-1.501
						C175.851,135.587,175.694,135.399,175.481,135.379z"/>
					<path fill="#9C9DA1" d="M175.826,131.627c-0.211-0.019-0.401,0.137-0.421,0.35l-0.138,1.501c-0.02,0.213,0.137,0.401,0.35,0.42
						c0.012,0.001,0.024,0.001,0.036,0.001c0.198,0,0.367-0.15,0.385-0.352l0.138-1.501
						C176.195,131.835,176.039,131.646,175.826,131.627z"/>
					<path fill="#9C9DA1" d="M175.137,139.131c-0.211-0.019-0.401,0.137-0.421,0.35l-0.138,1.501c-0.02,0.212,0.137,0.401,0.35,0.42
						c0.012,0.001,0.024,0.001,0.036,0.001c0.197,0,0.366-0.15,0.385-0.352l0.138-1.501
						C175.506,139.339,175.349,139.151,175.137,139.131z"/>
					<path fill="#9C9DA1" d="M176.86,120.37c-0.212-0.019-0.401,0.137-0.421,0.35l-0.138,1.5c-0.02,0.213,0.136,0.401,0.35,0.421
						c0.012,0.001,0.024,0.002,0.036,0.002c0.198,0,0.367-0.151,0.385-0.352l0.138-1.501
						C177.23,120.579,177.074,120.39,176.86,120.37z"/>
					<path fill="#9C9DA1" d="M177.206,116.618c-0.214-0.018-0.402,0.136-0.422,0.35l-0.138,1.5c-0.019,0.213,0.138,0.401,0.35,0.422
						c0.012,0,0.024,0.001,0.036,0.001c0.198,0,0.367-0.151,0.385-0.352l0.138-1.5C177.575,116.826,177.418,116.638,177.206,116.618
						z"/>
					<path fill="#9C9DA1" d="M176.171,127.875c-0.211-0.019-0.401,0.138-0.42,0.351l-0.138,1.5c-0.02,0.213,0.136,0.401,0.35,0.421
						c0.012,0.001,0.024,0.001,0.036,0.001c0.198,0,0.366-0.151,0.386-0.352l0.137-1.501
						C176.54,128.083,176.384,127.895,176.171,127.875z"/>
					<path fill="#9C9DA1" d="M176.516,124.123c-0.211-0.019-0.401,0.137-0.421,0.35l-0.138,1.501
						c-0.019,0.213,0.138,0.401,0.35,0.42c0.012,0.001,0.024,0.001,0.036,0.001c0.197,0,0.366-0.15,0.385-0.352l0.138-1.501
						C176.885,124.33,176.728,124.142,176.516,124.123z"/>
				</g>
				<g>
					<path fill="#9C9DA1" d="M174.792,142.884c-0.212-0.02-0.4,0.137-0.42,0.35l-0.071,0.771c-0.019,0.213,0.138,0.401,0.351,0.42
						c0.012,0,0.023,0.001,0.036,0.001c0.197,0,0.367-0.151,0.385-0.352l0.071-0.771
						C175.161,143.091,175.005,142.903,174.792,142.884z"/>
				</g>
			</g>
			<g>
				<g>
					<path fill="#9C9DA1" d="M151.97,92.855c-0.211-0.019-0.401,0.138-0.421,0.351l-0.07,0.771c-0.019,0.212,0.137,0.401,0.35,0.42
						c0.012,0.002,0.024,0.002,0.036,0.002c0.198,0,0.367-0.151,0.385-0.352l0.071-0.771
						C152.34,93.064,152.183,92.875,151.97,92.855z"/>
				</g>
				<g>
					<path fill="#9C9DA1" d="M149.123,123.841c-0.213-0.019-0.401,0.136-0.421,0.35l-0.146,1.59c-0.02,0.213,0.137,0.401,0.35,0.421
						c0.012,0,0.024,0.001,0.036,0.001c0.197,0,0.366-0.15,0.385-0.352l0.146-1.59C149.492,124.048,149.335,123.86,149.123,123.841z
						"/>
					<path fill="#9C9DA1" d="M149.853,115.89c-0.21-0.019-0.4,0.137-0.42,0.35l-0.146,1.59c-0.019,0.213,0.137,0.401,0.351,0.42
						c0.012,0.001,0.023,0.001,0.036,0.001c0.198,0,0.366-0.15,0.385-0.352l0.146-1.59
						C150.223,116.098,150.066,115.91,149.853,115.89z"/>
					<path fill="#9C9DA1" d="M148.757,127.816c-0.212-0.019-0.401,0.136-0.421,0.35l-0.146,1.59
						c-0.019,0.213,0.138,0.401,0.35,0.421c0.012,0,0.024,0.001,0.036,0.001c0.197,0,0.366-0.15,0.385-0.352l0.146-1.59
						C149.127,128.024,148.97,127.836,148.757,127.816z"/>
					<path fill="#9C9DA1" d="M148.026,135.768c-0.21-0.019-0.401,0.137-0.421,0.35l-0.146,1.59c-0.02,0.212,0.137,0.401,0.351,0.42
						c0.012,0,0.024,0.001,0.036,0.001c0.197,0,0.366-0.151,0.384-0.352l0.147-1.59C148.396,135.976,148.24,135.787,148.026,135.768
						z"/>
					<path fill="#9C9DA1" d="M148.392,131.792c-0.211-0.019-0.401,0.137-0.42,0.35l-0.147,1.59c-0.02,0.212,0.137,0.401,0.351,0.421
						c0.012,0,0.024,0.001,0.036,0.001c0.198,0,0.366-0.151,0.384-0.352l0.147-1.591C148.761,132,148.605,131.812,148.392,131.792z"
						/>
					<path fill="#9C9DA1" d="M149.488,119.866c-0.211-0.019-0.401,0.137-0.421,0.35l-0.146,1.59c-0.02,0.213,0.137,0.401,0.35,0.42
						c0.012,0.001,0.024,0.001,0.036,0.001c0.198,0,0.366-0.151,0.384-0.352l0.147-1.59
						C149.857,120.073,149.701,119.885,149.488,119.866z"/>
					<path fill="#9C9DA1" d="M151.314,99.987c-0.211-0.018-0.401,0.137-0.421,0.351l-0.146,1.589
						c-0.019,0.213,0.138,0.401,0.35,0.421c0.012,0,0.024,0.001,0.036,0.001c0.198,0,0.367-0.151,0.385-0.352l0.146-1.59
						C151.684,100.195,151.527,100.007,151.314,99.987z"/>
					<path fill="#9C9DA1" d="M151.68,96.012c-0.212-0.018-0.401,0.138-0.421,0.351l-0.146,1.59c-0.02,0.212,0.137,0.401,0.35,0.421
						c0.012,0.001,0.024,0.001,0.036,0.001c0.198,0,0.366-0.151,0.385-0.352l0.146-1.59
						C152.049,96.221,151.892,96.032,151.68,96.012z"/>
					<path fill="#9C9DA1" d="M150.949,103.963c-0.212-0.018-0.401,0.137-0.421,0.35l-0.146,1.589
						c-0.019,0.213,0.138,0.401,0.35,0.421c0.012,0.001,0.024,0.001,0.036,0.001c0.198,0,0.367-0.151,0.385-0.352l0.146-1.59
						C151.318,104.171,151.162,103.983,150.949,103.963z"/>
					<path fill="#9C9DA1" d="M150.219,111.915c-0.211-0.02-0.401,0.137-0.421,0.35l-0.146,1.59c-0.02,0.212,0.137,0.401,0.351,0.421
						c0.012,0,0.023,0.001,0.036,0.001c0.198,0,0.366-0.151,0.385-0.352l0.146-1.591
						C150.588,112.123,150.432,111.934,150.219,111.915z"/>
					<path fill="#9C9DA1" d="M150.583,107.939c-0.212-0.018-0.401,0.137-0.42,0.35l-0.146,1.59c-0.02,0.212,0.137,0.401,0.35,0.421
						c0.012,0,0.024,0.001,0.036,0.001c0.198,0,0.366-0.151,0.385-0.352l0.146-1.59
						C150.953,108.146,150.796,107.958,150.583,107.939z"/>
				</g>
				<g>
					<path fill="#9C9DA1" d="M147.662,139.742c-0.21-0.018-0.401,0.138-0.421,0.351l-0.071,0.771c-0.02,0.212,0.136,0.401,0.35,0.42
						c0.012,0,0.024,0.001,0.036,0.001c0.198,0,0.367-0.15,0.386-0.352l0.07-0.771C148.031,139.951,147.875,139.763,147.662,139.742
						z"/>
				</g>
			</g>
			<g>
				<g>
					<path fill="#9C9DA1" d="M119.357,110.846c-0.211-0.019-0.401,0.137-0.422,0.35l-0.071,0.771
						c-0.019,0.213,0.137,0.401,0.35,0.421c0.012,0,0.024,0.001,0.036,0.001c0.198,0,0.366-0.15,0.385-0.352l0.07-0.771
						C119.727,111.054,119.57,110.865,119.357,110.846z"/>
				</g>
				<g>
					<path fill="#9C9DA1" d="M117.986,125.77c-0.212-0.019-0.401,0.138-0.421,0.351l-0.145,1.573
						c-0.019,0.213,0.138,0.401,0.35,0.42c0.012,0.001,0.024,0.001,0.036,0.001c0.198,0,0.367-0.15,0.385-0.352l0.145-1.572
						C118.356,125.978,118.199,125.79,117.986,125.77z"/>
					<path fill="#9C9DA1" d="M117.625,129.701c-0.213-0.018-0.401,0.138-0.421,0.35l-0.144,1.572c-0.02,0.213,0.137,0.401,0.35,0.42
						c0.012,0.001,0.024,0.001,0.036,0.001c0.198,0,0.367-0.15,0.385-0.352l0.145-1.572
						C117.994,129.909,117.837,129.721,117.625,129.701z"/>
					<path fill="#9C9DA1" d="M117.264,133.632c-0.211-0.02-0.401,0.137-0.421,0.35l-0.145,1.572
						c-0.019,0.213,0.137,0.401,0.351,0.421c0.012,0,0.023,0.001,0.036,0.001c0.198,0,0.366-0.15,0.385-0.352l0.145-1.573
						C117.633,133.84,117.477,133.652,117.264,133.632z"/>
					<path fill="#9C9DA1" d="M119.069,113.975c-0.212-0.019-0.4,0.138-0.421,0.351l-0.145,1.573c-0.019,0.212,0.137,0.401,0.35,0.42
						c0.012,0.001,0.024,0.001,0.036,0.001c0.198,0,0.366-0.151,0.384-0.352l0.145-1.573
						C119.439,114.183,119.283,113.995,119.069,113.975z"/>
					<path fill="#9C9DA1" d="M118.709,117.907c-0.213-0.018-0.401,0.137-0.421,0.35l-0.145,1.572
						c-0.019,0.212,0.138,0.401,0.35,0.42c0.012,0,0.024,0.001,0.036,0.001c0.198,0,0.367-0.151,0.385-0.352l0.145-1.572
						C119.078,118.115,118.921,117.926,118.709,117.907z"/>
					<path fill="#9C9DA1" d="M118.347,121.838c-0.212-0.02-0.401,0.137-0.42,0.35l-0.145,1.573c-0.02,0.212,0.137,0.401,0.35,0.42
						c0.012,0,0.024,0.001,0.036,0.001c0.197,0,0.366-0.151,0.384-0.352l0.146-1.572
						C118.716,122.046,118.561,121.858,118.347,121.838z"/>
				</g>
				<g>
					<path fill="#9C9DA1" d="M116.902,137.564c-0.212-0.019-0.401,0.137-0.421,0.35l-0.071,0.771
						c-0.019,0.213,0.138,0.401,0.351,0.421c0.012,0,0.024,0.001,0.036,0.001c0.198,0,0.366-0.151,0.384-0.352l0.071-0.771
						C117.271,137.772,117.115,137.583,116.902,137.564z"/>
				</g>
			</g>
			<g>
				<path fill="#72BDBA" d="M175.702,132.971c-0.054-0.004-0.107-0.007-0.161-0.007c-0.905,0-1.649,0.68-1.733,1.583
					c-0.043,0.463,0.098,0.916,0.396,1.272c0.297,0.358,0.717,0.579,1.18,0.621c0.054,0.005,0.108,0.008,0.162,0.008
					c0.904,0,1.649-0.68,1.732-1.583C177.365,133.909,176.658,133.059,175.702,132.971z"/>
				<path fill="#FFFFFF" d="M175.738,132.586c-0.066-0.006-0.132-0.009-0.196-0.009c-1.106,0-2.017,0.832-2.118,1.935
					c-0.052,0.565,0.119,1.118,0.483,1.556c0.364,0.437,0.875,0.706,1.442,0.758c0.066,0.006,0.132,0.009,0.197,0.009
					c1.106,0,2.017-0.831,2.118-1.934c0.052-0.566-0.12-1.119-0.483-1.556C176.816,132.907,176.304,132.637,175.738,132.586z
					 M175.545,136.06c-0.042,0-0.083-0.001-0.126-0.005c-0.745-0.068-1.293-0.728-1.224-1.473c0.064-0.703,0.655-1.231,1.347-1.231
					c0.042,0,0.083,0.002,0.126,0.005c0.745,0.068,1.293,0.728,1.225,1.473C176.828,135.532,176.237,136.06,175.545,136.06z"/>
			</g>
			<g>
				<path fill="#72BDBA" d="M175.815,134.326l-0.544,0.877c4.222,2.619,9.221,4.163,15.284,4.721
					c2.397,0.221,4.757,0.358,7.013,0.412l0.023-1.032c-2.232-0.053-4.567-0.19-6.943-0.409
					C184.751,138.354,179.897,136.86,175.815,134.326z"/>
			</g>
			<g>
				<path fill="#72BDBA" d="M160.132,108.695c-3.225-10.18-6.271-19.795-16.657-21.265c-12.012-1.7-17.287,8.657-21.941,17.794
					c-3.748,7.358-7.292,14.309-13.715,13.72l-0.094,1.027c7.122,0.654,10.818-6.599,14.729-14.279
					c4.717-9.262,9.595-18.837,20.876-17.241c9.743,1.379,12.558,10.265,15.818,20.555c2.993,9.446,6.384,20.153,16.125,26.197
					l0.544-0.877C166.4,128.484,163.07,117.97,160.132,108.695z"/>
			</g>
			<g>
				<path fill="#FFC022" d="M186.554,122.522c-7.206-9.641-15.87-12.387-25.055-7.94l0.356,0.736
					c11.102-5.374,19.203,1.218,24.043,7.694c3.525,4.715,8.059,7.582,12.765,8.072l0.085-0.813
					C194.271,129.804,189.94,127.052,186.554,122.522z"/>
			</g>
			<g>
				<path fill="#FFFFFF" d="M151.514,122.088c-0.884,0.896-1.822,1.68-2.79,2.332l0.458,0.679c1.013-0.682,1.994-1.502,2.915-2.436
					c3.281-3.327,6.565-5.798,9.758-7.345l-0.356-0.736C158.221,116.169,154.862,118.694,151.514,122.088z"/>
			</g>
			<g>
				<path fill="#FFC022" d="M138.028,126.633c-4.071-0.822-7.906-3.456-10.257-7.047c-2.817-4.303-8.061-12.31-18.533-13.272
					l-0.074,0.815c10.079,0.926,15.182,8.718,17.923,12.905c2.468,3.77,6.498,6.537,10.78,7.401c0.987,0.2,1.972,0.299,2.949,0.299
					c2.928,0,5.777-0.891,8.367-2.635l-0.458-0.679C145.457,126.62,141.758,127.385,138.028,126.633z"/>
			</g>
			<g>
				<g>
					<polygon fill="#9C9DA1" points="112.463,79.335 111.179,79.217 105.788,137.886 197.596,146.322 197.714,145.038 
						107.19,136.719 					"/>
				</g>
				<g>
					<polygon fill="#9C9DA1" points="109.596,80.569 111.796,79.548 113.773,80.952 112.154,75.649 					"/>
				</g>
				<g>
					<polygon fill="#9C9DA1" points="197.383,145.655 195.979,147.633 201.282,146.014 196.363,143.455 					"/>
				</g>
			</g>
			<g>
				<circle fill="#FFFFFF" cx="119.385" cy="110.546" r="1.355"/>
				<path fill="#FFC022" d="M119.545,108.812c-0.974-0.088-1.806,0.621-1.894,1.575c-0.088,0.957,0.619,1.806,1.575,1.894
					c0.054,0.005,0.108,0.007,0.162,0.007c0.905,0,1.649-0.68,1.732-1.583c0.043-0.463-0.098-0.915-0.396-1.273
					C120.427,109.075,120.007,108.854,119.545,108.812z M119.297,111.51c-0.531-0.049-0.924-0.521-0.875-1.053
					c0.046-0.501,0.46-0.879,0.962-0.879c0.03,0,0.06,0.001,0.09,0.004c0.257,0.024,0.49,0.146,0.655,0.345
					c0.165,0.199,0.243,0.45,0.22,0.707C120.3,111.166,119.837,111.559,119.297,111.51z"/>
			</g>
			<g>
				<circle fill="#FFFFFF" cx="109.36" cy="106.861" r="1.354"/>
				<path fill="#FFC022" d="M109.521,105.127c-0.975-0.087-1.806,0.62-1.894,1.575c-0.088,0.956,0.619,1.806,1.575,1.893
					c0.054,0.005,0.108,0.008,0.161,0.008c0.905,0,1.65-0.68,1.732-1.583c0.043-0.463-0.098-0.915-0.395-1.273
					C110.402,105.39,109.983,105.169,109.521,105.127z M109.271,107.825c-0.531-0.048-0.924-0.521-0.875-1.052
					c0.046-0.501,0.459-0.879,0.962-0.879c0.029,0,0.06,0.001,0.09,0.004c0.257,0.023,0.491,0.146,0.656,0.345
					c0.165,0.199,0.243,0.45,0.22,0.707C110.275,107.481,109.812,107.875,109.271,107.825z"/>
			</g>
			<g>
				<circle fill="#FFFFFF" cx="161.711" cy="115.126" r="1.355"/>
				<path fill="#FFC022" d="M161.871,113.392c-0.975-0.089-1.806,0.62-1.894,1.575c-0.043,0.463,0.098,0.915,0.396,1.273
					s0.717,0.578,1.18,0.621c0.054,0.005,0.108,0.007,0.161,0.007c0.905,0,1.65-0.681,1.733-1.583
					c0.042-0.463-0.098-0.915-0.396-1.272C162.753,113.655,162.334,113.435,161.871,113.392z M161.623,116.09
					c-0.257-0.024-0.49-0.147-0.655-0.345c-0.166-0.199-0.243-0.45-0.22-0.708c0.046-0.501,0.46-0.879,0.962-0.879
					c0.03,0,0.059,0.001,0.089,0.003c0.257,0.024,0.491,0.147,0.656,0.345c0.165,0.199,0.243,0.45,0.22,0.708
					C162.626,115.746,162.167,116.139,161.623,116.09z"/>
			</g>
			<circle fill="#72BDBA" cx="152.093" cy="92.322" r="1.355"/>
			<circle fill="#FFC022" cx="177.505" cy="114.764" r="1.354"/>
			<circle fill="#72BDBA" cx="126.062" cy="98.033" r="1.354"/>
			<circle fill="#9C9DA1" cx="116.921" cy="138.3" r="1.355"/>
			<circle fill="#9C9DA1" cx="159.311" cy="142.195" r="1.354"/>
			<circle fill="#9C9DA1" cx="174.896" cy="143.627" r="1.354"/>
			<circle fill="#9C9DA1" cx="147.621" cy="141.121" r="1.355"/>
			<g>
				<circle fill="#FFFFFF" cx="108.289" cy="119.458" r="1.354"/>
				<path fill="#72BDBA" d="M108.449,117.724c-0.975-0.087-1.806,0.62-1.894,1.575c-0.043,0.463,0.098,0.916,0.395,1.273
					c0.297,0.357,0.717,0.578,1.18,0.62c0.054,0.005,0.108,0.008,0.161,0.008c0.905,0,1.65-0.68,1.732-1.583
					C110.111,118.661,109.405,117.812,108.449,117.724z M108.201,120.421c-0.258-0.024-0.49-0.146-0.655-0.344
					c-0.166-0.199-0.244-0.451-0.22-0.707c0.046-0.502,0.459-0.879,0.962-0.879c0.029,0,0.06,0.001,0.09,0.004
					c0.531,0.048,0.924,0.521,0.875,1.052C109.204,120.077,108.742,120.471,108.201,120.421z"/>
			</g>
			<g>
				<polygon fill="#72BDBA" points="155,84.714 154.279,90.041 159.513,90.741 158.632,87.516 				"/>
				<g>
					<path fill="#FFFFFF" d="M160.449,81.043c-0.145-0.014-0.287-0.021-0.43-0.021c-2.411,0-4.394,1.813-4.615,4.216
						c-0.113,1.233,0.261,2.438,1.053,3.391c0.792,0.953,1.908,1.54,3.142,1.653c0.145,0.014,0.288,0.02,0.43,0.02
						c2.41,0,4.394-1.813,4.615-4.215c0.113-1.234-0.261-2.438-1.054-3.392C162.799,81.743,161.683,81.156,160.449,81.043z"/>
					<path fill="#72BDBA" d="M160.492,80.581c-0.157-0.015-0.315-0.021-0.471-0.021c-2.652,0-4.834,1.993-5.078,4.637
						c-0.125,1.357,0.287,2.682,1.159,3.73c0.872,1.047,2.099,1.694,3.457,1.818c0.156,0.015,0.315,0.022,0.472,0.022
						c2.651,0,4.833-1.994,5.077-4.637C165.364,83.328,163.294,80.838,160.492,80.581z M164.183,86.044
						c-0.199,2.167-2.02,3.794-4.153,3.794c-0.128,0-0.257-0.006-0.387-0.017c-2.296-0.212-3.987-2.245-3.776-4.541
						c0.2-2.166,2.02-3.794,4.154-3.794c0.128,0,0.257,0.006,0.387,0.018C162.703,81.715,164.394,83.748,164.183,86.044z"/>
				</g>
			</g>
			<g>
				<polygon fill="#FFC022" points="180.203,107.885 179.483,113.212 184.716,113.913 183.835,110.688 				"/>
				<g>
					<path fill="#FFFFFF" d="M185.652,104.214c-0.145-0.013-0.288-0.02-0.43-0.02c-2.41,0-4.395,1.813-4.615,4.215
						c-0.113,1.234,0.261,2.438,1.053,3.391c0.793,0.954,1.908,1.541,3.142,1.654c0.145,0.013,0.288,0.02,0.429,0.02
						c2.41,0,4.395-1.813,4.616-4.215c0.113-1.234-0.262-2.438-1.054-3.391S186.886,104.328,185.652,104.214z"/>
					<g>
						<path fill="#FFC022" d="M185.695,103.752c-0.157-0.015-0.315-0.022-0.472-0.022c-2.652,0-4.834,1.994-5.078,4.637
							c-0.257,2.802,1.813,5.292,4.616,5.549c0.156,0.014,0.315,0.021,0.472,0.021c2.651,0,4.834-1.993,5.077-4.637
							C190.567,106.5,188.497,104.01,185.695,103.752z M189.386,109.216c-0.199,2.166-2.02,3.794-4.153,3.794
							c-0.128,0-0.257-0.006-0.387-0.018c-2.296-0.211-3.987-2.244-3.775-4.54c0.198-2.167,2.02-3.794,4.153-3.794
							c0.128,0,0.257,0.006,0.387,0.018C187.907,104.888,189.597,106.92,189.386,109.216z"/>
					</g>
				</g>
			</g>
			<g>
				<path fill="#72BDBA" d="M159.724,85.294c0.192-0.139,0.299-0.325,0.321-0.559c0.011-0.115-0.002-0.225-0.041-0.329
					c-0.037-0.104-0.094-0.197-0.171-0.279c-0.077-0.082-0.17-0.149-0.282-0.202c-0.111-0.054-0.234-0.086-0.368-0.098
					c-0.134-0.013-0.261-0.003-0.38,0.029c-0.119,0.033-0.224,0.082-0.313,0.147c-0.09,0.066-0.164,0.147-0.22,0.243
					s-0.089,0.201-0.1,0.316c-0.022,0.233,0.049,0.436,0.213,0.609c-0.14,0.07-0.247,0.164-0.322,0.283
					c-0.076,0.119-0.122,0.256-0.136,0.412c-0.012,0.132,0.001,0.258,0.042,0.379c0.04,0.121,0.103,0.229,0.188,0.324
					c0.085,0.095,0.19,0.173,0.317,0.234c0.125,0.062,0.268,0.1,0.426,0.114c0.159,0.015,0.306,0.003,0.44-0.035
					c0.135-0.037,0.253-0.095,0.354-0.173c0.102-0.078,0.183-0.172,0.244-0.284c0.061-0.112,0.098-0.234,0.11-0.365
					C160.076,85.745,159.968,85.488,159.724,85.294z M159.34,86.103c-0.025,0.049-0.058,0.089-0.098,0.124
					c-0.04,0.034-0.086,0.059-0.135,0.077c-0.05,0.017-0.101,0.024-0.154,0.019c-0.055-0.004-0.104-0.021-0.148-0.046
					c-0.044-0.027-0.084-0.06-0.118-0.1c-0.034-0.04-0.059-0.087-0.074-0.141c-0.016-0.054-0.021-0.109-0.016-0.167
					c0.005-0.061,0.021-0.115,0.046-0.163c0.025-0.049,0.058-0.09,0.099-0.125c0.041-0.036,0.085-0.062,0.133-0.079
					c0.048-0.018,0.101-0.024,0.156-0.019c0.109,0.011,0.199,0.059,0.268,0.146c0.07,0.088,0.099,0.192,0.087,0.313
					C159.381,85.999,159.366,86.054,159.34,86.103z M159.297,84.949c-0.064,0.054-0.139,0.078-0.225,0.07
					c-0.041-0.004-0.079-0.016-0.112-0.035c-0.035-0.019-0.064-0.045-0.088-0.076c-0.024-0.032-0.043-0.066-0.057-0.104
					c-0.013-0.039-0.018-0.078-0.014-0.12c0.007-0.087,0.044-0.159,0.108-0.213c0.065-0.055,0.138-0.079,0.22-0.071
					c0.085,0.008,0.155,0.044,0.208,0.111c0.053,0.065,0.076,0.142,0.068,0.229C159.398,84.823,159.361,84.894,159.297,84.949z"/>
				<path fill="#72BDBA" d="M162.135,85.677c0.098-0.112,0.174-0.223,0.23-0.333s0.089-0.223,0.1-0.341
					c0.011-0.124,0-0.24-0.035-0.35c-0.034-0.109-0.088-0.207-0.164-0.293c-0.075-0.086-0.168-0.156-0.279-0.21
					c-0.111-0.054-0.238-0.088-0.381-0.102c-0.156-0.014-0.305,0.004-0.444,0.056c-0.14,0.052-0.265,0.134-0.375,0.248
					c-0.073,0.076-0.132,0.162-0.177,0.259c-0.044,0.096-0.071,0.183-0.078,0.26c-0.01,0.104,0.014,0.19,0.07,0.257
					c0.057,0.068,0.132,0.105,0.228,0.115c0.088,0.008,0.156-0.013,0.206-0.064c0.049-0.051,0.099-0.132,0.15-0.243
					c0.048-0.098,0.101-0.169,0.161-0.213c0.059-0.044,0.121-0.063,0.184-0.058c0.071,0.007,0.128,0.038,0.171,0.093
					c0.043,0.055,0.061,0.125,0.052,0.21c-0.01,0.115-0.088,0.253-0.232,0.412c-0.145,0.16-0.347,0.359-0.606,0.598
					c-0.181,0.167-0.324,0.299-0.429,0.399c-0.104,0.1-0.161,0.191-0.168,0.273c-0.018,0.206,0.105,0.321,0.371,0.345l1.179,0.108
					c0.315,0.029,0.483-0.059,0.501-0.265c0.019-0.206-0.129-0.323-0.444-0.353l-0.612-0.056c0.173-0.144,0.33-0.277,0.468-0.4
					C161.92,85.906,162.038,85.79,162.135,85.677z"/>
			</g>
			<g>
				<path fill="#FFC022" d="M184.786,108.583c0.192-0.141,0.299-0.326,0.321-0.559c0.011-0.116-0.002-0.225-0.041-0.33
					c-0.036-0.104-0.093-0.197-0.171-0.279c-0.077-0.082-0.17-0.149-0.282-0.203c-0.11-0.052-0.234-0.086-0.368-0.098
					c-0.134-0.013-0.26-0.002-0.38,0.029c-0.119,0.032-0.224,0.081-0.314,0.147c-0.09,0.066-0.163,0.147-0.22,0.243
					c-0.056,0.096-0.088,0.201-0.1,0.316c-0.021,0.233,0.049,0.436,0.214,0.608c-0.139,0.07-0.247,0.164-0.323,0.284
					c-0.075,0.118-0.121,0.255-0.136,0.412c-0.012,0.132,0.002,0.258,0.042,0.379c0.04,0.121,0.103,0.229,0.188,0.324
					c0.085,0.095,0.191,0.173,0.317,0.234c0.125,0.062,0.268,0.1,0.426,0.114c0.159,0.015,0.306,0.003,0.44-0.034
					c0.135-0.037,0.253-0.095,0.354-0.172c0.101-0.078,0.182-0.173,0.244-0.285c0.062-0.111,0.098-0.233,0.11-0.364
					C185.139,109.032,185.031,108.777,184.786,108.583z M184.403,109.391c-0.025,0.049-0.059,0.09-0.099,0.124
					c-0.04,0.034-0.085,0.059-0.135,0.076c-0.05,0.018-0.102,0.024-0.153,0.02c-0.055-0.005-0.105-0.021-0.15-0.047
					c-0.044-0.026-0.083-0.06-0.118-0.1c-0.033-0.041-0.059-0.088-0.074-0.143c-0.016-0.054-0.021-0.109-0.016-0.167
					c0.006-0.06,0.021-0.115,0.046-0.163c0.025-0.049,0.059-0.091,0.099-0.126c0.041-0.034,0.085-0.061,0.134-0.079
					c0.049-0.018,0.1-0.025,0.155-0.019c0.11,0.01,0.199,0.059,0.268,0.146c0.069,0.088,0.099,0.191,0.088,0.313
					C184.443,109.288,184.428,109.343,184.403,109.391z M184.359,108.237c-0.064,0.055-0.139,0.079-0.223,0.071
					c-0.041-0.003-0.079-0.016-0.113-0.036c-0.035-0.02-0.063-0.044-0.088-0.076c-0.024-0.032-0.043-0.067-0.057-0.105
					c-0.013-0.039-0.017-0.078-0.014-0.12c0.008-0.087,0.044-0.158,0.109-0.213c0.064-0.055,0.137-0.079,0.22-0.071
					c0.085,0.007,0.154,0.044,0.207,0.109c0.053,0.066,0.077,0.144,0.069,0.231C184.461,108.112,184.423,108.182,184.359,108.237z"
					/>
				<path fill="#FFC022" d="M187.198,108.967c0.098-0.113,0.174-0.224,0.229-0.333c0.056-0.11,0.089-0.224,0.1-0.341
					c0.011-0.123,0-0.239-0.035-0.35c-0.034-0.109-0.088-0.207-0.164-0.293c-0.075-0.086-0.168-0.156-0.279-0.21
					s-0.238-0.088-0.38-0.102c-0.156-0.014-0.305,0.004-0.444,0.057c-0.14,0.051-0.265,0.134-0.375,0.248
					c-0.073,0.075-0.133,0.162-0.178,0.258c-0.045,0.097-0.07,0.183-0.077,0.259c-0.01,0.104,0.014,0.19,0.069,0.257
					c0.056,0.067,0.132,0.106,0.228,0.115c0.088,0.008,0.156-0.013,0.205-0.064c0.049-0.051,0.099-0.132,0.151-0.243
					c0.048-0.098,0.102-0.169,0.161-0.213s0.121-0.064,0.184-0.058c0.071,0.006,0.129,0.038,0.172,0.093
					c0.043,0.055,0.061,0.125,0.053,0.21c-0.011,0.115-0.088,0.253-0.232,0.412c-0.146,0.16-0.347,0.359-0.606,0.598
					c-0.181,0.167-0.323,0.3-0.428,0.399c-0.105,0.099-0.161,0.19-0.168,0.273c-0.019,0.206,0.105,0.321,0.371,0.345l1.18,0.108
					c0.315,0.03,0.482-0.059,0.5-0.265c0.019-0.206-0.129-0.323-0.444-0.353l-0.612-0.056c0.173-0.145,0.33-0.278,0.467-0.4
					C186.984,109.197,187.101,109.079,187.198,108.967z"/>
			</g>
			<g>
				<path fill="#FFFFFF" d="M149.284,123.03c-0.054-0.005-0.108-0.008-0.161-0.008c-0.905,0-1.65,0.681-1.733,1.583
					c-0.043,0.464,0.098,0.916,0.396,1.273c0.297,0.358,0.716,0.578,1.179,0.621c0.054,0.005,0.108,0.007,0.162,0.007
					c0.905,0,1.65-0.68,1.732-1.583C150.947,123.968,150.24,123.118,149.284,123.03z"/>
				<path fill="#FFC022" d="M149.319,122.645c-0.065-0.007-0.131-0.009-0.196-0.009c-1.106,0-2.017,0.832-2.118,1.934
					c-0.052,0.566,0.119,1.119,0.482,1.556c0.364,0.437,0.876,0.706,1.442,0.759c0.065,0.006,0.13,0.009,0.196,0.009
					c1.106,0,2.017-0.832,2.117-1.934c0.052-0.566-0.119-1.119-0.483-1.556C150.398,122.966,149.885,122.697,149.319,122.645z
					 M149.126,126.119c-0.042,0-0.084-0.002-0.125-0.005c-0.745-0.068-1.294-0.728-1.225-1.473c0.064-0.703,0.655-1.231,1.347-1.231
					c0.042,0,0.083,0.001,0.125,0.005c0.745,0.068,1.293,0.728,1.225,1.473C150.409,125.591,149.818,126.119,149.126,126.119z"/>
			</g>
		</g>
	</g>
	<g>
		<g>
			<circle fill="#F7F7F7" cx="161.711" cy="189.004" r="1.19"/>
			<path fill="#7A3C7D" d="M161.837,187.371c-0.906-0.069-1.692,0.618-1.76,1.508c-0.069,0.9,0.608,1.688,1.51,1.758
				c0.042,0.004,0.084,0.005,0.126,0.005c0.85,0,1.567-0.664,1.631-1.513c0.034-0.436-0.105-0.859-0.39-1.19
				C162.669,187.605,162.272,187.404,161.837,187.371z M161.654,189.743c-0.41-0.031-0.717-0.388-0.686-0.797
				c0.03-0.384,0.355-0.686,0.741-0.686c0.019,0,0.039,0,0.058,0.003c0.198,0.015,0.378,0.106,0.508,0.256
				c0.128,0.15,0.191,0.342,0.176,0.54C162.421,189.464,162.063,189.776,161.654,189.743z"/>
		</g>
		<g>
			<path fill="#F7F7F7" d="M174.26,167.39c-0.654-0.05-1.228,0.441-1.277,1.095c-0.05,0.656,0.442,1.228,1.097,1.278
				c0.655,0.05,1.228-0.44,1.278-1.096C175.408,168.013,174.916,167.44,174.26,167.39z"/>
			<path fill="#7A3C7D" d="M174.294,166.943c-0.903-0.071-1.69,0.618-1.759,1.508c-0.033,0.437,0.105,0.86,0.392,1.192
				c0.285,0.332,0.682,0.533,1.118,0.566c0.042,0.003,0.084,0.005,0.126,0.005c0.852,0,1.569-0.665,1.633-1.513
				c0.034-0.437-0.104-0.859-0.39-1.192C175.128,167.178,174.73,166.976,174.294,166.943z M174.113,169.317
				c-0.197-0.016-0.377-0.106-0.506-0.258c-0.13-0.15-0.193-0.342-0.177-0.541c0.028-0.384,0.354-0.686,0.739-0.686
				c0.018,0,0.039,0,0.058,0.002c0.197,0.015,0.379,0.106,0.507,0.258c0.13,0.15,0.192,0.342,0.178,0.54
				C174.88,169.038,174.524,169.35,174.113,169.317z"/>
		</g>
		<g>
			<circle fill="#F7F7F7" cx="183.743" cy="180.533" r="1.19"/>
			<path fill="#7A3C7D" d="M183.868,178.9c-0.904-0.07-1.69,0.618-1.757,1.508c-0.07,0.9,0.606,1.688,1.507,1.758
				c0.043,0.003,0.085,0.004,0.128,0.004c0.849,0,1.565-0.664,1.63-1.513c0.033-0.435-0.104-0.859-0.389-1.19
				C184.701,179.135,184.304,178.934,183.868,178.9z M183.686,181.273c-0.408-0.031-0.715-0.388-0.684-0.796
				c0.03-0.385,0.354-0.687,0.738-0.687c0.02,0,0.04,0.001,0.059,0.002c0.197,0.015,0.376,0.107,0.506,0.257
				c0.129,0.151,0.191,0.342,0.175,0.542C184.45,180.993,184.099,181.306,183.686,181.273z"/>
		</g>
		<g>
			<path fill="#F7F7F7" d="M195.601,168.947c-0.657-0.05-1.229,0.44-1.279,1.096c-0.05,0.656,0.44,1.228,1.098,1.278
				c0.654,0.05,1.228-0.44,1.278-1.096C196.747,169.569,196.254,168.997,195.601,168.947z"/>
			<path fill="#7A3C7D" d="M195.635,168.501c-0.907-0.07-1.692,0.617-1.76,1.507c-0.033,0.437,0.105,0.86,0.39,1.193
				c0.285,0.332,0.683,0.533,1.12,0.567c0.043,0.003,0.085,0.005,0.126,0.005c0.851,0,1.567-0.665,1.632-1.514
				c0.034-0.437-0.104-0.859-0.391-1.191C196.468,168.736,196.071,168.534,195.635,168.501z M195.454,170.875
				c-0.199-0.015-0.379-0.106-0.51-0.257c-0.129-0.151-0.191-0.343-0.176-0.542c0.029-0.384,0.354-0.685,0.74-0.685
				c0.019,0,0.039,0.001,0.058,0.002c0.198,0.015,0.378,0.106,0.507,0.256c0.13,0.151,0.192,0.342,0.178,0.54
				C196.22,170.595,195.862,170.908,195.454,170.875z"/>
		</g>
		<g>
			<circle fill="#F7F7F7" cx="202.12" cy="178.64" r="1.191"/>
			<path fill="#7A3C7D" d="M202.245,177.006c-0.902-0.07-1.689,0.618-1.757,1.508c-0.034,0.437,0.105,0.859,0.39,1.191
				c0.283,0.333,0.681,0.534,1.116,0.567c0.043,0.003,0.085,0.006,0.127,0.006c0.85,0,1.569-0.665,1.633-1.513
				C203.823,177.864,203.146,177.075,202.245,177.006z M202.063,179.379c-0.196-0.015-0.377-0.106-0.506-0.256
				s-0.191-0.342-0.176-0.541c0.03-0.385,0.354-0.687,0.738-0.687c0.019,0,0.039,0.001,0.058,0.002
				c0.409,0.032,0.716,0.389,0.685,0.798C202.83,179.1,202.474,179.41,202.063,179.379z"/>
		</g>
		<g>
			<circle fill="#F7F7F7" cx="212.189" cy="166.866" r="1.19"/>
			<path fill="#7A3C7D" d="M212.314,165.232c-0.903-0.068-1.691,0.618-1.759,1.508c-0.032,0.437,0.104,0.86,0.39,1.191
				c0.286,0.332,0.683,0.534,1.119,0.567c0.043,0.003,0.084,0.005,0.127,0.005c0.849,0,1.565-0.664,1.631-1.512
				C213.89,166.09,213.214,165.301,212.314,165.232z M212.133,167.605c-0.198-0.015-0.379-0.105-0.509-0.256
				c-0.128-0.15-0.19-0.342-0.175-0.541c0.029-0.384,0.354-0.686,0.739-0.686c0.018,0,0.038,0,0.058,0.002
				c0.407,0.031,0.714,0.389,0.683,0.797C212.897,167.326,212.543,167.637,212.133,167.605z"/>
		</g>
		<g>
			<path fill="#F7F7F7" d="M220.697,173.18c-0.657-0.05-1.231,0.44-1.281,1.096c-0.049,0.656,0.442,1.228,1.1,1.277
				c0.655,0.05,1.226-0.44,1.277-1.096C221.843,173.802,221.352,173.23,220.697,173.18z"/>
			<path fill="#7A3C7D" d="M220.731,172.733c-0.905-0.069-1.692,0.618-1.761,1.508c-0.034,0.437,0.104,0.86,0.391,1.192
				c0.285,0.332,0.684,0.533,1.12,0.566c0.043,0.003,0.085,0.005,0.127,0.005c0.849,0,1.565-0.665,1.63-1.512
				C222.308,173.591,221.631,172.802,220.731,172.733z M220.549,175.107c-0.198-0.015-0.378-0.107-0.509-0.257
				c-0.13-0.151-0.192-0.342-0.178-0.54c0.029-0.385,0.356-0.687,0.742-0.687c0.019,0,0.039,0.001,0.059,0.003
				c0.407,0.031,0.713,0.389,0.682,0.797C221.314,174.826,220.961,175.137,220.549,175.107z"/>
		</g>
		<g>
			<circle fill="#F7F7F7" cx="228.903" cy="172.768" r="1.19"/>
			<path fill="#7A3C7D" d="M229.029,171.135c-0.899-0.071-1.689,0.618-1.759,1.507c-0.068,0.901,0.607,1.69,1.51,1.759
				c0.042,0.003,0.083,0.005,0.125,0.005c0.851,0,1.568-0.665,1.634-1.513C230.606,171.993,229.93,171.203,229.029,171.135z
				 M228.848,173.507c-0.408-0.031-0.716-0.389-0.684-0.796c0.028-0.386,0.354-0.687,0.739-0.687c0.019,0,0.038,0,0.057,0.002
				c0.409,0.032,0.717,0.389,0.685,0.797C229.614,173.228,229.256,173.539,228.848,173.507z"/>
		</g>
		<g>
			<g>
				<path fill="#959BC1" d="M243.305,144.457c-0.461-3.266-3.482-5.539-6.749-5.078L71.602,162.68
					c-3.266,0.46-5.54,3.482-5.079,6.748l15.125,107.071c0.461,3.266,3.483,5.539,6.749,5.078l164.955-23.302
					c3.266-0.461,5.539-3.483,5.078-6.747L243.305,144.457z"/>
				<g>
					<g>
						<path fill="#252B30" d="M248.904,139.457c-0.435-3.306-3.468-5.635-6.774-5.2L75.105,156.214
							c-3.307,0.435-5.635,3.468-5.202,6.774l14.252,108.414c0.435,3.308,3.467,5.636,6.775,5.202l167.025-21.957
							c3.307-0.436,5.635-3.469,5.201-6.774L248.904,139.457z"/>
						<g opacity="0.3">
							<path fill="#231F20" d="M248.313,139.535c-0.355-2.699-2.672-4.733-5.388-4.733c-0.238,0-0.479,0.017-0.718,0.047
								L75.182,156.806c-2.975,0.391-5.078,3.129-4.687,6.104l14.252,108.416c0.355,2.698,2.672,4.733,5.388,4.733
								c0.238,0,0.479-0.016,0.717-0.047l167.024-21.957c1.442-0.189,2.724-0.928,3.608-2.082c0.886-1.153,1.268-2.582,1.079-4.021
								L248.313,139.535z M260.301,251.063c-0.641,0.838-1.571,1.375-2.617,1.512L90.658,274.532
								c-0.173,0.022-0.349,0.034-0.522,0.034c-1.971,0-3.651-1.478-3.909-3.435L71.975,162.715
								c-0.283-2.159,1.242-4.146,3.401-4.431l167.025-21.957c0.174-0.022,0.35-0.035,0.523-0.035c1.97,0,3.65,1.477,3.908,3.435
								l14.252,108.415C261.222,249.189,260.943,250.228,260.301,251.063z"/>
						</g>
						<g>
							<path fill="#BFC9D8" d="M249.792,139.34c-0.453-3.438-3.405-6.031-6.867-6.031c-0.303,0-0.61,0.02-0.913,0.06L74.987,155.326
								c-3.792,0.499-6.47,3.987-5.973,7.779L83.268,271.52c0.452,3.438,3.405,6.032,6.868,6.032c0.302,0,0.609-0.021,0.911-0.061
								l167.024-21.957c1.837-0.242,3.471-1.184,4.598-2.653c1.128-1.469,1.616-3.289,1.374-5.125L249.792,139.34z M261.249,251.791
								c-0.837,1.09-2.048,1.787-3.41,1.968L90.813,275.716c-0.225,0.029-0.453,0.045-0.678,0.045c-2.568,0-4.757-1.924-5.093-4.476
								L70.791,162.871c-0.369-2.812,1.618-5.4,4.43-5.77l167.026-21.957c0.224-0.03,0.453-0.044,0.678-0.044
								c2.567,0,4.756,1.923,5.093,4.474l14.252,108.415C262.446,249.351,262.086,250.701,261.249,251.791z"/>
						</g>
					</g>
					<circle fill="#3F4751" cx="159.536" cy="152.232" r="1.465"/>
					
						<radialGradient id="SVGID_1_" cx="165.5625" cy="176.3354" r="99.5547" gradientTransform="matrix(1 0 0 -1 0 381)" gradientUnits="userSpaceOnUse">
						<stop  offset="0" style="stop-color:#554A85"/>
						<stop  offset="1" style="stop-color:#2F3A5C"/>
					</radialGradient>
					<polygon fill="url(#SVGID_1_)" points="85.118,167.836 97.369,261.032 246.007,241.492 233.757,148.297 					"/>
				</g>
				<g>
					<g>
						<path fill="#B1CC40" d="M219.709,197.878l0.77-0.281c2.309-0.848,4.42-2.254,6.105-4.065l0.558-0.602l-12.627-10.924
							L219.709,197.878z"/>
						<path fill="#424A77" d="M217.188,183.273l-4.313-3.731l1.774,5.419l4.052,12.384l0.51,1.559l1.539-0.565
							c2.426-0.891,4.643-2.365,6.413-4.269l1.118-1.2l-1.241-1.074L217.188,183.273z M220.206,196.854l-4.053-12.384l9.852,8.522
							C224.428,194.687,222.454,196.027,220.206,196.854z"/>
					</g>
					<g>
						<path fill="#FFD121" d="M230.685,180.554l-16.239,2.037l12.377,10.708l0.515-0.641c2.569-3.2,3.783-7.209,3.42-11.288
							L230.685,180.554z"/>
						<path fill="#424A77" d="M231.399,179.667l-1.627,0.205l-13.662,1.714l-3.524,0.442l2.687,2.324l10.411,9.009l1.242,1.074
							l1.028-1.279c2.698-3.361,3.974-7.572,3.592-11.854L231.399,179.667z M226.721,192.164l-10.413-9.009l13.662-1.715
							C230.326,185.441,229.068,189.239,226.721,192.164z"/>
					</g>
					<g>
						<path fill="#FF6464" d="M215.039,166.964c-0.469,0-0.944,0.021-1.412,0.063l-0.817,0.073l1.998,15.938l15.938-2l-0.132-0.809
							C229.371,172.543,222.82,166.964,215.039,166.964z"/>
						<path fill="#424A77" d="M225.744,170.106c-2.996-2.537-6.797-3.934-10.705-3.934c-0.492,0-0.991,0.022-1.482,0.066
							l-1.633,0.146l0.204,1.627l1.797,14.339l0.197,1.57l1.57-0.197l14.339-1.799l1.627-0.204l-0.262-1.618
							C230.765,176.208,228.759,172.657,225.744,170.106z M215.495,182.154l-1.799-14.339c0.452-0.04,0.898-0.06,1.343-0.06
							c7.278,0,13.61,5.289,14.794,12.601L215.495,182.154z"/>
					</g>
					<g>
						<path fill="#A2B2D6" d="M205.629,195.496l0.683,0.453c2.591,1.713,5.594,2.617,8.688,2.617l0,0
							c0.66,0,1.327-0.041,1.984-0.124c0.813-0.102,1.619-0.267,2.397-0.489l0.789-0.226l-5.07-15.497L205.629,195.496z"/>
						<path fill="#424A77" d="M216.34,183.471l-0.973-2.974l-1.819,2.546l-8.087,11.326l-0.953,1.335l1.369,0.904
							c2.718,1.799,5.874,2.75,9.123,2.75c0.691,0,1.394-0.045,2.084-0.132c0.851-0.106,1.696-0.278,2.516-0.514l1.579-0.452
							l-0.512-1.563L216.34,183.471z M216.887,197.657c-0.633,0.079-1.264,0.118-1.887,0.118c-3.012,0-5.861-0.905-8.251-2.487
							l8.087-11.325l4.33,13.229C218.43,197.402,217.669,197.56,216.887,197.657z"/>
					</g>
					<g>
						<path fill="#C455B9" d="M212.484,167.17c-8.432,1.366-14.205,9.08-13.142,17.561c0.374,2.992,1.586,5.796,3.52,8.126
							l0.747,0.839c0.542,0.565,1.136,1.098,1.765,1.584l0.645,0.497l9.28-12.746l-2.005-15.993L212.484,167.17z"/>
						<path fill="#424A77" d="M216.012,182.351l-0.736-5.872l-1.095-8.725l-0.202-1.627l-1.621,0.262
							c-4.25,0.689-8.019,2.969-10.608,6.419c-2.597,3.458-3.73,7.729-3.192,12.022c0.395,3.141,1.666,6.084,3.678,8.512
							l0.018,0.022l0.018,0.02l0.728,0.816l0.019,0.021l0.02,0.021c0.569,0.595,1.192,1.153,1.854,1.663l1.289,0.993l0.957-1.315
							l8.617-11.833l0.368-0.506l-0.077-0.623L216.012,182.351z M205.858,194.654c-0.596-0.459-1.156-0.963-1.677-1.505
							l-0.728-0.817c-1.761-2.124-2.957-4.758-3.326-7.698c-1.008-8.043,4.547-15.396,12.484-16.682l1.094,8.724l0.736,5.872
							l0.034,0.273L205.858,194.654z"/>
					</g>
				</g>
				<g>
					<g>
						
							<rect x="205.363" y="209.208" transform="matrix(0.131 0.9914 -0.9914 0.131 388.916 -22.0002)" fill="#FF6464" width="3.29" height="3.292"/>
						
							<rect x="221.421" y="198.275" transform="matrix(0.1311 0.9914 -0.9914 0.1311 400.0179 -38.6371)" fill="#FFFFFF" width="1.259" height="21.211"/>
						
							<rect x="206.051" y="214.507" transform="matrix(0.1312 0.9914 -0.9914 0.1312 394.7319 -18.1066)" fill="#B1CC40" width="3.29" height="3.29"/>
						
							<rect x="215.309" y="211.332" transform="matrix(0.1309 0.9914 -0.9914 0.1309 400.8823 -27.1722)" fill="#FFFFFF" width="1.261" height="7.455"/>
						
							<rect x="206.75" y="219.794" transform="matrix(0.1314 0.9913 -0.9913 0.1314 400.5211 -14.2558)" fill="#FFD121" width="3.291" height="3.29"/>
						
							<rect x="220.731" y="211.209" transform="matrix(0.1311 0.9914 -0.9914 0.1311 410.1512 -28.5462)" fill="#FFFFFF" width="1.259" height="16.996"/>
						
							<rect x="207.414" y="225.253" transform="matrix(0.1312 0.9914 -0.9914 0.1312 406.5595 -10.1285)" fill="#C455B9" width="3.289" height="3.29"/>
						
							<rect x="221.384" y="216.66" transform="matrix(0.131 0.9914 -0.9914 0.131 416.1492 -24.4376)" fill="#FFFFFF" width="1.26" height="16.996"/>
					</g>
				</g>
			</g>
		</g>
		<g>
			<g>
				<path fill="#B1CC40" d="M143.723,191.867c-13.065,1.702-24.265,10.372-29.226,22.623l4.216,1.706
					c4.347-10.733,14.155-18.329,25.598-19.819c11.442-1.492,22.87,3.336,29.822,12.599l3.638-2.73
					C169.835,195.674,156.79,190.164,143.723,191.867z"/>
			</g>
			<g>
				<path fill="#FF6464" d="M145.269,203.728c-5.063,0.66-9.694,2.857-13.393,6.357l4.167,4.405
					c2.763-2.614,6.224-4.256,10.01-4.748c3.571-0.466,7.149,0.138,10.352,1.742l2.717-5.422
					C154.833,203.913,150.043,203.105,145.269,203.728z"/>
			</g>
			<g>
				<path fill="#D856D2" d="M165.957,200.73c-6.414-4.21-14.129-5.984-21.729-4.995c-7.586,0.99-14.583,4.673-19.701,10.37
					c-5.062,5.636-7.981,12.879-8.224,20.397l6.062,0.196c0.196-6.093,2.567-11.967,6.674-16.54c4.15-4.622,9.823-7.607,15.972-8.41
					c6.161-0.803,12.417,0.636,17.619,4.051c5.147,3.38,8.942,8.466,10.682,14.317l5.813-1.728
					C176.977,211.166,172.301,204.895,165.957,200.73z"/>
			</g>
			<g>
				<path fill="#FFC022" d="M164.92,206.047c-5.753-4.427-12.874-6.349-20.054-5.413c-14.843,1.935-25.345,15.583-23.412,30.427
					c0.124,0.943,0.297,1.89,0.517,2.812l4.129-0.984c-0.186-0.778-0.333-1.578-0.436-2.375
					c-1.631-12.522,7.228-24.036,19.75-25.669c6.055-0.789,12.063,0.833,16.916,4.567c4.854,3.735,7.963,9.126,8.751,15.182
					c0.101,0.775,0.163,1.561,0.185,2.336l4.243-0.118c-0.025-0.918-0.099-1.849-0.219-2.766
					C174.356,216.865,170.673,210.474,164.92,206.047z"/>
			</g>
			<g>
				<path fill="#FFFFFF" d="M165.458,184.313c-0.153,0.02-0.287,0.117-0.353,0.257l-11.011,23.453l0.823,0.387l10.905-23.226
					l26.916-3.508l-0.117-0.901L165.458,184.313z"/>
			</g>
			<g>
				<path fill="#FFFFFF" d="M121.961,189.981l-25.861,3.37l0.118,0.901l25.615-3.337l6.962,8.298l0.697-0.585l-7.122-8.489
					C122.268,190.021,122.115,189.962,121.961,189.981z"/>
			</g>
			<g>
				
					<rect x="184.863" y="200.317" transform="matrix(0.1291 0.9916 -0.9916 0.1291 371.1674 0.4682)" fill="#FFFFFF" width="0.908" height="22.44"/>
			</g>
			<g>
				
					<rect x="111.568" y="208.894" transform="matrix(0.1293 0.9916 -0.9916 0.1293 316.7795 81.4258)" fill="#FFFFFF" width="0.91" height="24.411"/>
			</g>
			<circle fill="#FFFFFF" cx="129.269" cy="199.146" r="0.985"/>
			<circle fill="#FFFFFF" cx="124.288" cy="219.595" r="0.986"/>
			<circle fill="#FFFFFF" cx="154.542" cy="208.288" r="0.986"/>
			<circle fill="#FFFFFF" cx="174.115" cy="213" r="0.986"/>
			<g>
				<path fill="#FFFFFF" d="M142.228,219.483l-1.356,0.177c-0.369,0.049-0.537,0.193-0.506,0.436c0.031,0.239,0.231,0.334,0.6,0.286
					l0.289-0.037l0.285,2.188c0.048,0.368,0.202,0.537,0.462,0.504c0.26-0.035,0.365-0.237,0.317-0.605l-0.285-2.188l0.288-0.037
					c0.37-0.049,0.539-0.193,0.507-0.432C142.797,219.532,142.597,219.435,142.228,219.483z"/>
				<path fill="#FFFFFF" d="M146.187,219.956c-0.11-0.212-0.25-0.387-0.421-0.525c-0.17-0.139-0.363-0.238-0.579-0.299
					c-0.217-0.059-0.45-0.072-0.701-0.041c-0.25,0.033-0.472,0.105-0.666,0.22c-0.194,0.113-0.354,0.258-0.481,0.437
					c-0.127,0.178-0.217,0.383-0.27,0.615c-0.053,0.231-0.062,0.484-0.026,0.757c0.036,0.271,0.107,0.511,0.216,0.723
					c0.11,0.212,0.248,0.389,0.415,0.528c0.167,0.14,0.359,0.24,0.577,0.299c0.219,0.06,0.454,0.073,0.707,0.04
					c0.253-0.033,0.478-0.106,0.673-0.219c0.195-0.114,0.356-0.26,0.484-0.438c0.126-0.179,0.215-0.384,0.266-0.618
					c0.051-0.232,0.059-0.485,0.024-0.754C146.37,220.408,146.296,220.167,146.187,219.956z M145.552,221.25
					c-0.023,0.135-0.065,0.252-0.127,0.354c-0.062,0.102-0.142,0.182-0.237,0.244c-0.096,0.062-0.206,0.101-0.328,0.115
					c-0.121,0.017-0.237,0.008-0.346-0.027c-0.109-0.034-0.206-0.094-0.292-0.175c-0.086-0.082-0.158-0.186-0.214-0.309
					c-0.057-0.126-0.096-0.269-0.118-0.432c-0.022-0.171-0.021-0.325,0-0.463c0.023-0.139,0.066-0.259,0.127-0.361
					c0.062-0.104,0.14-0.186,0.235-0.247c0.094-0.061,0.205-0.102,0.329-0.116c0.125-0.016,0.242-0.007,0.349,0.027
					c0.107,0.036,0.205,0.094,0.29,0.178s0.158,0.19,0.215,0.316c0.058,0.128,0.097,0.278,0.119,0.447
					C145.576,220.965,145.576,221.114,145.552,221.25z"/>
				<path fill="#FFFFFF" d="M148.131,218.715l-1.356,0.177c-0.369,0.048-0.538,0.192-0.506,0.435c0.031,0.239,0.231,0.334,0.6,0.286
					l0.289-0.038l0.285,2.188c0.048,0.369,0.203,0.538,0.462,0.503c0.26-0.033,0.366-0.233,0.317-0.604l-0.285-2.188l0.289-0.039
					c0.369-0.047,0.538-0.191,0.506-0.429C148.701,218.764,148.5,218.665,148.131,218.715z"/>
				<path fill="#FFFFFF" d="M150.45,218.822c-0.148-0.286-0.359-0.413-0.632-0.377c-0.145,0.02-0.258,0.075-0.342,0.171
					c-0.084,0.092-0.147,0.229-0.188,0.413l-0.575,2.53c-0.012,0.037-0.017,0.076-0.017,0.114c0,0.039,0.002,0.079,0.008,0.117
					c0.014,0.108,0.06,0.192,0.138,0.253c0.078,0.061,0.171,0.082,0.281,0.069c0.173-0.022,0.283-0.154,0.33-0.396l0.071-0.362
					l1.265-0.165l0.137,0.305c0.11,0.241,0.263,0.349,0.458,0.323c0.109-0.015,0.197-0.059,0.262-0.133
					c0.065-0.073,0.091-0.166,0.076-0.278c-0.009-0.064-0.038-0.144-0.085-0.238L150.45,218.822z M149.649,220.606l0.258-1.327
					l0.56,1.221L149.649,220.606z"/>
				<path fill="#FFFFFF" d="M153.399,220.772l-0.66,0.086l-0.285-2.188c-0.048-0.368-0.202-0.537-0.462-0.503
					c-0.259,0.033-0.366,0.235-0.317,0.604l0.315,2.421c0.012,0.092,0.03,0.169,0.054,0.229c0.025,0.061,0.06,0.107,0.104,0.141
					c0.045,0.034,0.103,0.054,0.174,0.062c0.071,0.006,0.158,0.003,0.26-0.011l0.909-0.118c0.368-0.049,0.538-0.191,0.507-0.433
					C153.968,220.82,153.768,220.725,153.399,220.772z"/>
			</g>
			<g>
				<path fill="#FFFFFF" d="M97.686,189.197l-0.718,0.093c0.162-0.21,0.307-0.403,0.434-0.58s0.232-0.341,0.314-0.496
					c0.083-0.154,0.142-0.301,0.177-0.441c0.035-0.141,0.044-0.279,0.026-0.417c-0.02-0.144-0.062-0.275-0.13-0.392
					c-0.068-0.117-0.155-0.216-0.264-0.294s-0.233-0.134-0.374-0.169c-0.142-0.033-0.295-0.039-0.462-0.017
					c-0.183,0.024-0.348,0.083-0.496,0.178c-0.147,0.096-0.268,0.222-0.366,0.381c-0.064,0.105-0.11,0.219-0.137,0.341
					c-0.026,0.123-0.034,0.228-0.022,0.317c0.016,0.123,0.064,0.215,0.146,0.277c0.082,0.063,0.179,0.087,0.291,0.073
					c0.103-0.013,0.176-0.055,0.219-0.126c0.043-0.07,0.08-0.176,0.11-0.317c0.03-0.124,0.073-0.22,0.129-0.286
					c0.057-0.065,0.122-0.104,0.195-0.113c0.084-0.011,0.157,0.01,0.221,0.062s0.102,0.128,0.116,0.227
					c0.017,0.136-0.036,0.313-0.162,0.534c-0.125,0.221-0.305,0.502-0.541,0.842c-0.165,0.237-0.294,0.427-0.389,0.568
					c-0.094,0.142-0.134,0.26-0.122,0.356c0.032,0.242,0.203,0.341,0.514,0.302l1.38-0.181c0.369-0.048,0.538-0.192,0.506-0.433
					C98.254,189.245,98.054,189.149,97.686,189.197z"/>
				<path fill="#FFFFFF" d="M100.201,188.868l-0.717,0.094c0.162-0.21,0.306-0.403,0.434-0.579c0.128-0.176,0.233-0.341,0.314-0.496
					c0.083-0.155,0.142-0.301,0.177-0.442c0.036-0.14,0.044-0.279,0.027-0.417c-0.019-0.144-0.062-0.275-0.129-0.392
					c-0.068-0.117-0.156-0.215-0.265-0.293c-0.108-0.078-0.232-0.134-0.374-0.169c-0.142-0.033-0.296-0.041-0.462-0.018
					c-0.183,0.024-0.348,0.084-0.495,0.179c-0.147,0.095-0.269,0.221-0.366,0.38c-0.064,0.106-0.11,0.22-0.137,0.342
					c-0.027,0.122-0.034,0.229-0.022,0.318c0.015,0.122,0.064,0.214,0.146,0.277c0.082,0.063,0.179,0.086,0.291,0.072
					c0.103-0.013,0.176-0.056,0.219-0.126c0.043-0.072,0.08-0.177,0.11-0.318c0.029-0.125,0.073-0.22,0.129-0.286
					c0.057-0.066,0.122-0.103,0.196-0.113c0.083-0.011,0.157,0.01,0.221,0.062c0.063,0.053,0.102,0.128,0.116,0.228
					c0.018,0.134-0.036,0.312-0.161,0.532c-0.124,0.222-0.305,0.503-0.542,0.842c-0.165,0.238-0.294,0.426-0.388,0.569
					c-0.094,0.142-0.134,0.26-0.122,0.356c0.031,0.241,0.202,0.341,0.514,0.3l1.38-0.179c0.369-0.048,0.538-0.192,0.506-0.434
					C100.771,188.917,100.57,188.821,100.201,188.868z"/>
				<path fill="#FFFFFF" d="M101.718,188.679c-0.095-0.073-0.203-0.103-0.325-0.086c-0.122,0.015-0.22,0.072-0.293,0.167
					c-0.073,0.096-0.103,0.205-0.087,0.326c0.015,0.123,0.072,0.22,0.168,0.295c0.096,0.073,0.205,0.103,0.327,0.086
					c0.062-0.008,0.117-0.027,0.167-0.056c0.05-0.029,0.092-0.066,0.125-0.112c0.032-0.045,0.057-0.096,0.073-0.151
					c0.015-0.056,0.02-0.114,0.012-0.175C101.868,188.852,101.813,188.753,101.718,188.679z"/>
				<path fill="#FFFFFF" d="M104.09,187.414c-0.072-0.132-0.159-0.242-0.264-0.332c-0.105-0.088-0.224-0.153-0.358-0.193
					c-0.133-0.04-0.273-0.05-0.417-0.031c-0.103,0.013-0.211,0.042-0.326,0.086v-0.417l0.804-0.104
					c0.157-0.02,0.271-0.066,0.341-0.14c0.07-0.073,0.098-0.167,0.083-0.279c-0.031-0.243-0.214-0.341-0.548-0.297l-0.947,0.123
					c-0.081,0.011-0.149,0.024-0.208,0.043c-0.059,0.016-0.106,0.043-0.144,0.077c-0.039,0.035-0.066,0.08-0.083,0.137
					c-0.017,0.058-0.024,0.133-0.022,0.223l0.005,0.905c0.001,0.064,0.003,0.12,0.004,0.166c0.001,0.045,0.003,0.08,0.006,0.102
					c0.03,0.224,0.145,0.323,0.347,0.297c0.045-0.006,0.09-0.018,0.135-0.037c0.044-0.019,0.09-0.039,0.136-0.06
					c0.046-0.02,0.093-0.042,0.142-0.061c0.047-0.018,0.096-0.031,0.144-0.038c0.132-0.017,0.242,0.011,0.332,0.084
					c0.089,0.073,0.145,0.187,0.164,0.34c0.01,0.073,0.006,0.143-0.012,0.209c-0.018,0.066-0.045,0.126-0.084,0.178
					c-0.039,0.052-0.086,0.097-0.14,0.131c-0.054,0.035-0.115,0.057-0.182,0.066c-0.086,0.012-0.166,0.006-0.237-0.016
					c-0.071-0.021-0.139-0.046-0.203-0.075s-0.125-0.055-0.184-0.079c-0.058-0.023-0.117-0.031-0.175-0.023
					c-0.093,0.012-0.166,0.054-0.218,0.126c-0.053,0.073-0.072,0.16-0.059,0.261c0.011,0.087,0.05,0.168,0.117,0.243
					c0.067,0.074,0.154,0.137,0.262,0.188c0.108,0.052,0.229,0.087,0.367,0.109c0.136,0.021,0.281,0.021,0.436,0.002
					c0.192-0.025,0.364-0.081,0.514-0.167c0.15-0.086,0.275-0.195,0.373-0.328c0.099-0.133,0.169-0.281,0.211-0.449
					c0.042-0.167,0.051-0.341,0.027-0.524C104.207,187.693,104.162,187.544,104.09,187.414z"/>
				<path fill="#FFFFFF" d="M106.137,186.917c0.122-0.114,0.207-0.231,0.255-0.352c0.048-0.12,0.063-0.254,0.044-0.402
					c-0.016-0.128-0.059-0.246-0.125-0.353c-0.065-0.107-0.149-0.196-0.25-0.268c-0.102-0.072-0.217-0.124-0.351-0.158
					c-0.134-0.034-0.274-0.041-0.421-0.021c-0.151,0.021-0.291,0.063-0.419,0.131c-0.128,0.068-0.237,0.147-0.328,0.24
					s-0.159,0.191-0.204,0.295c-0.045,0.104-0.062,0.205-0.049,0.302c0.012,0.092,0.055,0.166,0.129,0.221
					c0.073,0.054,0.152,0.075,0.235,0.064c0.093-0.013,0.164-0.045,0.213-0.098c0.048-0.055,0.104-0.12,0.17-0.196
					c0.048-0.059,0.096-0.11,0.145-0.153c0.048-0.044,0.111-0.071,0.188-0.081c0.087-0.011,0.159,0.006,0.217,0.052
					c0.058,0.046,0.093,0.114,0.105,0.204c0.022,0.177-0.083,0.31-0.315,0.399c-0.112,0.04-0.191,0.088-0.235,0.145
					c-0.045,0.057-0.061,0.135-0.047,0.239c0.015,0.112,0.051,0.19,0.108,0.233c0.058,0.043,0.146,0.066,0.264,0.071
					c0.167,0.005,0.295,0.028,0.386,0.07c0.089,0.043,0.145,0.133,0.161,0.27c0.017,0.125-0.01,0.235-0.079,0.329
					c-0.069,0.094-0.162,0.148-0.277,0.163c-0.064,0.008-0.122,0.006-0.173-0.009c-0.051-0.015-0.098-0.036-0.141-0.065
					c-0.042-0.028-0.083-0.064-0.124-0.105c-0.04-0.042-0.081-0.085-0.122-0.129c-0.064-0.063-0.123-0.109-0.177-0.14
					c-0.055-0.03-0.121-0.041-0.198-0.03c-0.102,0.013-0.18,0.058-0.234,0.133c-0.054,0.075-0.073,0.169-0.06,0.281
					c0.014,0.105,0.064,0.215,0.15,0.327c0.086,0.112,0.206,0.212,0.357,0.299c0.253,0.144,0.522,0.199,0.804,0.162
					c0.18-0.023,0.34-0.074,0.482-0.152c0.142-0.077,0.261-0.172,0.357-0.286c0.096-0.113,0.165-0.242,0.206-0.384
					c0.042-0.142,0.052-0.291,0.033-0.445C106.767,187.33,106.541,187.063,106.137,186.917z"/>
			</g>
			<g>
				<path fill="#FFFFFF" d="M184.584,177.454c-0.016,0.002-0.034,0.005-0.052,0.01c-0.02,0.004-0.041,0.009-0.062,0.015
					l-0.165-1.256c-0.034-0.267-0.117-0.457-0.248-0.572c-0.131-0.116-0.285-0.161-0.465-0.137
					c-0.129,0.016-0.232,0.059-0.312,0.127c-0.079,0.067-0.152,0.173-0.217,0.319l-0.81,1.745c-0.035,0.079-0.067,0.156-0.098,0.228
					c-0.03,0.073-0.039,0.154-0.027,0.244c0.013,0.105,0.063,0.177,0.148,0.215c0.084,0.039,0.206,0.046,0.364,0.026l1.208-0.157
					l0.043,0.337c0.039,0.294,0.168,0.428,0.39,0.399c0.118-0.015,0.207-0.063,0.266-0.145c0.057-0.081,0.077-0.189,0.06-0.324
					l-0.046-0.36l0.073-0.01c0.311-0.041,0.451-0.181,0.42-0.422c-0.014-0.096-0.061-0.171-0.142-0.226
					C184.828,177.454,184.718,177.436,184.584,177.454z M182.954,177.675l0.633-1.413l0.17,1.308L182.954,177.675z"/>
				<path fill="#FFFFFF" d="M185.695,177.91c-0.122,0.016-0.22,0.072-0.293,0.168c-0.074,0.096-0.103,0.205-0.087,0.327
					c0.015,0.122,0.072,0.22,0.167,0.294c0.097,0.073,0.205,0.103,0.327,0.087c0.061-0.008,0.117-0.026,0.166-0.056
					c0.05-0.029,0.092-0.067,0.125-0.112c0.033-0.045,0.058-0.096,0.074-0.15c0.015-0.057,0.02-0.115,0.012-0.176
					c-0.016-0.121-0.071-0.221-0.166-0.294C185.925,177.924,185.817,177.895,185.695,177.91z"/>
				<path fill="#FFFFFF" d="M188.212,176.536c0.185-0.211,0.259-0.452,0.224-0.724c-0.018-0.134-0.062-0.257-0.131-0.367
					c-0.07-0.109-0.16-0.203-0.27-0.275c-0.108-0.074-0.234-0.127-0.375-0.16c-0.141-0.032-0.291-0.038-0.448-0.017
					c-0.157,0.02-0.299,0.064-0.427,0.132c-0.127,0.068-0.236,0.151-0.323,0.25c-0.086,0.1-0.148,0.211-0.188,0.335
					c-0.04,0.125-0.05,0.254-0.033,0.389c0.036,0.273,0.169,0.486,0.402,0.642c-0.142,0.117-0.24,0.252-0.297,0.409
					c-0.056,0.156-0.073,0.325-0.049,0.508c0.021,0.154,0.069,0.296,0.147,0.424c0.076,0.128,0.177,0.236,0.298,0.323
					c0.123,0.087,0.264,0.149,0.424,0.187c0.16,0.038,0.333,0.045,0.519,0.021c0.186-0.024,0.352-0.075,0.496-0.153
					c0.145-0.077,0.265-0.173,0.361-0.289c0.096-0.115,0.164-0.245,0.206-0.389c0.042-0.144,0.052-0.292,0.032-0.447
					C188.732,176.961,188.543,176.695,188.212,176.536z M186.997,176.072c-0.013-0.102,0.01-0.193,0.069-0.273
					c0.06-0.079,0.139-0.125,0.234-0.139c0.1-0.013,0.188,0.013,0.267,0.073c0.078,0.062,0.124,0.144,0.137,0.246
					c0.013,0.101-0.011,0.19-0.071,0.269c-0.06,0.08-0.139,0.126-0.239,0.139c-0.048,0.007-0.094,0.002-0.138-0.012
					c-0.043-0.014-0.084-0.035-0.121-0.065c-0.037-0.029-0.068-0.064-0.092-0.105C187.019,176.165,187.002,176.12,186.997,176.072z
					 M187.981,177.561c-0.016,0.064-0.043,0.119-0.081,0.167c-0.037,0.049-0.083,0.091-0.135,0.124
					c-0.053,0.033-0.11,0.053-0.171,0.061c-0.064,0.009-0.125,0.004-0.183-0.015c-0.058-0.019-0.111-0.046-0.161-0.084
					c-0.048-0.038-0.089-0.085-0.121-0.143c-0.033-0.058-0.052-0.121-0.062-0.188c-0.009-0.07-0.006-0.136,0.011-0.199
					c0.016-0.062,0.044-0.119,0.081-0.17c0.038-0.049,0.082-0.091,0.132-0.124c0.051-0.033,0.109-0.053,0.173-0.062
					c0.129-0.017,0.244,0.016,0.346,0.1c0.101,0.083,0.161,0.195,0.18,0.336C188,177.432,187.998,177.499,187.981,177.561z"/>
				<path fill="#FFFFFF" d="M191.116,175.223c-0.079-0.143-0.178-0.261-0.299-0.355c-0.119-0.094-0.257-0.162-0.413-0.204
					c-0.156-0.042-0.319-0.051-0.494-0.028c-0.182,0.024-0.348,0.077-0.497,0.161c-0.149,0.083-0.274,0.188-0.373,0.312
					c-0.099,0.125-0.171,0.268-0.216,0.425c-0.045,0.158-0.056,0.322-0.034,0.492c0.019,0.15,0.063,0.288,0.132,0.413
					c0.069,0.125,0.155,0.229,0.257,0.316c0.103,0.085,0.219,0.149,0.348,0.19c0.129,0.04,0.264,0.051,0.405,0.032
					c0.025-0.003,0.059-0.01,0.1-0.019c0.042-0.011,0.091-0.022,0.147-0.037c-0.073,0.143-0.146,0.268-0.218,0.373
					s-0.137,0.201-0.195,0.285c-0.057,0.084-0.102,0.159-0.134,0.225c-0.032,0.067-0.044,0.131-0.035,0.191
					c0.005,0.048,0.021,0.093,0.048,0.135c0.027,0.043,0.059,0.078,0.097,0.107c0.038,0.029,0.082,0.051,0.131,0.064
					c0.049,0.014,0.098,0.016,0.146,0.011c0.1-0.014,0.202-0.084,0.306-0.211c0.104-0.128,0.229-0.309,0.375-0.543
					c0.225-0.369,0.385-0.708,0.479-1.016s0.125-0.585,0.092-0.83C191.246,175.529,191.195,175.366,191.116,175.223z M190.39,176.13
					c-0.075,0.101-0.173,0.16-0.295,0.175c-0.061,0.008-0.119,0.003-0.175-0.014c-0.056-0.017-0.107-0.044-0.152-0.081
					c-0.046-0.037-0.084-0.082-0.116-0.137c-0.032-0.054-0.051-0.115-0.062-0.183c-0.017-0.134,0.012-0.252,0.086-0.354
					c0.076-0.102,0.174-0.159,0.296-0.175c0.122-0.016,0.231,0.015,0.331,0.093c0.098,0.079,0.155,0.187,0.173,0.32
					C190.494,175.911,190.465,176.028,190.39,176.13z"/>
			</g>
			<g>
				<path fill="#FFFFFF" d="M187.862,207.719l-0.717,0.094c0.162-0.211,0.307-0.402,0.433-0.58c0.127-0.177,0.232-0.342,0.314-0.496
					c0.083-0.154,0.142-0.302,0.177-0.441c0.036-0.139,0.044-0.278,0.027-0.418c-0.019-0.143-0.062-0.273-0.13-0.391
					c-0.067-0.117-0.156-0.215-0.263-0.293c-0.109-0.08-0.233-0.136-0.375-0.169c-0.141-0.035-0.296-0.04-0.462-0.018
					c-0.183,0.023-0.348,0.082-0.496,0.178c-0.147,0.097-0.27,0.222-0.366,0.381c-0.065,0.105-0.11,0.221-0.137,0.341
					c-0.026,0.123-0.033,0.229-0.022,0.317c0.016,0.123,0.066,0.216,0.146,0.279c0.082,0.062,0.178,0.087,0.291,0.072
					c0.103-0.015,0.175-0.056,0.219-0.128c0.043-0.07,0.08-0.176,0.11-0.316c0.029-0.125,0.073-0.22,0.129-0.285
					c0.057-0.066,0.123-0.104,0.196-0.114c0.082-0.011,0.157,0.01,0.22,0.062c0.064,0.053,0.103,0.128,0.116,0.229
					c0.018,0.135-0.037,0.312-0.162,0.533c-0.125,0.22-0.305,0.501-0.541,0.842c-0.164,0.238-0.294,0.426-0.388,0.567
					c-0.094,0.142-0.135,0.262-0.123,0.357c0.032,0.241,0.202,0.342,0.514,0.3l1.381-0.18c0.368-0.047,0.538-0.191,0.505-0.433
					C188.431,207.767,188.231,207.671,187.862,207.719z"/>
				<path fill="#FFFFFF" d="M189.839,204.716l-1.28,0.168c-0.158,0.02-0.27,0.067-0.337,0.142c-0.069,0.073-0.096,0.172-0.08,0.292
					c0.018,0.142,0.076,0.229,0.171,0.263c0.096,0.033,0.229,0.04,0.397,0.016l0.886-0.114l-0.74,2.211
					c-0.023,0.069-0.041,0.132-0.053,0.19c-0.012,0.059-0.015,0.113-0.008,0.163c0.014,0.109,0.064,0.195,0.151,0.256
					c0.086,0.063,0.188,0.087,0.303,0.072c0.158-0.021,0.278-0.161,0.362-0.42l0.813-2.586c0.018-0.063,0.029-0.118,0.036-0.171
					c0.007-0.054,0.008-0.097,0.003-0.128C190.424,204.784,190.217,204.668,189.839,204.716z"/>
				<path fill="#FFFFFF" d="M191.639,207.234c-0.095-0.074-0.202-0.104-0.324-0.088c-0.122,0.017-0.22,0.072-0.293,0.168
					s-0.103,0.205-0.087,0.326c0.015,0.122,0.072,0.22,0.167,0.294c0.097,0.074,0.206,0.103,0.328,0.087
					c0.061-0.007,0.116-0.026,0.166-0.055c0.05-0.03,0.092-0.066,0.125-0.112c0.033-0.045,0.058-0.096,0.073-0.151
					s0.02-0.114,0.012-0.176C191.789,207.406,191.733,207.309,191.639,207.234z"/>
				<path fill="#FFFFFF" d="M192.927,204.877c-0.025-0.193-0.076-0.329-0.154-0.409c-0.076-0.078-0.196-0.108-0.362-0.087
					l-0.389,0.05c-0.368,0.049-0.538,0.193-0.506,0.433c0.032,0.242,0.221,0.338,0.571,0.294l0.073-0.01l0.283,2.18
					c0.048,0.367,0.203,0.535,0.466,0.501s0.37-0.236,0.322-0.604L192.927,204.877z"/>
				<path fill="#FFFFFF" d="M196.039,205.93c-0.015,0.001-0.034,0.004-0.052,0.009c-0.019,0.004-0.04,0.01-0.062,0.015l-0.163-1.255
					c-0.036-0.266-0.117-0.457-0.248-0.571c-0.132-0.116-0.287-0.163-0.466-0.138c-0.128,0.017-0.232,0.058-0.311,0.125
					c-0.08,0.068-0.152,0.174-0.218,0.319l-0.809,1.746c-0.036,0.079-0.069,0.155-0.099,0.228c-0.029,0.073-0.039,0.153-0.026,0.244
					c0.014,0.104,0.063,0.178,0.148,0.216c0.084,0.038,0.206,0.046,0.363,0.025l1.208-0.157l0.044,0.338
					c0.038,0.295,0.168,0.428,0.389,0.398c0.119-0.016,0.207-0.065,0.265-0.145c0.058-0.081,0.077-0.19,0.061-0.323l-0.047-0.362
					l0.073-0.01c0.312-0.04,0.451-0.181,0.42-0.422c-0.013-0.096-0.06-0.17-0.142-0.226
					C196.285,205.93,196.174,205.912,196.039,205.93z M194.409,206.151l0.633-1.414l0.17,1.31L194.409,206.151z"/>
			</g>
			<g>
				<path fill="#FFFFFF" d="M101.525,218.664l-0.717,0.094c0.162-0.211,0.306-0.403,0.433-0.579
					c0.127-0.177,0.233-0.343,0.314-0.497c0.083-0.153,0.142-0.302,0.178-0.442c0.035-0.138,0.044-0.277,0.026-0.415
					c-0.019-0.145-0.062-0.275-0.13-0.393c-0.067-0.117-0.155-0.215-0.263-0.293c-0.108-0.08-0.233-0.135-0.375-0.169
					c-0.141-0.035-0.294-0.04-0.461-0.018c-0.183,0.022-0.349,0.083-0.496,0.179c-0.147,0.096-0.27,0.221-0.366,0.38
					c-0.065,0.105-0.111,0.221-0.137,0.342c-0.027,0.121-0.034,0.229-0.022,0.318c0.016,0.121,0.064,0.215,0.146,0.277
					c0.082,0.063,0.178,0.086,0.292,0.073c0.103-0.014,0.175-0.056,0.218-0.127c0.043-0.072,0.08-0.178,0.11-0.318
					c0.029-0.125,0.073-0.221,0.129-0.285c0.057-0.066,0.121-0.104,0.195-0.114c0.084-0.012,0.157,0.01,0.221,0.063
					c0.064,0.052,0.103,0.128,0.115,0.227c0.018,0.135-0.036,0.313-0.161,0.533c-0.125,0.221-0.305,0.502-0.541,0.842
					c-0.165,0.238-0.294,0.426-0.388,0.568c-0.094,0.141-0.134,0.261-0.122,0.356c0.031,0.241,0.203,0.342,0.514,0.301l1.38-0.18
					c0.368-0.048,0.538-0.192,0.506-0.434C102.094,218.712,101.894,218.616,101.525,218.664z"/>
				<path fill="#FFFFFF" d="M104.399,216.187c-0.079-0.145-0.178-0.261-0.298-0.356c-0.12-0.093-0.258-0.161-0.413-0.202
					c-0.155-0.041-0.32-0.051-0.493-0.028c-0.183,0.024-0.349,0.077-0.499,0.16s-0.273,0.187-0.372,0.313
					c-0.1,0.126-0.172,0.268-0.216,0.424c-0.044,0.159-0.056,0.322-0.034,0.492c0.02,0.151,0.063,0.289,0.132,0.414
					c0.069,0.124,0.154,0.229,0.256,0.315c0.103,0.086,0.219,0.149,0.348,0.189c0.129,0.042,0.265,0.051,0.406,0.033
					c0.025-0.003,0.059-0.01,0.1-0.021c0.041-0.01,0.09-0.021,0.146-0.036c-0.072,0.144-0.145,0.267-0.218,0.373
					c-0.073,0.105-0.138,0.201-0.195,0.285s-0.103,0.159-0.135,0.226c-0.031,0.065-0.044,0.129-0.036,0.189
					c0.006,0.049,0.022,0.094,0.049,0.137c0.027,0.041,0.059,0.077,0.097,0.107c0.038,0.028,0.082,0.049,0.13,0.063
					c0.049,0.012,0.098,0.016,0.146,0.011c0.099-0.014,0.201-0.084,0.305-0.212c0.104-0.128,0.229-0.309,0.375-0.542
					c0.225-0.369,0.385-0.709,0.479-1.018c0.094-0.31,0.125-0.585,0.092-0.828C104.53,216.492,104.479,216.33,104.399,216.187z
					 M103.674,217.093c-0.075,0.102-0.174,0.159-0.295,0.176c-0.062,0.007-0.119,0.003-0.176-0.015
					c-0.056-0.017-0.107-0.045-0.152-0.08c-0.046-0.037-0.084-0.081-0.116-0.137c-0.031-0.055-0.052-0.115-0.061-0.183
					c-0.018-0.135,0.011-0.252,0.086-0.354c0.074-0.102,0.173-0.16,0.295-0.177c0.122-0.015,0.232,0.017,0.331,0.096
					c0.099,0.078,0.156,0.184,0.174,0.319C103.777,216.874,103.749,216.992,103.674,217.093z"/>
				<path fill="#FFFFFF" d="M105.735,218.123c-0.095-0.074-0.202-0.103-0.325-0.087c-0.122,0.016-0.219,0.072-0.293,0.167
					c-0.074,0.097-0.103,0.206-0.087,0.327c0.015,0.123,0.072,0.221,0.168,0.294s0.205,0.103,0.327,0.088
					c0.061-0.009,0.116-0.027,0.167-0.057c0.05-0.029,0.091-0.066,0.125-0.111c0.033-0.046,0.058-0.097,0.074-0.151
					c0.015-0.057,0.019-0.114,0.011-0.175C105.886,218.295,105.83,218.197,105.735,218.123z"/>
				<path fill="#FFFFFF" d="M108.205,215.69c-0.079-0.144-0.178-0.261-0.298-0.355c-0.12-0.094-0.258-0.161-0.413-0.202
					c-0.155-0.043-0.32-0.051-0.493-0.029c-0.183,0.023-0.349,0.077-0.498,0.16c-0.149,0.084-0.273,0.188-0.372,0.313
					c-0.1,0.125-0.172,0.267-0.217,0.425c-0.044,0.157-0.056,0.32-0.034,0.491c0.02,0.15,0.064,0.289,0.133,0.413
					c0.069,0.125,0.154,0.231,0.256,0.316c0.103,0.087,0.219,0.15,0.348,0.19c0.129,0.04,0.264,0.051,0.405,0.032
					c0.025-0.004,0.058-0.011,0.1-0.02c0.042-0.012,0.091-0.023,0.147-0.038c-0.072,0.145-0.145,0.27-0.218,0.373
					c-0.073,0.106-0.137,0.202-0.194,0.286c-0.059,0.084-0.103,0.158-0.135,0.226c-0.033,0.066-0.044,0.13-0.036,0.19
					c0.007,0.048,0.023,0.094,0.049,0.136c0.027,0.042,0.059,0.077,0.097,0.106s0.082,0.051,0.131,0.063
					c0.049,0.014,0.098,0.016,0.146,0.011c0.1-0.013,0.201-0.084,0.305-0.211c0.104-0.128,0.228-0.31,0.374-0.543
					c0.227-0.368,0.385-0.708,0.479-1.016c0.093-0.309,0.125-0.585,0.092-0.83C108.336,215.997,108.284,215.833,108.205,215.69z
					 M107.479,216.597c-0.075,0.103-0.174,0.16-0.296,0.175c-0.061,0.009-0.118,0.005-0.175-0.015
					c-0.057-0.016-0.107-0.042-0.152-0.079c-0.046-0.037-0.084-0.082-0.116-0.137c-0.032-0.054-0.052-0.114-0.061-0.182
					c-0.018-0.136,0.01-0.254,0.086-0.354c0.074-0.103,0.173-0.16,0.294-0.176c0.123-0.017,0.232,0.016,0.331,0.094
					c0.098,0.08,0.156,0.186,0.174,0.32S107.554,216.496,107.479,216.597z"/>
				<path fill="#FFFFFF" d="M110.001,214.814l-1.279,0.168c-0.157,0.02-0.27,0.067-0.338,0.142s-0.095,0.171-0.08,0.292
					c0.018,0.142,0.075,0.229,0.172,0.263c0.095,0.033,0.229,0.039,0.398,0.017l0.886-0.114l-0.74,2.211
					c-0.024,0.068-0.042,0.132-0.054,0.19c-0.012,0.058-0.015,0.112-0.007,0.163c0.015,0.108,0.064,0.193,0.15,0.256
					c0.087,0.062,0.188,0.085,0.303,0.071c0.157-0.02,0.278-0.161,0.361-0.42l0.813-2.587c0.019-0.061,0.03-0.117,0.037-0.171
					c0.006-0.052,0.007-0.095,0.003-0.128C110.588,214.884,110.38,214.766,110.001,214.814z"/>
			</g>
			<g>
				<path fill="#FFFFFF" d="M140.583,229.867c0.33-0.376,0.463-0.808,0.4-1.295c-0.031-0.241-0.109-0.46-0.234-0.657
					c-0.125-0.196-0.286-0.362-0.48-0.494c-0.195-0.133-0.419-0.227-0.672-0.284c-0.253-0.057-0.52-0.067-0.801-0.03
					c-0.281,0.035-0.537,0.114-0.766,0.235c-0.23,0.119-0.421,0.27-0.577,0.447c-0.155,0.177-0.268,0.377-0.337,0.6
					c-0.07,0.222-0.089,0.454-0.059,0.695c0.063,0.487,0.303,0.87,0.72,1.149c-0.254,0.207-0.43,0.451-0.531,0.73
					c-0.102,0.278-0.13,0.581-0.088,0.908c0.036,0.275,0.123,0.527,0.261,0.759c0.138,0.229,0.316,0.422,0.536,0.577
					c0.218,0.156,0.471,0.268,0.757,0.335s0.595,0.08,0.929,0.037c0.333-0.044,0.628-0.135,0.888-0.273
					c0.259-0.14,0.475-0.312,0.646-0.518c0.172-0.207,0.294-0.438,0.369-0.696c0.075-0.257,0.094-0.524,0.059-0.8
					C141.515,230.627,141.175,230.151,140.583,229.867z M138.41,229.038c-0.025-0.184,0.017-0.347,0.125-0.488
					c0.107-0.142,0.247-0.225,0.419-0.248c0.177-0.023,0.336,0.021,0.476,0.131c0.14,0.11,0.221,0.258,0.245,0.44
					c0.023,0.178-0.018,0.339-0.125,0.48c-0.107,0.144-0.25,0.226-0.427,0.25c-0.086,0.011-0.169,0.004-0.248-0.021
					c-0.079-0.025-0.151-0.063-0.216-0.117c-0.065-0.052-0.12-0.114-0.164-0.188C138.449,229.203,138.421,229.124,138.41,229.038z
					 M140.171,231.703c-0.029,0.111-0.077,0.21-0.145,0.299c-0.068,0.088-0.148,0.161-0.242,0.221
					c-0.095,0.059-0.197,0.095-0.306,0.107c-0.115,0.017-0.225,0.008-0.328-0.025s-0.199-0.084-0.287-0.151s-0.16-0.153-0.217-0.256
					s-0.093-0.215-0.109-0.336c-0.017-0.127-0.01-0.245,0.019-0.358c0.03-0.111,0.078-0.212,0.145-0.303s0.147-0.165,0.238-0.223
					c0.091-0.06,0.194-0.097,0.309-0.111c0.229-0.03,0.436,0.03,0.619,0.177c0.183,0.149,0.291,0.35,0.323,0.604
					C140.206,231.472,140.2,231.59,140.171,231.703z"/>
				<path fill="#FFFFFF" d="M147.07,229.993c-0.146-0.098-0.341-0.13-0.582-0.099c-0.029,0.003-0.06,0.01-0.094,0.016
					s-0.071,0.017-0.111,0.027l-0.292-2.246c-0.062-0.478-0.21-0.818-0.444-1.023c-0.234-0.207-0.512-0.288-0.833-0.247
					c-0.229,0.03-0.416,0.105-0.557,0.226c-0.142,0.121-0.272,0.312-0.39,0.572l-1.45,3.122c-0.063,0.142-0.121,0.279-0.174,0.407
					c-0.054,0.13-0.07,0.275-0.049,0.435c0.025,0.19,0.113,0.319,0.264,0.387c0.151,0.068,0.369,0.083,0.65,0.047l2.16-0.282
					l0.079,0.603c0.069,0.529,0.301,0.767,0.697,0.716c0.212-0.028,0.37-0.115,0.474-0.259c0.104-0.145,0.14-0.339,0.108-0.58
					l-0.084-0.644l0.129-0.017c0.558-0.073,0.808-0.324,0.751-0.755C147.302,230.227,147.217,230.091,147.07,229.993z
					 M143.573,230.291l1.132-2.528l0.305,2.341L143.573,230.291z"/>
				<path fill="#FFFFFF" d="M149.402,230.823c-0.17-0.132-0.363-0.185-0.581-0.155c-0.219,0.027-0.394,0.128-0.525,0.3
					c-0.132,0.172-0.184,0.366-0.155,0.585c0.029,0.218,0.129,0.393,0.301,0.525s0.367,0.185,0.585,0.156
					c0.109-0.014,0.208-0.048,0.298-0.101s0.164-0.118,0.223-0.199c0.06-0.082,0.103-0.171,0.132-0.271
					c0.027-0.101,0.035-0.205,0.021-0.313C149.67,231.132,149.57,230.956,149.402,230.823z"/>
				<path fill="#FFFFFF" d="M153.99,228.514c-0.126-0.233-0.283-0.432-0.471-0.592c-0.188-0.158-0.4-0.274-0.64-0.344
					c-0.241-0.071-0.489-0.089-0.748-0.057c-0.184,0.023-0.378,0.076-0.584,0.154v-0.743l1.438-0.188
					c0.281-0.037,0.485-0.121,0.611-0.251c0.125-0.131,0.175-0.298,0.148-0.5c-0.056-0.434-0.382-0.611-0.979-0.534l-1.696,0.221
					c-0.144,0.019-0.267,0.045-0.371,0.074c-0.104,0.032-0.19,0.078-0.258,0.139c-0.067,0.061-0.117,0.144-0.146,0.247
					c-0.03,0.103-0.044,0.236-0.041,0.398l0.01,1.618c0.003,0.117,0.006,0.216,0.008,0.298c0.002,0.081,0.005,0.142,0.011,0.183
					c0.053,0.4,0.259,0.578,0.621,0.532c0.08-0.012,0.161-0.033,0.241-0.068c0.08-0.033,0.162-0.068,0.245-0.105
					c0.083-0.037,0.167-0.073,0.253-0.106c0.087-0.035,0.172-0.057,0.258-0.069c0.235-0.03,0.432,0.021,0.592,0.151
					c0.161,0.132,0.259,0.334,0.294,0.608c0.017,0.133,0.01,0.257-0.021,0.376c-0.032,0.116-0.082,0.222-0.152,0.315
					c-0.069,0.096-0.153,0.172-0.25,0.234c-0.096,0.062-0.206,0.103-0.326,0.116c-0.154,0.021-0.296,0.012-0.423-0.027
					c-0.127-0.038-0.249-0.084-0.364-0.136s-0.225-0.1-0.329-0.142c-0.105-0.042-0.208-0.055-0.312-0.042
					c-0.167,0.021-0.296,0.098-0.391,0.226c-0.094,0.129-0.129,0.285-0.105,0.469c0.021,0.155,0.09,0.3,0.209,0.434
					c0.12,0.132,0.276,0.244,0.47,0.337c0.192,0.092,0.411,0.156,0.655,0.195c0.244,0.037,0.503,0.038,0.779,0.003
					c0.344-0.045,0.651-0.145,0.919-0.301c0.27-0.153,0.492-0.349,0.668-0.586c0.176-0.235,0.303-0.502,0.377-0.801
					c0.076-0.299,0.092-0.612,0.049-0.94C154.2,229.015,154.117,228.748,153.99,228.514z"/>
				<path fill="#FFFFFF" d="M157.996,227.581c0.219-0.205,0.371-0.414,0.457-0.629c0.085-0.217,0.112-0.456,0.076-0.72
					c-0.029-0.23-0.104-0.44-0.222-0.632c-0.119-0.19-0.268-0.353-0.448-0.48s-0.39-0.222-0.628-0.28
					c-0.238-0.06-0.489-0.072-0.753-0.037c-0.27,0.034-0.52,0.112-0.749,0.233c-0.23,0.12-0.425,0.263-0.587,0.428
					c-0.162,0.166-0.284,0.342-0.365,0.529c-0.081,0.186-0.11,0.365-0.087,0.539c0.021,0.167,0.099,0.297,0.231,0.394
					c0.132,0.097,0.272,0.137,0.421,0.115c0.167-0.02,0.293-0.079,0.38-0.176c0.087-0.095,0.188-0.212,0.305-0.35
					c0.086-0.104,0.171-0.196,0.258-0.275c0.086-0.078,0.198-0.126,0.336-0.145c0.155-0.021,0.285,0.012,0.389,0.094
					c0.104,0.083,0.167,0.205,0.188,0.367c0.041,0.314-0.146,0.552-0.564,0.711c-0.2,0.074-0.34,0.162-0.421,0.262
					c-0.08,0.102-0.108,0.243-0.084,0.426c0.027,0.201,0.091,0.34,0.194,0.418c0.104,0.076,0.261,0.118,0.472,0.127
					c0.298,0.009,0.528,0.049,0.69,0.124c0.161,0.075,0.259,0.237,0.291,0.483c0.029,0.225-0.019,0.42-0.143,0.588
					s-0.29,0.266-0.496,0.293c-0.115,0.014-0.218,0.01-0.309-0.017c-0.09-0.026-0.174-0.066-0.251-0.117
					c-0.077-0.051-0.15-0.114-0.222-0.189c-0.071-0.076-0.144-0.151-0.218-0.23c-0.114-0.112-0.22-0.196-0.317-0.252
					c-0.098-0.055-0.216-0.072-0.353-0.055c-0.184,0.024-0.323,0.104-0.42,0.239c-0.096,0.135-0.131,0.304-0.105,0.505
					c0.024,0.19,0.114,0.384,0.268,0.585c0.155,0.198,0.367,0.377,0.639,0.533c0.455,0.261,0.934,0.358,1.439,0.292
					c0.322-0.043,0.609-0.133,0.862-0.271c0.253-0.138,0.466-0.309,0.638-0.512c0.172-0.203,0.295-0.433,0.371-0.688
					c0.074-0.254,0.094-0.52,0.058-0.795C159.125,228.32,158.719,227.843,157.996,227.581z"/>
			</g>
		</g>
		<g opacity="0.2">
			<polygon fill="#FFFFFF" points="102.99,274.037 148.763,268.42 175.187,144.187 129.413,149.803 			"/>
		</g>
	</g>
</g>
</svg>
