<?xml version="1.0" encoding="utf-8"?>
<!-- Generator: Adobe Illustrator 15.1.0, SVG Export Plug-In . SVG Version: 6.00 Build 0)  -->
<!DOCTYPE svg PUBLIC "-//W3C//DTD SVG 1.1//EN" "http://www.w3.org/Graphics/SVG/1.1/DTD/svg11.dtd">
<svg version="1.1" id="Layer_1" xmlns="http://www.w3.org/2000/svg" xmlns:xlink="http://www.w3.org/1999/xlink" x="0px" y="0px"
	 width="317.48px" height="291.968px" viewBox="0 0 317.48 291.968" enable-background="new 0 0 317.48 291.968"
	 xml:space="preserve">
<g>
	<g>
		<g>
			<polygon fill="#A2B2D6" points="169.934,47.764 156.069,86.929 156.016,87.081 103.401,236.058 249.581,288.214 314.322,96.507 
				311.269,95.333 			"/>
			<g>
				
					<rect x="138.805" y="65.651" transform="matrix(0.9427 0.3337 -0.3337 0.9427 67.2473 -61.1645)" fill="#F1F2F2" width="145.725" height="199.034"/>
				
					<rect x="161.59" y="90.328" transform="matrix(0.9427 0.3337 -0.3337 0.9427 47.0752 -72.4567)" fill="#5A5A7A" width="145.725" height="20.95"/>
				
					<rect x="202.059" y="79.694" transform="matrix(0.9427 0.3337 -0.3337 0.9427 41.831 -77.6781)" fill="#5A5A7A" width="89.933" height="6.464"/>
				
					<rect x="110.322" y="244.26" transform="matrix(0.9427 0.3337 -0.3337 0.9427 92.462 -47.0485)" fill="#5A5A7A" width="145.725" height="2.726"/>
				<g>
					<path fill="#6B2D6E" d="M194.293,177.199c5.176,0.586,10.316-0.094,15.035-1.852l-10.837-26.174L194.293,177.199z"/>
					<path fill="#FFD121" d="M211.527,174.435c7.42-3.396,13.564-9.551,16.771-17.672l-28.229-9.994L211.527,174.435z"/>
					<path fill="#75CF33" d="M209.955,114.407l-10.486,29.625l29.625,10.487C234.217,138.214,225.854,120.684,209.955,114.407z"/>
					<path fill="#F2274D" d="M169.662,161.035c3.746,6.52,9.752,11.785,17.396,14.49c1.617,0.572,3.248,1.01,4.883,1.314
						l4.484-29.932L169.662,161.035z"/>
					<path fill="#317AB0" d="M167.182,133.864c-2.15,6.074-2.393,12.361-1.045,18.208l0.621,2.299
						c0.482,1.563,1.082,3.088,1.793,4.559l28.287-14.6l0.197-0.561l4.297-12.133l6.381-18.025
						C191.03,108.372,173.063,117.247,167.182,133.864z"/>
				</g>
				<g>
					
						<rect x="152.416" y="176.482" transform="matrix(0.9428 0.3335 -0.3335 0.9428 74.6397 -40.7505)" fill="#2E97CC" width="7.216" height="41.128"/>
					
						<rect x="160.55" y="193.749" transform="matrix(0.9426 0.334 -0.334 0.9426 78.6655 -42.9177)" fill="#BCD81A" width="7.217" height="27.178"/>
					
						<rect x="169.651" y="204.86" transform="matrix(0.9427 0.3337 -0.3337 0.9427 81.5502 -45.516)" fill="#FFC022" width="7.216" height="19.503"/>
					
						<rect x="179.012" y="214.273" transform="matrix(0.9427 0.3337 -0.3337 0.9427 84.242 -48.2697)" fill="#8A379B" width="7.216" height="13.591"/>
					
						<rect x="190.973" y="208.792" transform="matrix(0.9427 0.3336 -0.3336 0.9427 84.6281 -52.2865)" fill="#F44D3B" width="7.214" height="23.029"/>
				</g>
				<g>
					
						<rect x="242.106" y="142.51" transform="matrix(0.9427 0.3337 -0.3337 0.9427 62.3549 -73.2731)" fill="#317AB0" width="4.725" height="4.725"/>
					
						<rect x="249.813" y="151.263" transform="matrix(0.9427 0.3337 -0.3337 0.9427 65.9756 -79.7258)" fill="#949AAA" width="30.451" height="1.807"/>
					
						<rect x="239.571" y="149.775" transform="matrix(0.9427 0.3336 -0.3336 0.9427 64.6121 -71.9933)" fill="#75CF33" width="4.725" height="4.726"/>
					
						<rect x="247.832" y="155.219" transform="matrix(0.9427 0.3337 -0.3337 0.9427 66.6032 -75.5318)" fill="#949AAA" width="10.7" height="1.806"/>
					
						<rect x="237.007" y="157.002" transform="matrix(0.9427 0.3337 -0.3337 0.9427 66.8915 -70.7358)" fill="#FFD121" width="4.724" height="4.724"/>
					
						<rect x="244.854" y="164.696" transform="matrix(0.9426 0.3339 -0.3339 0.9426 70.0333 -76.3157)" fill="#949AAA" width="24.396" height="1.807"/>
					
						<rect x="234.447" y="164.203" transform="matrix(0.9427 0.3335 -0.3335 0.9427 69.1155 -69.4462)" fill="#6B2D6E" width="4.726" height="4.726"/>
					
						<rect x="242.498" y="170.869" transform="matrix(0.9427 0.3336 -0.3336 0.9427 71.7155 -74.0913)" fill="#949AAA" width="18.197" height="1.811"/>
					
						<rect x="231.824" y="171.581" transform="matrix(0.9426 0.334 -0.334 0.9426 71.5537 -68.2344)" fill="#F2274D" width="4.724" height="4.727"/>
					
						<rect x="239.618" y="179.814" transform="matrix(0.9427 0.3337 -0.3337 0.9427 74.8448 -74.2167)" fill="#949AAA" width="27.604" height="1.807"/>
				</g>
				<g>
					<circle fill="#231F20" cx="159.811" cy="115.129" r="2.272"/>
					<circle fill="#231F20" cx="139.877" cy="171.437" r="2.271"/>
				</g>
				<g>
					
						<rect x="216.416" y="204.551" transform="matrix(0.9427 0.3337 -0.3337 0.9427 82.5349 -67.7661)" fill="#5A5A7A" width="44.226" height="3.637"/>
					
						<rect x="220.401" y="213.642" transform="matrix(0.9427 0.3337 -0.3337 0.9427 85.3114 -67.5201)" fill="#949AAA" width="37.555" height="1.807"/>
					
						<rect x="212.183" y="217.442" transform="matrix(0.9427 0.3337 -0.3337 0.9427 86.2904 -65.668)" fill="#949AAA" width="44.225" height="1.807"/>
					
						<rect x="210.437" y="222.35" transform="matrix(0.9427 0.3337 -0.3337 0.9427 87.8243 -64.8021)" fill="#949AAA" width="44.227" height="1.809"/>
					
						<rect x="208.689" y="227.262" transform="matrix(0.9427 0.3337 -0.3337 0.9427 89.3632 -63.9375)" fill="#949AAA" width="44.227" height="1.808"/>
					
						<rect x="206.968" y="232.165" transform="matrix(0.9427 0.3337 -0.3337 0.9427 90.9047 -63.084)" fill="#949AAA" width="44.225" height="1.808"/>
					
						<rect x="205.567" y="235.174" transform="matrix(0.9427 0.3337 -0.3337 0.9427 91.4934 -60.5439)" fill="#949AAA" width="32.862" height="1.807"/>
				</g>
				
					<rect x="179.747" y="180.876" transform="matrix(0.9427 0.3337 -0.3337 0.9427 71.243 -51.2508)" fill="#949AAA" width="10.156" height="1.807"/>
				
					<rect x="163.15" y="227.775" transform="matrix(0.9426 0.3339 -0.3339 0.9426 86.0123 -43.0483)" fill="#5A5A7A" width="10.16" height="1.807"/>
			</g>
		</g>
		<g>
			<polygon fill="#A2B2D6" points="21.083,165.728 245.93,186.294 255.771,24.232 39.597,4.481 			"/>
			<g>
				<g>
					
						<rect x="31.669" y="12.954" transform="matrix(0.9962 0.0875 -0.0875 0.9962 8.6314 -11.922)" fill="#F7F7F7" width="217.287" height="159.089"/>
				</g>
				<g>
					<polygon fill="#5A5A7A" points="172.014,33.791 230.483,38.998 230.858,34.724 172.391,29.515 					"/>
					<polygon fill="#949AAA" points="182.727,42.536 229.803,46.743 229.988,44.618 182.912,40.41 					"/>
					<polygon fill="#949AAA" points="170.797,47.658 229.266,52.864 229.451,50.739 170.982,45.531 					"/>
					<polygon fill="#949AAA" points="170.26,53.779 228.729,58.988 228.914,56.862 170.445,51.655 					"/>
					<polygon fill="#949AAA" points="169.723,59.902 228.191,65.11 228.376,62.984 169.907,57.776 					"/>
					<polygon fill="#949AAA" points="169.182,66.023 227.651,71.231 227.838,69.106 169.369,63.898 					"/>
					<polygon fill="#949AAA" points="168.618,72.461 227.088,77.669 227.274,75.543 168.805,70.335 					"/>
					<polygon fill="#949AAA" points="168.079,78.582 226.549,83.79 226.736,81.664 168.268,76.456 					"/>
					<polygon fill="#949AAA" points="167.542,84.704 206.602,88.208 206.786,86.083 167.73,82.58 					"/>
				</g>
			</g>
			<g>
				<path opacity="0.6" fill="#A8F4F4" enable-background="new    " d="M142.571,89.174C99.063,85.176,115.6,35.056,89.564,31.372
					c-23.912-3.385-23.22,36.938-40.015,35.395L48.11,86.808l102.592,9.214l-0.291-6.387
					C147.932,89.575,145.32,89.426,142.571,89.174z"/>
				<path opacity="0.5" fill="#FFDA40" enable-background="new    " d="M137.655,70.483C127.811,57.31,114.4,54.43,98.998,70.044
					c-9.619,9.753-22.017,5.302-27.375-2.881c-3.471-5.3-9.219-13.665-20.471-14.699l-3.046,34.344l102.592,9.215l0.972-16.655
					C146.473,78.825,141.549,75.692,137.655,70.483z"/>
				<g opacity="0.2">
					<path fill="#3F4751" d="M94.129,90.94l13.379,1.203l2.609-30.246c-3.43-9.682-5.446-19.6-10.81-25.462L94.129,90.94z"/>
				</g>
				<g>
					<g>
						<path fill="#9C9DA1" d="M110.165,61.469c-0.24-0.021-0.451,0.154-0.473,0.394l-0.08,0.866
							c-0.022,0.239,0.153,0.45,0.393,0.473c0.014,0.002,0.027,0.002,0.04,0.002c0.223,0,0.411-0.17,0.433-0.396l0.08-0.865
							C110.58,61.702,110.404,61.49,110.165,61.469z"/>
					</g>
					<g>
						<path fill="#9C9DA1" d="M108.625,78.229c-0.236-0.022-0.451,0.154-0.473,0.393l-0.162,1.766
							c-0.022,0.239,0.153,0.45,0.394,0.472c0.012,0.001,0.027,0.001,0.04,0.001c0.223,0,0.412-0.168,0.432-0.394l0.163-1.767
							C109.04,78.463,108.863,78.251,108.625,78.229z"/>
						<path fill="#9C9DA1" d="M107.813,87.059c-0.238-0.02-0.451,0.155-0.473,0.393l-0.162,1.766
							c-0.021,0.24,0.154,0.451,0.394,0.473c0.013,0,0.027,0.001,0.041,0.001c0.222,0,0.412-0.17,0.432-0.396l0.163-1.766
							C108.229,87.293,108.053,87.081,107.813,87.059z"/>
						<path fill="#9C9DA1" d="M108.218,82.645c-0.236-0.021-0.45,0.153-0.472,0.393l-0.163,1.767
							c-0.021,0.238,0.155,0.449,0.394,0.471c0.014,0.001,0.027,0.002,0.041,0.002c0.222,0,0.411-0.169,0.433-0.395l0.161-1.766
							C108.634,82.878,108.458,82.667,108.218,82.645z"/>
						<path fill="#9C9DA1" d="M109.841,64.984c-0.24-0.02-0.45,0.154-0.472,0.394l-0.162,1.765
							c-0.022,0.239,0.154,0.451,0.393,0.473c0.014,0.001,0.027,0.001,0.04,0.001c0.224,0,0.412-0.169,0.434-0.395l0.162-1.766
							C110.256,65.217,110.081,65.006,109.841,64.984z"/>
						<path fill="#9C9DA1" d="M109.436,69.399c-0.237-0.021-0.45,0.154-0.472,0.393l-0.162,1.767
							c-0.022,0.239,0.154,0.45,0.393,0.472c0.014,0.001,0.028,0.002,0.04,0.002c0.223,0,0.412-0.169,0.432-0.395l0.163-1.766
							C109.851,69.633,109.675,69.422,109.436,69.399z"/>
						<path fill="#9C9DA1" d="M109.03,73.814c-0.238-0.019-0.45,0.153-0.472,0.394l-0.163,1.767
							c-0.021,0.239,0.154,0.45,0.393,0.473c0.014,0.001,0.027,0.001,0.041,0.001c0.222,0,0.411-0.169,0.432-0.395l0.163-1.766
							C109.445,74.047,109.269,73.836,109.03,73.814z"/>
					</g>
					<g>
						<path fill="#9C9DA1" d="M107.407,91.474c-0.236-0.022-0.449,0.155-0.472,0.393l-0.08,0.865
							c-0.021,0.239,0.154,0.451,0.394,0.472c0.013,0.001,0.027,0.001,0.04,0.001c0.223,0,0.412-0.169,0.432-0.394l0.08-0.866
							C107.822,91.709,107.646,91.496,107.407,91.474z"/>
					</g>
				</g>
				<g>
					<g>
						<path fill="#9C9DA1" d="M127.838,60.183c-0.24-0.021-0.451,0.154-0.474,0.393l-0.08,0.866
							c-0.022,0.239,0.153,0.451,0.394,0.473c0.014,0.001,0.026,0.002,0.039,0.002c0.224,0,0.412-0.169,0.434-0.396l0.08-0.865
							C128.252,60.417,128.076,60.204,127.838,60.183z"/>
					</g>
					<g>
						<path fill="#9C9DA1" d="M125.59,84.647c-0.24-0.02-0.451,0.154-0.474,0.393l-0.155,1.685
							c-0.021,0.239,0.154,0.451,0.395,0.473c0.014,0,0.027,0,0.039,0c0.223,0,0.412-0.169,0.433-0.395l0.156-1.685
							C126.004,84.88,125.828,84.668,125.59,84.647z"/>
						<path fill="#9C9DA1" d="M125.977,80.433c-0.238-0.021-0.451,0.154-0.473,0.393l-0.154,1.686
							c-0.022,0.239,0.154,0.451,0.393,0.473c0.014,0.002,0.027,0.002,0.041,0.002c0.221,0,0.412-0.17,0.432-0.395l0.156-1.686
							C126.391,80.666,126.215,80.455,125.977,80.433z"/>
						<path fill="#9C9DA1" d="M125.202,88.861c-0.237-0.021-0.45,0.153-0.474,0.393l-0.153,1.686
							c-0.022,0.239,0.153,0.451,0.394,0.473c0.014,0,0.026,0.001,0.041,0.001c0.222,0,0.412-0.168,0.432-0.394l0.156-1.686
							C125.616,89.094,125.441,88.883,125.202,88.861z"/>
						<path fill="#9C9DA1" d="M127.137,67.791c-0.236-0.021-0.448,0.154-0.472,0.393l-0.155,1.685
							c-0.021,0.239,0.153,0.451,0.394,0.473c0.013,0.001,0.026,0.002,0.04,0.002c0.222,0,0.412-0.17,0.434-0.395l0.154-1.686
							C127.553,68.025,127.377,67.813,127.137,67.791z"/>
						<path fill="#9C9DA1" d="M127.525,63.577c-0.239-0.02-0.451,0.154-0.473,0.394l-0.155,1.686
							c-0.021,0.239,0.155,0.451,0.393,0.474c0.015,0.001,0.027,0.001,0.04,0.001c0.223,0,0.411-0.169,0.432-0.395l0.155-1.686
							C127.94,63.81,127.764,63.598,127.525,63.577z"/>
						<path fill="#9C9DA1" d="M126.364,76.219c-0.235-0.021-0.451,0.154-0.474,0.393l-0.153,1.686
							c-0.022,0.239,0.153,0.451,0.394,0.473c0.012,0.002,0.026,0.002,0.039,0.002c0.223,0,0.411-0.17,0.432-0.395l0.156-1.686
							C126.778,76.452,126.602,76.24,126.364,76.219z"/>
						<path fill="#9C9DA1" d="M126.75,72.005c-0.236-0.02-0.451,0.154-0.473,0.394l-0.154,1.685
							c-0.021,0.239,0.154,0.451,0.393,0.473c0.015,0,0.027,0.001,0.041,0.001c0.222,0,0.412-0.169,0.433-0.395l0.155-1.685
							C127.166,72.238,126.989,72.027,126.75,72.005z"/>
					</g>
					<g>
						<path fill="#9C9DA1" d="M124.815,93.075c-0.239-0.022-0.451,0.154-0.472,0.393l-0.082,0.866
							c-0.021,0.239,0.155,0.451,0.395,0.473c0.014,0.001,0.027,0.002,0.04,0.002c0.224,0,0.412-0.169,0.433-0.396l0.08-0.865
							C125.23,93.307,125.055,93.097,124.815,93.075z"/>
					</g>
				</g>
				<g>
					<g>
						<path fill="#9C9DA1" d="M99.185,36.89c-0.237-0.02-0.45,0.155-0.472,0.394l-0.079,0.866c-0.021,0.239,0.154,0.45,0.393,0.472
							c0.014,0.002,0.027,0.003,0.04,0.003c0.223,0,0.411-0.169,0.433-0.395l0.08-0.866C99.601,37.125,99.424,36.912,99.185,36.89z"
							/>
					</g>
					<g>
						<path fill="#9C9DA1" d="M95.988,71.688c-0.24-0.021-0.451,0.154-0.472,0.394l-0.164,1.786
							c-0.022,0.24,0.152,0.451,0.393,0.473c0.014,0,0.027,0.001,0.04,0.001c0.222,0,0.412-0.169,0.433-0.396l0.164-1.786
							C96.402,71.922,96.227,71.71,95.988,71.688z"/>
						<path fill="#9C9DA1" d="M96.807,62.759c-0.236-0.021-0.451,0.155-0.471,0.393l-0.166,1.787
							c-0.021,0.239,0.155,0.45,0.394,0.473c0.014,0.001,0.027,0.001,0.04,0.001c0.223,0,0.412-0.169,0.433-0.395l0.164-1.786
							C97.223,62.993,97.046,62.781,96.807,62.759z"/>
						<path fill="#9C9DA1" d="M95.576,76.153c-0.237-0.021-0.45,0.153-0.472,0.394l-0.165,1.786
							c-0.021,0.239,0.155,0.45,0.394,0.473c0.014,0,0.027,0.001,0.041,0.001c0.222,0,0.411-0.169,0.433-0.395l0.164-1.786
							C95.992,76.385,95.815,76.175,95.576,76.153z"/>
						<path fill="#9C9DA1" d="M94.756,85.083c-0.237-0.021-0.45,0.153-0.473,0.394l-0.164,1.786
							c-0.021,0.239,0.154,0.451,0.393,0.472c0.014,0.001,0.027,0.001,0.041,0.001c0.222,0,0.412-0.168,0.433-0.394l0.164-1.786
							C95.172,85.316,94.996,85.105,94.756,85.083z"/>
						<path fill="#9C9DA1" d="M95.167,80.618c-0.237-0.021-0.45,0.154-0.473,0.393l-0.164,1.786
							c-0.022,0.239,0.154,0.451,0.394,0.474c0.013,0.001,0.027,0.002,0.041,0.002c0.222,0,0.412-0.17,0.432-0.396l0.165-1.787
							C95.581,80.851,95.405,80.64,95.167,80.618z"/>
						<path fill="#9C9DA1" d="M96.397,67.224c-0.236-0.021-0.45,0.154-0.473,0.393l-0.164,1.786
							c-0.022,0.239,0.154,0.45,0.394,0.473c0.013,0.001,0.026,0.001,0.04,0.001c0.223,0,0.411-0.169,0.432-0.396l0.165-1.785
							C96.813,67.457,96.636,67.246,96.397,67.224z"/>
						<path fill="#9C9DA1" d="M98.448,44.9c-0.237-0.021-0.45,0.154-0.472,0.393l-0.165,1.786c-0.021,0.239,0.155,0.451,0.394,0.473
							c0.013,0.001,0.027,0.001,0.041,0.001c0.222,0,0.411-0.169,0.432-0.394l0.164-1.787C98.863,45.134,98.688,44.923,98.448,44.9z
							"/>
						<path fill="#9C9DA1" d="M98.858,40.435c-0.239-0.021-0.45,0.155-0.472,0.394l-0.166,1.786
							c-0.022,0.239,0.155,0.451,0.393,0.473c0.013,0,0.027,0.001,0.041,0.001c0.222,0,0.412-0.169,0.432-0.395l0.165-1.786
							C99.273,40.669,99.098,40.458,98.858,40.435z"/>
						<path fill="#9C9DA1" d="M98.038,49.365c-0.238-0.02-0.451,0.155-0.473,0.394l-0.164,1.785
							c-0.021,0.239,0.154,0.451,0.394,0.473c0.013,0,0.027,0.001,0.041,0.001c0.222,0,0.412-0.169,0.432-0.396l0.165-1.785
							C98.453,49.599,98.277,49.387,98.038,49.365z"/>
						<path fill="#9C9DA1" d="M97.218,58.295c-0.237-0.022-0.451,0.154-0.473,0.393l-0.165,1.786
							c-0.022,0.238,0.154,0.45,0.394,0.472c0.013,0.001,0.027,0.002,0.04,0.002c0.222,0,0.411-0.17,0.432-0.396l0.164-1.787
							C97.632,58.528,97.457,58.317,97.218,58.295z"/>
						<path fill="#9C9DA1" d="M97.628,53.83c-0.238-0.02-0.45,0.153-0.473,0.393l-0.165,1.786c-0.021,0.238,0.155,0.45,0.393,0.472
							c0.014,0.001,0.027,0.001,0.041,0.001c0.223,0,0.412-0.169,0.434-0.394l0.164-1.786C98.042,54.063,97.867,53.851,97.628,53.83
							z"/>
					</g>
					<g>
						<path fill="#9C9DA1" d="M94.347,89.547c-0.236-0.02-0.451,0.154-0.473,0.394l-0.08,0.866c-0.022,0.239,0.153,0.45,0.393,0.472
							c0.014,0.001,0.028,0.001,0.041,0.001c0.222,0,0.412-0.168,0.432-0.394l0.08-0.866C94.76,89.781,94.585,89.57,94.347,89.547z"
							/>
					</g>
				</g>
				<g>
					<g>
						<path fill="#9C9DA1" d="M62.559,57.095c-0.236-0.021-0.45,0.154-0.473,0.394l-0.081,0.865
							c-0.021,0.239,0.154,0.45,0.394,0.473c0.014,0.001,0.026,0.001,0.041,0.001c0.222,0,0.411-0.169,0.432-0.395l0.079-0.866
							C62.974,57.329,62.799,57.116,62.559,57.095z"/>
					</g>
					<g>
						<path fill="#9C9DA1" d="M61.02,73.854c-0.238-0.021-0.451,0.155-0.473,0.394l-0.162,1.767
							c-0.021,0.239,0.154,0.45,0.394,0.472c0.013,0.001,0.027,0.001,0.04,0.001c0.223,0,0.412-0.169,0.433-0.394l0.163-1.766
							C61.435,74.088,61.257,73.878,61.02,73.854z"/>
						<path fill="#9C9DA1" d="M60.613,78.27c-0.239-0.02-0.451,0.154-0.472,0.393l-0.162,1.766c-0.021,0.239,0.155,0.45,0.393,0.472
							c0.014,0.001,0.027,0.002,0.041,0.002c0.222,0,0.412-0.169,0.433-0.395l0.162-1.766C61.029,78.503,60.853,78.292,60.613,78.27
							z"/>
						<path fill="#9C9DA1" d="M60.209,82.685c-0.238-0.022-0.451,0.154-0.474,0.393l-0.162,1.766
							c-0.021,0.239,0.155,0.45,0.394,0.473c0.013,0.001,0.027,0.002,0.04,0.002c0.222,0,0.412-0.169,0.432-0.395l0.163-1.766
							C60.623,82.918,60.447,82.707,60.209,82.685z"/>
						<path fill="#9C9DA1" d="M62.236,60.608c-0.238-0.021-0.451,0.155-0.473,0.394L61.6,62.768
							c-0.021,0.239,0.154,0.45,0.394,0.473c0.013,0.001,0.026,0.001,0.04,0.001c0.223,0,0.412-0.17,0.432-0.395l0.163-1.766
							C62.652,60.843,62.476,60.631,62.236,60.608z"/>
						<path fill="#9C9DA1" d="M61.831,65.025c-0.238-0.02-0.45,0.154-0.473,0.394l-0.162,1.766c-0.022,0.239,0.154,0.45,0.393,0.472
							c0.014,0.001,0.027,0.002,0.041,0.002c0.222,0,0.411-0.169,0.432-0.395l0.163-1.766
							C62.245,65.258,62.069,65.047,61.831,65.025z"/>
						<path fill="#9C9DA1" d="M61.425,69.44c-0.239-0.022-0.45,0.154-0.472,0.393L60.789,71.6c-0.022,0.239,0.155,0.45,0.394,0.473
							c0.013,0.001,0.027,0.002,0.04,0.002c0.222,0,0.412-0.169,0.432-0.396l0.163-1.766C61.84,69.673,61.664,69.462,61.425,69.44z"
							/>
					</g>
					<g>
						<path fill="#9C9DA1" d="M59.802,87.101c-0.238-0.021-0.449,0.154-0.472,0.393l-0.08,0.866
							c-0.021,0.239,0.154,0.451,0.394,0.474c0.013,0,0.026,0.001,0.041,0.001c0.222,0,0.411-0.169,0.432-0.395l0.08-0.866
							C60.217,87.334,60.042,87.122,59.802,87.101z"/>
					</g>
				</g>
				<g>
					<path fill="#72BDBA" d="M125.838,81.942c-0.062-0.005-0.121-0.007-0.181-0.007c-1.017,0-1.853,0.763-1.946,1.777
						c-0.05,0.52,0.109,1.028,0.442,1.43c0.334,0.401,0.805,0.649,1.325,0.697c0.061,0.006,0.121,0.009,0.182,0.009
						c1.016,0,1.852-0.763,1.947-1.778C127.705,82.995,126.911,82.041,125.838,81.942z"/>
					<path fill="#FFFFFF" d="M125.877,81.509c-0.072-0.008-0.148-0.01-0.22-0.01c-1.242,0-2.267,0.934-2.379,2.173
						c-0.058,0.636,0.134,1.255,0.543,1.747c0.409,0.491,0.983,0.793,1.62,0.851c0.074,0.008,0.146,0.01,0.221,0.01
						c1.242,0,2.266-0.934,2.379-2.173c0.059-0.636-0.135-1.256-0.543-1.747C127.088,81.871,126.514,81.567,125.877,81.509z
						 M125.661,85.411c-0.047,0-0.094-0.001-0.142-0.006c-0.836-0.077-1.451-0.818-1.375-1.654c0.072-0.79,0.736-1.382,1.515-1.382
						c0.046,0,0.093,0.002,0.142,0.007c0.836,0.077,1.453,0.818,1.375,1.654C127.102,84.818,126.438,85.411,125.661,85.411z"/>
				</g>
				<g>
					<path fill="#72BDBA" d="M125.965,83.465l-0.61,0.985c4.741,2.941,10.354,4.675,17.165,5.301
						c2.691,0.248,5.343,0.403,7.876,0.463l0.026-1.159c-2.509-0.059-5.131-0.212-7.799-0.459
						C136,87.987,130.549,86.31,125.965,83.465z"/>
				</g>
				<g>
					<path fill="#72BDBA" d="M108.351,54.678c-3.621-11.433-7.042-22.231-18.707-23.881c-13.49-1.909-19.414,9.722-24.641,19.983
						c-4.209,8.264-8.189,16.069-15.402,15.408l-0.106,1.154c7.998,0.735,12.148-7.411,16.541-16.036
						c5.298-10.401,10.776-21.156,23.446-19.363c10.942,1.548,14.103,11.529,17.765,23.084c3.361,10.609,7.169,22.633,18.108,29.421
						l0.611-0.985C115.391,76.904,111.651,65.095,108.351,54.678z"/>
				</g>
				<g>
					<path fill="#FFC022" d="M138.024,70.207c-8.093-10.827-17.823-13.911-28.139-8.916l0.401,0.827
						c12.468-6.035,21.563,1.368,27.001,8.64c3.959,5.296,9.051,8.516,14.336,9.065l0.096-0.914
						C146.691,78.385,141.828,75.295,138.024,70.207z"/>
				</g>
				<g>
					<path fill="#FFFFFF" d="M98.673,69.72c-0.993,1.006-2.047,1.887-3.134,2.619l0.514,0.762c1.137-0.766,2.239-1.687,3.273-2.736
						c3.686-3.736,7.373-6.512,10.96-8.249l-0.401-0.827C106.204,63.072,102.433,65.909,98.673,69.72z"/>
				</g>
				<g>
					<path fill="#FFC022" d="M83.528,74.824c-4.572-0.923-8.879-3.881-11.518-7.915c-3.165-4.833-9.053-13.825-20.813-14.905
						l-0.084,0.916c11.319,1.04,17.05,9.792,20.128,14.494c2.772,4.233,7.297,7.341,12.107,8.311
						c1.108,0.225,2.214,0.336,3.312,0.336c3.288,0,6.487-1,9.396-2.959l-0.514-0.763C91.871,74.81,87.715,75.669,83.528,74.824z"/>
				</g>
				<g>
					<g>
						<polygon fill="#9C9DA1" points="54.816,21.707 53.375,21.574 47.32,87.462 150.424,96.936 150.559,95.493 48.895,86.152 
													"/>
					</g>
					<g>
						<polygon fill="#9C9DA1" points="51.597,23.092 54.067,21.946 56.288,23.523 54.47,17.568 						"/>
					</g>
					<g>
						<polygon fill="#9C9DA1" points="150.188,96.186 148.61,98.408 154.565,96.589 149.04,93.717 						"/>
					</g>
				</g>
				<g>
					<circle fill="#FFFFFF" cx="62.591" cy="56.758" r="1.522"/>
					<path fill="#FFC022" d="M62.77,54.81c-1.094-0.099-2.028,0.697-2.126,1.769c-0.1,1.074,0.695,2.028,1.769,2.127
						c0.062,0.006,0.12,0.007,0.181,0.007c1.017,0,1.853-0.763,1.946-1.777c0.048-0.521-0.11-1.027-0.444-1.43
						C63.76,55.105,63.29,54.858,62.77,54.81z M62.492,57.841c-0.596-0.055-1.038-0.585-0.982-1.183
						c0.052-0.563,0.516-0.988,1.081-0.988c0.033,0,0.067,0.002,0.101,0.004c0.289,0.027,0.55,0.165,0.736,0.387
						c0.185,0.223,0.272,0.505,0.248,0.794C63.618,57.453,63.098,57.896,62.492,57.841z"/>
				</g>
				<g>
					<circle fill="#FFFFFF" cx="51.333" cy="52.62" r="1.521"/>
					<path fill="#FFC022" d="M51.512,50.672c-1.096-0.097-2.028,0.696-2.127,1.769c-0.099,1.074,0.696,2.028,1.769,2.126
						c0.062,0.006,0.121,0.009,0.181,0.009c1.017,0,1.853-0.764,1.945-1.777c0.048-0.52-0.109-1.028-0.443-1.43
						C52.502,50.967,52.032,50.72,51.512,50.672z M51.233,53.701c-0.596-0.054-1.037-0.584-0.982-1.181
						c0.052-0.563,0.516-0.988,1.08-0.988c0.033,0,0.067,0.001,0.102,0.004c0.288,0.026,0.549,0.164,0.735,0.387
						c0.185,0.224,0.272,0.505,0.247,0.795C52.36,53.316,51.839,53.758,51.233,53.701z"/>
				</g>
				<g>
					<circle fill="#FFFFFF" cx="110.125" cy="61.902" r="1.522"/>
					<path fill="#FFC022" d="M110.304,59.953c-1.096-0.1-2.028,0.697-2.126,1.769c-0.048,0.521,0.11,1.027,0.444,1.43
						c0.334,0.402,0.805,0.649,1.325,0.698c0.061,0.005,0.121,0.009,0.181,0.009c1.017,0,1.853-0.764,1.947-1.778
						c0.047-0.52-0.11-1.027-0.443-1.429C111.295,60.249,110.825,60.002,110.304,59.953z M110.024,62.984
						c-0.288-0.027-0.549-0.165-0.735-0.387c-0.186-0.224-0.273-0.506-0.247-0.794c0.052-0.563,0.516-0.988,1.08-0.988
						c0.033,0,0.066,0.001,0.101,0.004c0.289,0.027,0.55,0.165,0.736,0.388c0.185,0.224,0.272,0.505,0.247,0.795
						C111.153,62.597,110.637,63.04,110.024,62.984z"/>
				</g>
				<circle fill="#72BDBA" cx="99.323" cy="36.291" r="1.521"/>
				<circle fill="#FFC022" cx="127.861" cy="61.494" r="1.521"/>
				<circle fill="#72BDBA" cx="70.089" cy="42.705" r="1.521"/>
				<circle fill="#9C9DA1" cx="59.824" cy="87.927" r="1.521"/>
				<circle fill="#9C9DA1" cx="107.429" cy="92.301" r="1.521"/>
				<circle fill="#9C9DA1" cx="124.932" cy="93.909" r="1.521"/>
				<circle fill="#9C9DA1" cx="94.3" cy="91.094" r="1.521"/>
				<g>
					<circle fill="#FFFFFF" cx="50.129" cy="66.765" r="1.521"/>
					<path fill="#72BDBA" d="M50.309,64.818c-1.094-0.098-2.028,0.697-2.127,1.769c-0.048,0.52,0.11,1.027,0.445,1.43
						c0.333,0.401,0.804,0.649,1.324,0.697c0.062,0.005,0.121,0.009,0.181,0.009c1.017,0,1.852-0.764,1.945-1.778
						C52.176,65.87,51.382,64.918,50.309,64.818z M50.03,67.847c-0.289-0.026-0.549-0.164-0.734-0.387
						c-0.187-0.223-0.274-0.505-0.248-0.794c0.051-0.563,0.515-0.987,1.08-0.987c0.033,0,0.067,0.002,0.101,0.004
						c0.597,0.054,1.038,0.584,0.982,1.182C51.156,67.462,50.638,67.904,50.03,67.847z"/>
				</g>
				<g>
					<polygon fill="#72BDBA" points="102.587,27.748 101.779,33.729 107.656,34.516 106.666,30.894 					"/>
					<g>
						<path fill="#FFFFFF" d="M108.708,23.625c-0.163-0.016-0.322-0.022-0.482-0.022c-2.707,0-4.935,2.036-5.182,4.733
							c-0.127,1.385,0.292,2.739,1.184,3.808c0.889,1.07,2.143,1.729,3.528,1.857c0.163,0.017,0.323,0.022,0.482,0.022
							c2.706,0,4.936-2.035,5.184-4.733c0.127-1.386-0.293-2.738-1.184-3.808C111.348,24.412,110.094,23.751,108.708,23.625z"/>
						<path fill="#72BDBA" d="M108.754,23.105c-0.176-0.017-0.354-0.024-0.529-0.024c-2.979,0-5.43,2.238-5.703,5.206
							c-0.14,1.524,0.323,3.012,1.301,4.19c0.979,1.177,2.357,1.902,3.883,2.042c0.176,0.017,0.354,0.025,0.53,0.025
							c2.978,0,5.429-2.239,5.701-5.208C114.229,26.191,111.902,23.395,108.754,23.105z M112.9,29.241
							c-0.224,2.433-2.268,4.261-4.664,4.261c-0.144,0-0.288-0.007-0.435-0.02c-2.578-0.237-4.477-2.521-4.24-5.1
							c0.224-2.433,2.269-4.261,4.665-4.261c0.144,0,0.29,0.007,0.435,0.02C111.239,24.381,113.137,26.662,112.9,29.241z"/>
					</g>
				</g>
				<g>
					<polygon fill="#FFC022" points="130.891,53.77 130.084,59.751 135.961,60.539 134.973,56.917 					"/>
					<g>
						<path fill="#FFFFFF" d="M137.012,49.646c-0.162-0.015-0.322-0.022-0.481-0.022c-2.707,0-4.937,2.036-5.183,4.734
							c-0.127,1.386,0.293,2.738,1.184,3.808c0.891,1.071,2.143,1.73,3.527,1.858c0.164,0.015,0.324,0.022,0.482,0.022
							c2.706,0,4.936-2.036,5.184-4.734c0.127-1.385-0.295-2.738-1.184-3.809C139.651,50.434,138.396,49.774,137.012,49.646z"/>
						<g>
							<path fill="#FFC022" d="M137.061,49.129c-0.178-0.017-0.354-0.024-0.53-0.024c-2.978,0-5.431,2.239-5.702,5.207
								c-0.29,3.148,2.035,5.942,5.184,6.232c0.176,0.016,0.354,0.023,0.529,0.023c2.977,0,5.43-2.238,5.702-5.207
								C142.531,52.213,140.206,49.417,137.061,49.129z M141.205,55.265c-0.224,2.432-2.267,4.26-4.665,4.26
								c-0.144,0-0.288-0.006-0.434-0.02c-2.579-0.236-4.478-2.52-4.24-5.099c0.222-2.433,2.269-4.261,4.664-4.261
								c0.144,0,0.289,0.006,0.435,0.02C139.545,50.403,141.441,52.685,141.205,55.265z"/>
						</g>
					</g>
				</g>
				<g>
					<path fill="#72BDBA" d="M107.893,28.399c0.216-0.156,0.337-0.365,0.36-0.627c0.012-0.129-0.002-0.252-0.045-0.37
						c-0.043-0.118-0.106-0.222-0.193-0.314c-0.087-0.092-0.191-0.167-0.316-0.227c-0.125-0.061-0.263-0.097-0.415-0.111
						c-0.149-0.014-0.292-0.002-0.426,0.033c-0.134,0.037-0.251,0.091-0.352,0.165c-0.102,0.075-0.184,0.166-0.247,0.273
						s-0.101,0.227-0.112,0.355c-0.025,0.262,0.055,0.489,0.24,0.685c-0.157,0.078-0.276,0.184-0.362,0.317
						c-0.086,0.133-0.136,0.288-0.152,0.462c-0.013,0.147,0.001,0.29,0.047,0.426c0.046,0.135,0.116,0.257,0.212,0.364
						c0.096,0.106,0.213,0.194,0.355,0.263c0.141,0.069,0.302,0.112,0.479,0.127c0.179,0.017,0.344,0.004,0.495-0.039
						c0.152-0.042,0.284-0.106,0.397-0.194c0.114-0.087,0.205-0.194,0.275-0.318c0.068-0.125,0.109-0.264,0.124-0.41
						C108.288,28.905,108.167,28.616,107.893,28.399z M107.462,29.307c-0.028,0.055-0.065,0.1-0.11,0.14
						c-0.045,0.037-0.097,0.066-0.152,0.085c-0.057,0.019-0.115,0.027-0.173,0.021c-0.061-0.005-0.118-0.024-0.167-0.053
						c-0.051-0.031-0.095-0.067-0.132-0.112c-0.038-0.045-0.066-0.098-0.083-0.159c-0.019-0.06-0.023-0.123-0.019-0.188
						c0.006-0.068,0.024-0.128,0.052-0.184c0.029-0.054,0.066-0.101,0.111-0.141s0.096-0.069,0.149-0.088
						c0.055-0.02,0.113-0.026,0.175-0.021c0.123,0.012,0.223,0.066,0.301,0.165c0.078,0.099,0.11,0.216,0.098,0.351
						C107.508,29.19,107.491,29.253,107.462,29.307z M107.414,28.011c-0.073,0.061-0.157,0.088-0.253,0.079
						c-0.045-0.004-0.088-0.018-0.125-0.04c-0.039-0.021-0.071-0.05-0.1-0.086c-0.027-0.036-0.048-0.074-0.064-0.117
						c-0.015-0.043-0.019-0.088-0.016-0.134c0.008-0.099,0.05-0.178,0.121-0.24c0.073-0.061,0.156-0.088,0.248-0.081
						c0.096,0.009,0.174,0.05,0.233,0.124c0.06,0.073,0.084,0.16,0.076,0.258C107.528,27.87,107.486,27.949,107.414,28.011z"/>
					<path fill="#72BDBA" d="M110.601,28.829c0.11-0.125,0.195-0.251,0.258-0.374c0.063-0.124,0.101-0.251,0.112-0.384
						c0.013-0.138,0-0.269-0.039-0.393c-0.038-0.123-0.099-0.231-0.184-0.329c-0.085-0.097-0.189-0.176-0.314-0.236
						c-0.125-0.061-0.267-0.099-0.427-0.114c-0.175-0.016-0.343,0.005-0.499,0.063c-0.159,0.058-0.299,0.149-0.422,0.278
						c-0.083,0.086-0.148,0.181-0.199,0.291c-0.05,0.108-0.079,0.206-0.086,0.292c-0.013,0.117,0.015,0.213,0.078,0.289
						c0.064,0.075,0.148,0.119,0.255,0.129c0.099,0.009,0.175-0.015,0.232-0.072c0.054-0.057,0.11-0.147,0.167-0.272
						c0.054-0.111,0.115-0.19,0.18-0.24c0.066-0.05,0.135-0.071,0.207-0.064c0.082,0.007,0.144,0.042,0.193,0.104
						c0.048,0.062,0.068,0.141,0.058,0.236c-0.011,0.13-0.098,0.284-0.26,0.462c-0.164,0.179-0.39,0.404-0.682,0.672
						c-0.204,0.187-0.364,0.336-0.48,0.448c-0.117,0.112-0.18,0.214-0.189,0.306c-0.021,0.231,0.119,0.361,0.417,0.388l1.325,0.122
						c0.354,0.033,0.542-0.066,0.563-0.298c0.021-0.231-0.145-0.362-0.498-0.396l-0.689-0.063c0.195-0.162,0.371-0.312,0.526-0.45
						C110.359,29.086,110.49,28.957,110.601,28.829z"/>
				</g>
				<g>
					<path fill="#FFC022" d="M136.039,54.553c0.217-0.158,0.335-0.366,0.36-0.627c0.011-0.13-0.003-0.252-0.046-0.37
						c-0.043-0.117-0.105-0.222-0.193-0.314c-0.085-0.091-0.191-0.166-0.316-0.227c-0.123-0.06-0.263-0.097-0.412-0.111
						c-0.15-0.014-0.293-0.002-0.426,0.033c-0.135,0.036-0.252,0.091-0.354,0.166c-0.102,0.075-0.184,0.166-0.248,0.272
						c-0.063,0.108-0.1,0.227-0.111,0.355c-0.025,0.263,0.055,0.49,0.239,0.684c-0.155,0.079-0.276,0.184-0.362,0.318
						c-0.084,0.133-0.136,0.288-0.152,0.462c-0.014,0.147,0.002,0.29,0.047,0.425c0.044,0.136,0.115,0.257,0.212,0.364
						c0.095,0.106,0.214,0.195,0.354,0.263c0.142,0.069,0.301,0.111,0.479,0.128c0.179,0.017,0.343,0.002,0.495-0.037
						c0.15-0.042,0.283-0.107,0.396-0.194c0.113-0.088,0.203-0.195,0.273-0.32c0.068-0.125,0.109-0.262,0.125-0.409
						C136.436,55.057,136.315,54.77,136.039,54.553z M135.609,55.461c-0.028,0.055-0.064,0.101-0.11,0.139
						c-0.046,0.039-0.096,0.066-0.153,0.085c-0.056,0.02-0.113,0.027-0.172,0.021c-0.062-0.005-0.117-0.023-0.166-0.052
						c-0.052-0.029-0.094-0.067-0.133-0.112c-0.037-0.046-0.064-0.099-0.083-0.16c-0.018-0.06-0.022-0.123-0.018-0.187
						c0.007-0.068,0.022-0.129,0.052-0.184c0.027-0.054,0.064-0.102,0.109-0.141c0.047-0.038,0.097-0.069,0.15-0.088
						c0.055-0.02,0.112-0.028,0.174-0.021c0.123,0.011,0.223,0.066,0.301,0.165c0.076,0.099,0.109,0.215,0.099,0.352
						C135.654,55.345,135.637,55.406,135.609,55.461z M135.561,54.164c-0.072,0.063-0.156,0.088-0.252,0.08
						c-0.045-0.004-0.088-0.018-0.125-0.04c-0.039-0.022-0.07-0.05-0.1-0.086c-0.027-0.036-0.049-0.075-0.064-0.118
						c-0.016-0.043-0.021-0.088-0.016-0.134c0.008-0.098,0.051-0.178,0.123-0.24c0.071-0.062,0.154-0.088,0.248-0.08
						c0.096,0.008,0.172,0.05,0.233,0.123c0.059,0.074,0.086,0.161,0.077,0.259C135.674,54.025,135.631,54.103,135.561,54.164z"/>
					<path fill="#FFC022" d="M138.748,54.985c0.109-0.126,0.196-0.251,0.258-0.375c0.063-0.123,0.101-0.25,0.112-0.382
						c0.013-0.139,0-0.269-0.039-0.393c-0.038-0.123-0.099-0.232-0.185-0.329c-0.084-0.097-0.189-0.175-0.313-0.235
						c-0.125-0.06-0.269-0.099-0.426-0.114c-0.177-0.016-0.343,0.004-0.5,0.064c-0.157,0.058-0.297,0.151-0.42,0.279
						c-0.083,0.085-0.149,0.182-0.199,0.291c-0.05,0.108-0.079,0.205-0.087,0.291c-0.012,0.117,0.016,0.213,0.079,0.289
						c0.062,0.076,0.147,0.119,0.255,0.129c0.1,0.008,0.175-0.016,0.23-0.072c0.056-0.057,0.111-0.148,0.168-0.273
						c0.055-0.109,0.115-0.19,0.182-0.24c0.066-0.05,0.135-0.071,0.206-0.065c0.08,0.006,0.146,0.042,0.194,0.104
						c0.047,0.062,0.066,0.14,0.059,0.236c-0.012,0.129-0.1,0.284-0.262,0.462c-0.163,0.179-0.389,0.404-0.68,0.672
						c-0.203,0.187-0.365,0.336-0.481,0.448c-0.117,0.111-0.181,0.214-0.188,0.307c-0.021,0.23,0.117,0.361,0.418,0.388l1.323,0.122
						c0.354,0.033,0.541-0.066,0.562-0.297s-0.146-0.363-0.498-0.396l-0.688-0.063c0.195-0.163,0.371-0.311,0.525-0.449
						C138.506,55.242,138.639,55.111,138.748,54.985z"/>
				</g>
				<g>
					<path fill="#FFFFFF" d="M96.168,70.779c-0.061-0.005-0.121-0.009-0.181-0.009c-1.016,0-1.853,0.764-1.947,1.777
						c-0.048,0.521,0.11,1.029,0.444,1.431c0.333,0.402,0.804,0.648,1.325,0.697c0.062,0.005,0.121,0.007,0.181,0.007
						c1.017,0,1.853-0.763,1.946-1.777C98.036,71.831,97.241,70.877,96.168,70.779z"/>
					<path fill="#FFC022" d="M96.208,70.344c-0.074-0.006-0.147-0.01-0.22-0.01c-1.242,0-2.265,0.934-2.378,2.171
						c-0.059,0.637,0.134,1.257,0.542,1.748c0.408,0.49,0.984,0.793,1.62,0.852c0.074,0.006,0.147,0.01,0.221,0.01
						c1.242,0,2.265-0.934,2.378-2.172c0.059-0.636-0.134-1.257-0.542-1.748C97.419,70.706,96.844,70.404,96.208,70.344z
						 M95.991,74.247c-0.046,0-0.095-0.002-0.141-0.006c-0.836-0.076-1.453-0.817-1.376-1.654c0.072-0.79,0.736-1.382,1.513-1.382
						c0.046,0,0.092,0.001,0.141,0.005c0.836,0.077,1.452,0.818,1.375,1.655C97.432,73.654,96.768,74.247,95.991,74.247z"/>
				</g>
			</g>
		</g>
		<g>
			<g>
				<circle fill="#F7F7F7" cx="110.125" cy="144.87" r="1.336"/>
				<path fill="#7A3C7D" d="M110.266,143.034c-1.019-0.076-1.901,0.695-1.977,1.693c-0.077,1.012,0.683,1.897,1.696,1.975
					c0.047,0.004,0.095,0.006,0.142,0.006c0.955,0,1.76-0.747,1.832-1.7c0.039-0.49-0.117-0.965-0.437-1.336
					C111.201,143.3,110.755,143.071,110.266,143.034z M110.061,145.698c-0.46-0.033-0.805-0.435-0.77-0.895
					c0.032-0.432,0.398-0.771,0.832-0.771c0.021,0,0.043,0.002,0.065,0.004c0.222,0.017,0.425,0.119,0.569,0.289
					c0.145,0.168,0.215,0.383,0.198,0.605C110.923,145.387,110.52,145.737,110.061,145.698z"/>
			</g>
			<g>
				<path fill="#F7F7F7" d="M124.217,120.597c-0.733-0.057-1.379,0.496-1.435,1.229c-0.056,0.738,0.498,1.379,1.231,1.436
					c0.735,0.057,1.381-0.495,1.437-1.23S124.955,120.651,124.217,120.597z"/>
				<path fill="#7A3C7D" d="M124.256,120.094c-1.014-0.079-1.897,0.694-1.975,1.694c-0.038,0.49,0.119,0.966,0.439,1.338
					c0.319,0.373,0.765,0.599,1.254,0.636c0.049,0.003,0.096,0.005,0.143,0.005c0.956,0,1.762-0.746,1.833-1.699
					c0.038-0.49-0.117-0.965-0.438-1.338C125.193,120.358,124.746,120.131,124.256,120.094z M124.053,122.76
					c-0.221-0.019-0.424-0.12-0.567-0.289c-0.146-0.169-0.218-0.384-0.198-0.606c0.032-0.433,0.396-0.771,0.83-0.771
					c0.021,0,0.043,0,0.064,0.002c0.221,0.018,0.425,0.12,0.568,0.291c0.146,0.168,0.217,0.385,0.201,0.605
					C124.914,122.446,124.514,122.797,124.053,122.76z"/>
			</g>
			<g>
				<circle fill="#F7F7F7" cx="134.868" cy="135.355" r="1.337"/>
				<path fill="#7A3C7D" d="M135.008,133.522c-1.016-0.078-1.897,0.694-1.975,1.694c-0.078,1.011,0.682,1.896,1.691,1.974
					c0.049,0.004,0.097,0.006,0.145,0.006c0.954,0,1.756-0.746,1.83-1.699c0.037-0.488-0.117-0.965-0.438-1.336
					C135.944,133.786,135.497,133.56,135.008,133.522z M134.803,136.187c-0.457-0.035-0.803-0.438-0.767-0.895
					c0.033-0.432,0.397-0.771,0.83-0.771c0.021,0,0.044,0.002,0.065,0.002c0.221,0.018,0.422,0.121,0.567,0.289
					s0.214,0.383,0.197,0.607C135.661,135.872,135.268,136.224,134.803,136.187z"/>
			</g>
			<g>
				<path fill="#F7F7F7" d="M148.186,122.345c-0.738-0.057-1.381,0.495-1.437,1.229c-0.057,0.738,0.495,1.381,1.232,1.436
					c0.735,0.057,1.379-0.495,1.435-1.23C149.473,123.043,148.918,122.401,148.186,122.345z"/>
				<path fill="#7A3C7D" d="M148.223,121.843c-1.02-0.079-1.9,0.693-1.978,1.693c-0.037,0.492,0.118,0.966,0.438,1.34
					c0.318,0.373,0.767,0.598,1.257,0.636c0.048,0.004,0.096,0.005,0.142,0.005c0.955,0,1.76-0.746,1.833-1.699
					c0.038-0.49-0.118-0.965-0.438-1.338C149.158,122.106,148.713,121.881,148.223,121.843z M148.02,124.51
					c-0.223-0.017-0.426-0.119-0.572-0.288c-0.145-0.169-0.214-0.385-0.198-0.607c0.032-0.433,0.398-0.77,0.831-0.77
					c0.021,0,0.044,0.001,0.066,0.002c0.222,0.016,0.424,0.119,0.568,0.288c0.146,0.169,0.215,0.384,0.198,0.606
					C148.879,124.194,148.479,124.547,148.02,124.51z"/>
			</g>
			<g>
				<circle fill="#F7F7F7" cx="155.504" cy="133.23" r="1.337"/>
				<path fill="#7A3C7D" d="M155.645,131.396c-1.012-0.08-1.896,0.693-1.971,1.694c-0.039,0.489,0.117,0.965,0.438,1.337
					c0.318,0.374,0.766,0.6,1.253,0.637c0.05,0.004,0.097,0.008,0.144,0.008c0.955,0,1.76-0.746,1.832-1.699
					C157.418,132.358,156.658,131.472,155.645,131.396z M155.442,134.06c-0.222-0.016-0.423-0.119-0.569-0.287
					c-0.145-0.168-0.214-0.385-0.197-0.607c0.035-0.432,0.397-0.771,0.828-0.771c0.022,0,0.045,0.002,0.065,0.002
					c0.46,0.036,0.804,0.438,0.771,0.896C156.303,133.745,155.904,134.095,155.442,134.06z"/>
			</g>
			<g>
				<circle fill="#F7F7F7" cx="166.814" cy="120.007" r="1.337"/>
				<path fill="#7A3C7D" d="M166.955,118.173c-1.016-0.076-1.898,0.693-1.975,1.693c-0.037,0.49,0.117,0.965,0.437,1.338
					c0.321,0.373,0.767,0.6,1.259,0.638c0.049,0.003,0.094,0.006,0.143,0.006c0.953,0,1.758-0.745,1.831-1.698
					C168.725,119.135,167.965,118.249,166.955,118.173z M166.752,120.838c-0.224-0.017-0.427-0.119-0.572-0.288
					c-0.144-0.169-0.215-0.385-0.196-0.605c0.032-0.432,0.397-0.771,0.832-0.771c0.019,0,0.042,0,0.063,0.002
					c0.457,0.036,0.801,0.438,0.766,0.895C167.609,120.524,167.213,120.874,166.752,120.838z"/>
			</g>
			<g>
				<path fill="#F7F7F7" d="M176.369,127.098c-0.738-0.055-1.384,0.495-1.438,1.231c-0.057,0.736,0.496,1.38,1.234,1.435
					c0.734,0.056,1.376-0.495,1.434-1.231C177.655,127.797,177.104,127.155,176.369,127.098z"/>
				<path fill="#7A3C7D" d="M176.407,126.597c-1.017-0.078-1.901,0.693-1.978,1.693c-0.039,0.492,0.117,0.967,0.438,1.34
					s0.769,0.6,1.259,0.637c0.047,0.004,0.094,0.006,0.143,0.006c0.953,0,1.757-0.746,1.828-1.699
					C178.178,127.56,177.418,126.674,176.407,126.597z M176.203,129.262c-0.223-0.017-0.426-0.12-0.572-0.289
					c-0.146-0.17-0.217-0.384-0.199-0.606c0.033-0.432,0.4-0.771,0.832-0.771c0.022,0,0.045,0.002,0.066,0.003
					c0.457,0.035,0.801,0.438,0.766,0.896C177.063,128.946,176.664,129.297,176.203,129.262z"/>
			</g>
			<g>
				<circle fill="#F7F7F7" cx="185.586" cy="126.635" r="1.337"/>
				<path fill="#7A3C7D" d="M185.727,124.801c-1.012-0.08-1.897,0.694-1.975,1.692c-0.078,1.013,0.682,1.897,1.693,1.977
					c0.048,0.002,0.094,0.006,0.143,0.006c0.954,0,1.76-0.746,1.834-1.699C187.497,125.765,186.737,124.878,185.727,124.801z
					 M185.521,127.467c-0.458-0.036-0.803-0.437-0.768-0.896c0.032-0.433,0.398-0.771,0.83-0.771c0.021,0,0.043,0.001,0.064,0.002
					c0.458,0.036,0.804,0.437,0.769,0.896C186.383,127.151,185.981,127.502,185.521,127.467z"/>
			</g>
			<g>
				<g>
					<path fill="#959BC1" d="M201.758,94.84c-0.518-3.667-3.91-6.22-7.58-5.702L8.929,115.306c-3.668,0.518-6.222,3.911-5.704,7.579
						L20.21,243.13c0.518,3.666,3.913,6.221,7.579,5.703l185.253-26.168c3.666-0.518,6.22-3.914,5.702-7.578L201.758,94.84z"/>
					<g>
						<g>
							<path fill="#252B30" d="M208.047,89.226c-0.488-3.713-3.895-6.328-7.606-5.839L12.862,108.045
								c-3.714,0.489-6.329,3.894-5.842,7.608l16.007,121.752c0.489,3.715,3.895,6.33,7.608,5.844l187.578-24.66
								c3.715-0.486,6.327-3.895,5.84-7.605L208.047,89.226z"/>
							<g opacity="0.3">
								<path fill="#231F20" d="M207.383,89.313c-0.398-3.031-3.002-5.315-6.052-5.315c-0.267,0-0.538,0.018-0.804,0.054
									L12.95,108.711c-3.341,0.438-5.703,3.514-5.263,6.854l16.005,121.756c0.398,3.027,3,5.313,6.05,5.313
									c0.268,0,0.539-0.018,0.805-0.053l187.576-24.658c1.619-0.213,3.059-1.043,4.053-2.34c0.994-1.293,1.424-2.898,1.213-4.516
									L207.383,89.313z M220.846,214.564c-0.721,0.939-1.767,1.543-2.939,1.695L30.329,240.921
									c-0.194,0.025-0.392,0.039-0.586,0.039c-2.213,0-4.099-1.658-4.391-3.855L9.347,115.346
									c-0.318-2.424,1.395-4.655,3.819-4.976l187.577-24.658c0.196-0.025,0.394-0.039,0.587-0.039c2.213,0,4.1,1.658,4.391,3.858
									l16.004,121.754C221.881,212.46,221.567,213.626,220.846,214.564z"/>
							</g>
							<g>
								<path fill="#BFC9D8" d="M209.043,89.095c-0.509-3.861-3.822-6.774-7.712-6.774c-0.34,0-0.685,0.022-1.024,0.067
									L12.73,107.047c-4.258,0.56-7.267,4.478-6.708,8.735l16.007,121.756c0.508,3.857,3.824,6.773,7.713,6.773
									c0.339,0,0.685-0.023,1.023-0.068l187.577-24.658c2.063-0.271,3.896-1.33,5.162-2.979c1.268-1.65,1.814-3.693,1.543-5.758
									L209.043,89.095z M221.909,215.382c-0.938,1.225-2.299,2.008-3.829,2.211L30.503,242.251
									c-0.253,0.033-0.509,0.051-0.762,0.051c-2.884,0-5.342-2.16-5.719-5.023L8.017,115.521c-0.414-3.158,1.817-6.064,4.977-6.48
									l187.578-24.657c0.25-0.033,0.508-0.05,0.76-0.05c2.885,0,5.342,2.16,5.721,5.024l16.006,121.756
									C223.256,212.64,222.852,214.158,221.909,215.382z"/>
							</g>
						</g>
						<circle fill="#3F4751" cx="107.682" cy="103.572" r="1.646"/>
						
							<radialGradient id="SVGID_1_" cx="375.0938" cy="70.1548" r="111.8052" gradientTransform="matrix(1 0 0 -1 -260.6445 232.6123)" gradientUnits="userSpaceOnUse">
							<stop  offset="0" style="stop-color:#554A85"/>
							<stop  offset="1" style="stop-color:#2F3A5C"/>
						</radialGradient>
						<polygon fill="url(#SVGID_1_)" points="24.106,121.097 37.866,225.761 204.793,203.816 191.036,99.154 						"/>
					</g>
					<g>
						<g>
							
								<rect x="134.874" y="183.646" transform="matrix(0.1311 0.9914 -0.9914 0.1311 302.6982 25.642)" fill="#FF6464" width="3.696" height="3.698"/>
							
								<rect x="152.889" y="171.378" transform="matrix(0.1312 0.9914 -0.9914 0.1312 315.1536 6.9764)" fill="#FFFFFF" width="1.415" height="23.819"/>
							
								<rect x="135.647" y="189.607" transform="matrix(0.1313 0.9913 -0.9913 0.1313 309.2366 30.0091)" fill="#B1CC40" width="3.696" height="3.695"/>
							
								<rect x="146.052" y="186.016" transform="matrix(0.131 0.9914 -0.9914 0.131 316.0986 19.792)" fill="#FFFFFF" width="1.417" height="8.371"/>
							
								<rect x="136.424" y="195.53" transform="matrix(0.1314 0.9913 -0.9913 0.1314 315.7708 34.3727)" fill="#FFD121" width="3.694" height="3.694"/>
							
								<rect x="152.156" y="185.901" transform="matrix(0.1318 0.9913 -0.9913 0.1318 326.4477 18.1467)" fill="#FFFFFF" width="1.415" height="19.088"/>
							
								<rect x="137.142" y="201.668" transform="matrix(0.1311 0.9914 -0.9914 0.1311 322.5223 39.0401)" fill="#C455B9" width="3.694" height="3.694"/>
							
								<rect x="152.876" y="192.005" transform="matrix(0.1318 0.9913 -0.9913 0.1318 333.1233 22.7334)" fill="#FFFFFF" width="1.415" height="19.09"/>
						</g>
					</g>
				</g>
			</g>
			<g opacity="0.2">
				<polygon fill="#FFFFFF" points="44.179,240.367 95.583,234.056 125.258,94.537 73.853,100.845 				"/>
			</g>
		</g>
	</g>
	<g>
		
			<rect x="43.637" y="137.257" transform="matrix(0.9897 -0.1432 0.1432 0.9897 -23.2896 8.6872)" fill="#2E97CC" width="10.133" height="57.75"/>
		
			<rect x="60.481" y="154.516" transform="matrix(0.9897 -0.1429 0.1429 0.9897 -24.1264 11.1438)" fill="#BCD81A" width="10.131" height="38.163"/>
		
			<rect x="76.539" y="163.038" transform="matrix(0.9897 -0.143 0.143 0.9897 -24.4359 13.4874)" fill="#FFC022" width="10.133" height="27.383"/>
		
			<rect x="92.38" y="169.084" transform="matrix(0.9897 -0.1432 0.1432 0.9897 -24.5728 15.7939)" fill="#8A379B" width="10.135" height="19.081"/>
		
			<rect x="106.736" y="153.682" transform="matrix(0.9897 -0.1433 0.1433 0.9897 -23.1801 17.769)" fill="#F44D3B" width="10.129" height="32.337"/>
	</g>
	<g>
		
			<rect x="126.302" y="121.289" transform="matrix(0.9897 -0.1432 0.1432 0.9897 -16.1115 23.8073)" fill="#5A5A7A" width="62.096" height="5.105"/>
		
			<rect x="137.131" y="132.312" transform="matrix(0.9897 -0.1432 0.1432 0.9897 -17.4425 24.7875)" fill="#949AAA" width="52.733" height="2.536"/>
		
			<rect x="128.877" y="140.204" transform="matrix(0.9897 -0.1431 0.1431 0.9897 -18.6009 24.3445)" fill="#949AAA" width="62.097" height="2.536"/>
		<polygon fill="#949AAA" points="130.049,151.91 191.506,143.016 191.871,145.53 130.411,154.417 		"/>
		
			<rect x="130.95" y="154.697" transform="matrix(0.9897 -0.1431 0.1431 0.9897 -20.6519 24.7879)" fill="#949AAA" width="62.1" height="2.538"/>
		
			<rect x="131.999" y="161.927" transform="matrix(0.9897 -0.1432 0.1432 0.9897 -21.6903 25.0316)" fill="#949AAA" width="62.096" height="2.54"/>
		
			<rect x="133.149" y="170.278" transform="matrix(0.9897 -0.1432 0.1432 0.9897 -22.9545 24.1375)" fill="#949AAA" width="46.143" height="2.538"/>
	</g>
	
		<rect x="67.407" y="127.08" transform="matrix(0.9897 -0.1432 0.1432 0.9897 -17.6152 11.9998)" fill="#949AAA" width="14.263" height="2.538"/>
	
		<rect x="77.421" y="196.235" transform="matrix(0.9897 -0.1432 0.1432 0.9897 -27.4156 14.1462)" fill="#5A5A7A" width="14.264" height="2.542"/>
</g>
</svg>
