<?xml version="1.0" encoding="utf-8"?>
<!-- Generator: Adobe Illustrator 15.1.0, SVG Export Plug-In . SVG Version: 6.00 Build 0)  -->
<!DOCTYPE svg PUBLIC "-//W3C//DTD SVG 1.1//EN" "http://www.w3.org/Graphics/SVG/1.1/DTD/svg11.dtd">
<svg version="1.1" id="Capa_1" xmlns="http://www.w3.org/2000/svg" xmlns:xlink="http://www.w3.org/1999/xlink" x="0px" y="0px"
	 width="48.189px" height="48.188px" viewBox="0 0 48.189 48.188" enable-background="new 0 0 48.189 48.188" xml:space="preserve">
<g>
	<g>
		<path fill="#194079" d="M24.095,45.979c-12.067,0-21.885-9.817-21.885-21.885c0-12.067,9.817-21.884,21.885-21.884
			s21.885,9.817,21.885,21.884C45.979,36.161,36.162,45.979,24.095,45.979z"/>
		<path fill="#FFFFFF" d="M24.095,2.835c11.742,0,21.26,9.518,21.26,21.259s-9.518,21.26-21.26,21.26s-21.26-9.519-21.26-21.26
			S12.353,2.835,24.095,2.835 M24.095,1.585c-12.412,0-22.51,10.098-22.51,22.509c0,12.412,10.098,22.51,22.51,22.51
			s22.51-10.098,22.51-22.51C46.604,11.683,36.507,1.585,24.095,1.585L24.095,1.585z"/>
	</g>
	<path fill="#FFFFFF" d="M30.047,25.464l0.716-5.554h-5.496v-3.546c0-1.608,0.447-2.703,2.752-2.703l2.937-0.002V8.691
		c-0.508-0.066-2.251-0.218-4.284-0.218c-4.239,0-7.141,2.588-7.141,7.341v4.096h-4.796v5.554h4.796v14.251h5.737V25.464H30.047z"/>
</g>
</svg>
