<?xml version="1.0" encoding="utf-8"?>
<!-- Generator: Adobe Illustrator 15.1.0, SVG Export Plug-In . SVG Version: 6.00 Build 0)  -->
<!DOCTYPE svg PUBLIC "-//W3C//DTD SVG 1.1//EN" "http://www.w3.org/Graphics/SVG/1.1/DTD/svg11.dtd">
<svg version="1.1" id="Capa_1" xmlns="http://www.w3.org/2000/svg" xmlns:xlink="http://www.w3.org/1999/xlink" x="0px" y="0px"
	 width="53.857px" height="25.512px" viewBox="0 0 53.857 25.512" enable-background="new 0 0 53.857 25.512" xml:space="preserve">
<g>
	<g>
		<g>
			
				<rect x="23.283" y="2.876" transform="matrix(0.707 0.7072 -0.7072 0.707 12.5763 -17.164)" fill="#89AB30" width="7.443" height="7.442"/>
			
				<rect x="23.283" y="15.193" transform="matrix(0.7072 0.707 -0.707 0.7072 21.2813 -13.5538)" fill="#89AB30" width="7.441" height="7.444"/>
		</g>
		
			<rect x="30.785" y="9.036" transform="matrix(0.707 0.7072 -0.7072 0.707 19.1305 -20.6648)" fill="#89AB30" width="7.443" height="7.443"/>
		<g>
			
				<rect x="15.624" y="9.036" transform="matrix(0.707 0.7072 -0.7072 0.707 14.6906 -9.9438)" fill="#89AB30" width="7.443" height="7.441"/>
		</g>
	</g>
	<g>
		<polygon fill="#89AB30" points="36.849,18.998 41.525,23.672 52.441,12.756 41.523,1.84 36.849,6.515 43.112,12.822 		"/>
		<polygon fill="#89AB30" points="17.011,6.515 12.333,1.839 1.417,12.755 12.336,23.672 17.011,18.997 10.745,12.69 		"/>
	</g>
</g>
</svg>
