<?xml version="1.0" encoding="utf-8"?>
<!-- Generator: Adobe Illustrator 15.1.0, SVG Export Plug-In . SVG Version: 6.00 Build 0)  -->
<!DOCTYPE svg PUBLIC "-//W3C//DTD SVG 1.1//EN" "http://www.w3.org/Graphics/SVG/1.1/DTD/svg11.dtd">
<svg version="1.1" id="Capa_1" xmlns="http://www.w3.org/2000/svg" xmlns:xlink="http://www.w3.org/1999/xlink" x="0px" y="0px"
	 width="53.857px" height="25.512px" viewBox="0 0 53.857 25.512" enable-background="new 0 0 53.857 25.512" xml:space="preserve">
<g>
	<g>
		<g>
			
				<rect x="23.283" y="2.876" transform="matrix(-0.707 -0.7072 0.7072 -0.707 41.431 30.3587)" fill="#F26F21" width="7.443" height="7.441"/>
			
				<rect x="23.285" y="15.194" transform="matrix(-0.7072 -0.707 0.707 -0.7072 32.7282 51.3862)" fill="#F26F21" width="7.441" height="7.444"/>
		</g>
		
			<rect x="30.786" y="9.035" transform="matrix(-0.707 -0.7072 0.7072 -0.707 49.882 46.1794)" fill="#F26F21" width="7.443" height="7.442"/>
		<g>
			
				<rect x="15.625" y="9.036" transform="matrix(-0.707 -0.7072 0.7072 -0.707 24.0019 35.4577)" fill="#F26F21" width="7.443" height="7.441"/>
		</g>
	</g>
	<g>
		<polygon fill="#F26F21" points="36.849,18.998 41.525,23.672 52.441,12.756 41.523,1.84 36.849,6.515 43.112,12.822 		"/>
		<polygon fill="#F26F21" points="17.011,6.515 12.333,1.839 1.417,12.755 12.336,23.672 17.011,18.997 10.745,12.69 		"/>
	</g>
</g>
</svg>
