<?xml version="1.0" encoding="utf-8"?>
<!-- Generator: Adobe Illustrator 15.1.0, SVG Export Plug-In . SVG Version: 6.00 Build 0)  -->
<!DOCTYPE svg PUBLIC "-//W3C//DTD SVG 1.1//EN" "http://www.w3.org/Graphics/SVG/1.1/DTD/svg11.dtd">
<svg version="1.1" id="Layer_1" xmlns="http://www.w3.org/2000/svg" xmlns:xlink="http://www.w3.org/1999/xlink" x="0px" y="0px"
	 width="240.945px" height="212.598px" viewBox="56.693 49.606 240.945 212.598"
	 enable-background="new 56.693 49.606 240.945 212.598" xml:space="preserve">
<g>
	<path fill="#66CEDB" d="M160.967,161.979h32.396c0-8.1-5.45-12.741-12.148-12.741c-2.235,0-4.05-2.11-4.05-4.345
		c0-6.698-5.449-12.298-12.149-12.298c-1.173,0-2.324,0.1-3.428,0.424c-0.025,0.682-0.158,1.316-0.519,1.912
		c-0.579,0.96-1.531,1.62-2.628,1.854c-5.577,1.178-9.622,6.759-9.622,12.46C148.818,155.945,154.27,161.979,160.967,161.979z"/>
	<path fill="#EE8B26" d="M184.925,141.481c9.396,1.745,16.537,8.35,16.537,20.499h44.547c2.234,0,4.048,1.814,4.048,4.047
		c0,6.699,5.45,12.149,12.148,12.149h4.048v-13.33c0-2.238,1.815-4.051,4.051-4.051c6.697,0,12.148-5.45,12.148-12.148
		c0-5.701-4.045-10.699-9.623-11.877c-1.098-0.235-2.049-0.91-2.626-1.87c-0.579-0.96-0.734-2.123-0.427-3.2
		c0.357-1.271,0.527-2.32,0.527-3.3c0-6.699-5.45-12.149-12.149-12.149c-0.915,0-1.896,0.147-3.074,0.457
		c-1.247,0.325-2.566,0.049-3.566-0.756c-1.001-0.802-1.562-2.037-1.512-3.317c0.006-0.139,0.045-0.547,0.065-0.681
		c-0.012-6.456-5.461-11.901-12.161-11.901c-2.437,0-4.785,0.72-6.8,2.082c-1.038,0.704-2.35,0.894-3.542,0.489
		c-1.195-0.392-2.135-1.319-2.551-2.506c-1.708-4.883-6.294-8.164-11.408-8.164c-5.115,0-9.699,3.28-11.407,8.164
		c-0.418,1.187-1.359,2.113-2.554,2.506c-1.188,0.405-2.502,0.215-3.542-0.489c-2.013-1.362-4.361-2.082-6.799-2.082
		c-6.699,0-12.149,5.45-12.149,12.148c0,2.236-1.815,4.049-4.05,4.049c-5.385,0-9.913,3.548-11.499,8.412
		c1.117-0.191,2.251-0.016,3.401-0.016C174.913,124.646,183.175,132.081,184.925,141.481z"/>
	<path fill="#F8CF26" d="M84.025,193.192c2.236,0,4.05,1.814,4.05,4.049v13.332h4.049c6.697,0,12.149-5.451,12.149-12.15
		c0-2.236,1.813-4.049,4.048-4.049h85.042c6.697,0,12.148-6.041,12.148-12.739c0-5.702-4.046-10.398-9.621-11.577
		c-0.229-0.052-0.41,0.02-0.622,0.02h-34.301c-11.165,0-20.25-9.674-20.25-20.84c0-7.547,4.282-14.601,10.688-18.068
		c-2.074-3.961-6.169-6.67-10.688-6.67c-5.113,0-9.698,3.208-11.406,8.088c-0.416,1.186-1.357,2.077-2.552,2.469
		c-1.187,0.396-2.499,0.195-3.542-0.51c-2.009-1.36-4.358-2.089-6.795-2.089c-6.698,0-12.148,5.446-12.148,12.144
		c0.016-0.037,0.045,0.186,0.056,0.429c0.053,1.285-0.511,2.515-1.51,3.317c-1.004,0.807-2.325,1.089-3.567,0.757
		c-1.179-0.312-2.159-0.458-3.074-0.458c-6.698,0-12.149,5.451-12.149,12.148c0,0.984,0.167,2.033,0.531,3.301
		c0.308,1.081,0.153,2.24-0.425,3.2c-0.579,0.957-1.531,1.639-2.628,1.869c-5.583,1.179-9.628,6.171-9.628,11.876
		C71.878,187.743,77.328,193.192,84.025,193.192z"/>
	<g>
		<path fill="#FFFFFF" d="M278.324,130.065c0.056-0.563,0.079-1.115,0.079-1.665c0-11.299-9.289-20.422-20.653-20.244
			c-1.878-9.233-10.063-16.202-19.842-16.202c-2.502,0-4.952,0.458-7.248,1.34c-3.653-5.783-10.05-9.439-17.05-9.439
			c-6.997,0-13.396,3.657-17.049,9.439c-1.035-0.396-2.109-0.681-3.198-0.902V75.757c0-11.166-9.085-19.065-20.248-19.065H96.174
			c-11.165,0-20.248,7.899-20.248,19.065v46.917l-5.235-5.24l-5.727,5.726l12.149,12.149c0.79,0.793,1.826,1.191,2.863,1.191
			c1.037,0,2.074-0.397,2.863-1.187l12.15-12.148l-5.726-5.73l-5.236,5.237V75.757c0-6.703,5.45-10.967,12.148-10.967h76.942
			c6.699,0,12.148,4.264,12.148,10.967v16.639c-8.029,1.641-14.354,8.019-15.858,16.098c-7.066,1.315-12.853,6.313-15.291,12.921
			c-3.62-3.237-8.342-5.163-13.396-5.163c-6.998,0-13.396,3.656-17.049,9.439c-2.297-0.882-4.745-1.34-7.248-1.34
			c-9.78,0-17.964,6.968-19.843,16.202c-11.262-0.206-20.652,8.94-20.652,20.242c0,0.551,0.024,1.102,0.081,1.666
			c-7.273,3.15-12.23,10.432-12.23,18.582c0,9.78,6.97,17.961,16.197,19.84v12.558c0,2.235,1.815,5.231,4.05,5.231h8.099
			c9.781,0,17.959-8.098,19.839-16.198h16.607v31.215c0,11.161,9.083,21.43,20.248,21.43h68.841
			c11.168,0,20.247-10.269,20.247-21.43v-42.868l5.237,5.237l5.725-5.731l-12.149-12.149c-1.583-1.582-4.141-1.582-5.725,0
			l-12.149,12.149l5.728,5.727l5.235-5.232v42.868c0,6.698-5.452,13.33-12.148,13.33h-68.843c-6.698,0-12.148-6.632-12.148-13.33
			v-31.215h56.693c11.165,0,20.249-9.083,20.249-20.246c0-4.512-1.562-12.15-4.149-12.15h32.903
			c1.878,8.1,10.063,16.197,19.838,16.197h8.101c2.236,0,4.049-2.996,4.049-5.231v-12.556c9.23-1.879,16.198-10.064,16.198-19.839
			C290.553,140.496,285.596,133.214,278.324,130.065z M160.967,161.979c-6.698,0-12.149-6.043-12.149-12.741
			c0-5.702,4.046-10.995,9.622-12.173c1.098-0.235,2.049-1.061,2.628-2.021c0.361-0.595,0.495-1.341,0.519-2.025
			c1.105-0.324,2.255-0.539,3.429-0.539c6.698,0,12.148,5.431,12.148,12.129c0,2.235,1.816,4.633,4.05,4.633
			c6.698,0,12.148,4.633,12.148,12.731L160.967,161.979L160.967,161.979L160.967,161.979z M195.89,169.758
			c5.577,1.179,9.622,6.472,9.622,12.173c0,6.698-5.451,12.444-12.148,12.444h-85.041c-2.236,0-4.049,1.816-4.049,4.049
			c0,6.698-5.451,12.149-12.149,12.149h-4.049v-13.33c0-2.237-1.814-4.051-4.05-4.051c-6.698,0-12.148-5.449-12.148-12.149
			c0-5.701,4.045-10.698,9.621-11.877c1.098-0.234,2.049-0.91,2.628-1.869c0.58-0.96,0.733-2.118,0.426-3.199
			c-0.361-1.272-0.527-2.322-0.527-3.3c0-6.699,5.451-12.149,12.149-12.149c0.915,0,1.895,0.147,3.073,0.457
			c1.244,0.332,2.563,0.049,3.568-0.757c1-0.802,1.563-2.036,1.51-3.316c-0.009-0.239-0.036-0.469-0.056-0.43
			c0-6.698,5.449-12.148,12.148-12.148c2.438,0,4.786,0.72,6.8,2.082c1.044,0.706,2.352,0.887,3.542,0.491
			c1.195-0.393,2.135-1.321,2.552-2.507c1.708-4.884,6.293-8.164,11.406-8.164c4.517,0,8.615,2.565,10.687,6.524
			c-6.407,3.462-10.687,10.813-10.687,18.36c0,11.165,9.084,20.839,20.25,20.839h34.301
			C195.48,170.077,195.662,169.709,195.89,169.758z M270.305,160.795c-2.236,0-4.049,1.814-4.049,4.051v13.33h-4.049
			c-6.698,0-12.148-5.451-12.148-12.149c0-2.235-1.815-4.048-4.049-4.048h-44.547c0-12.15-7.138-18.754-16.537-20.5
			c-1.751-9.398-10.012-16.833-19.908-16.833c-1.15,0-2.285-0.028-3.401,0.162c1.587-4.863,6.111-8.482,11.5-8.482
			c2.235,0,4.048-1.851,4.048-4.087c0-6.698,5.452-12.168,12.148-12.168c2.439,0,4.788,0.708,6.801,2.069
			c1.039,0.705,2.351,0.891,3.542,0.485c1.196-0.392,2.136-1.323,2.551-2.511c1.709-4.879,6.294-8.163,11.408-8.163
			c5.116,0,9.699,3.279,11.409,8.159c0.414,1.187,1.357,2.114,2.551,2.508c1.191,0.405,2.505,0.214,3.544-0.49
			c2.012-1.36,4.36-2.083,6.799-2.083c6.698,0,12.148,5.451,12.156,11.896c-0.021,0.138-0.061,0.544-0.064,0.682
			c-0.054,1.283,0.511,2.515,1.51,3.318c1,0.805,2.323,1.081,3.567,0.755c1.183-0.311,2.16-0.458,3.075-0.458
			c6.698,0,12.148,5.451,12.148,12.15c0,0.983-0.173,2.032-0.531,3.3c-0.308,1.082-0.152,2.24,0.426,3.199
			c0.578,0.959,1.53,1.64,2.627,1.871c5.578,1.191,9.622,6.183,9.622,11.889C282.452,155.345,277.002,160.795,270.305,160.795z"/>
		<rect x="233.859" y="59.554" fill="#FFFFFF" width="8.099" height="8.1"/>
		<rect x="250.057" y="59.554" fill="#FFFFFF" width="8.101" height="8.1"/>
		<rect x="266.255" y="59.554" fill="#FFFFFF" width="8.1" height="8.1"/>
		<rect x="79.975" y="245.837" fill="#FFFFFF" width="8.101" height="8.099"/>
		<rect x="96.174" y="245.837" fill="#FFFFFF" width="8.1" height="8.099"/>
		<rect x="112.373" y="245.837" fill="#FFFFFF" width="8.1" height="8.099"/>
	</g>
</g>
</svg>
