<?xml version="1.0" encoding="utf-8"?>
<!-- Generator: Adobe Illustrator 15.1.0, SVG Export Plug-In . SVG Version: 6.00 Build 0)  -->
<!DOCTYPE svg PUBLIC "-//W3C//DTD SVG 1.1//EN" "http://www.w3.org/Graphics/SVG/1.1/DTD/svg11.dtd">
<svg version="1.1" id="Capa_1" xmlns="http://www.w3.org/2000/svg" xmlns:xlink="http://www.w3.org/1999/xlink" x="0px" y="0px"
	 width="260.787px" height="260.787px" viewBox="0 0 260.787 260.787" enable-background="new 0 0 260.787 260.787"
	 xml:space="preserve">
<g>
	<g>
		<g>
			<path fill="#A7766D" d="M255.44,109.544c-4.066,10.58-14.328,18.08-26.34,18.08c-12.033,0-22.293-7.5-26.342-18.08H255.44z"/>
			<g>
				<path fill="#E5E5E5" d="M202.312,105.708c-0.465-0.242-0.645-0.818-0.395-1.285l26.34-50.248c0.33-0.627,1.354-0.627,1.686,0
					l26.342,50.248c0.246,0.467,0.063,1.043-0.402,1.285c-0.461,0.243-1.036,0.063-1.282-0.4l-25.498-48.639L203.6,105.308
					c-0.173,0.326-0.498,0.509-0.841,0.509C202.606,105.815,202.456,105.782,202.312,105.708z"/>
			</g>
			<g>
				<path fill="#E5E5E5" d="M228.146,107.201V54.617c0-0.526,0.428-0.948,0.955-0.948c0.523,0,0.951,0.421,0.951,0.948v52.584
					c0,0.526-0.428,0.952-0.951,0.952C228.573,108.153,228.146,107.728,228.146,107.201z"/>
			</g>
			<rect x="198.999" y="104.864" fill="#FED018" width="60.194" height="4.678"/>
			<path fill="#E6DAC4" d="M229.101,104.864v22.766c-12.033,0-22.293-7.498-26.342-18.082h-3.754v-4.684H229.101z"/>
		</g>
		<g>
			<path fill="#A7766D" d="M125.132,109.544c-4.066,10.58-14.33,18.08-26.34,18.08c-12.034,0-22.292-7.5-26.343-18.08H125.132z"/>
			<g>
				<path fill="#E5E5E5" d="M72.009,105.708c-0.467-0.242-0.646-0.818-0.404-1.285l26.348-50.248c0.326-0.627,1.352-0.627,1.684,0
					l26.341,50.248c0.244,0.467,0.063,1.043-0.404,1.285c-0.459,0.243-1.038,0.063-1.276-0.4L98.794,56.669l-25.501,48.639
					c-0.166,0.326-0.498,0.509-0.84,0.509C72.301,105.815,72.147,105.782,72.009,105.708z"/>
			</g>
			<g>
				<path fill="#E5E5E5" d="M97.845,107.201V54.617c0-0.526,0.421-0.948,0.947-0.948c0.524,0,0.951,0.421,0.951,0.948v52.584
					c0,0.526-0.427,0.952-0.951,0.952C98.265,108.153,97.845,107.728,97.845,107.201z"/>
			</g>
			<rect x="68.693" y="104.864" fill="#FED018" width="60.196" height="4.678"/>
			<path fill="#E6DAC4" d="M98.792,104.864v22.766c-12.034,0-22.292-7.498-26.343-18.082h-3.754v-4.684H98.792z"/>
		</g>
		<path fill="#835C55" d="M194.063,49.057c6.066,3.751,12.014,7.372,19.334,7.11c8.203-0.295,14.273-2.963,21.484-7.501v5.424
			c-7.211,4.547-14.529,8.16-21.894,8.888c-4.998,0.493-12.541-0.689-18.928-4.214c-8.867-4.889-20.004-10.268-29.838-10.464v-9.706
			C174.058,38.791,185.372,43.728,194.063,49.057z"/>
		<circle fill="#F7C216" cx="234.632" cy="50.839" r="5.53"/>
		<path fill="#835C55" d="M134.386,49.057c-6.069,3.751-12.021,7.372-19.342,7.11c-8.201-0.295-14.271-2.963-21.481-7.501v5.424
			c7.212,4.547,14.532,8.16,21.892,8.888c5,0.493,12.541-0.689,18.932-4.214c8.867-4.889,20.003-10.268,29.839-10.464v-9.706
			C154.388,38.791,143.071,43.728,134.386,49.057z"/>
		<path fill="#F7C216" d="M93.259,45.308c-3.053,0-5.53,2.475-5.53,5.532c0,3.055,2.478,5.533,5.53,5.533
			c3.056,0,5.533-2.479,5.533-5.533C98.792,47.782,96.314,45.308,93.259,45.308z"/>
		<rect x="157.202" y="21.76" fill="#A7766D" width="14.038" height="143.805"/>
		<path fill="#F7C216" d="M164.224,33.32c6.574,0,11.904,5.332,11.904,11.908s-5.33,11.909-11.904,11.909
			c-6.576,0-11.908-5.334-11.908-11.909C152.315,38.652,157.647,33.32,164.224,33.32z"/>
		<path fill="#F8D915" d="M164.224,4.299c5.02,0,9.088,4.068,9.088,9.089c0,5.019-4.068,9.091-9.088,9.091
			c-5.018,0-9.092-4.072-9.092-9.091C155.132,8.367,159.206,4.299,164.224,4.299z"/>
		<path fill="#F8D915" d="M164.224,39.655c3.074,0,5.574,2.494,5.574,5.573c0,3.08-2.498,5.573-5.574,5.573
			c-3.08,0-5.578-2.493-5.578-5.573C158.646,42.149,161.144,39.654,164.224,39.655z"/>
		<rect x="125.68" y="165.564" fill="#8B625A" width="77.089" height="21.478"/>
		<rect x="94.294" y="187.04" fill="#A7766D" width="139.862" height="15.969"/>
		<rect x="125.68" y="169.695" fill="#F7C216" width="77.089" height="5.229"/>
		<path fill="#F7C216" d="M153.658,22.478c0-2.139,1.73-3.872,3.865-3.872h13.396c2.138,0,3.869,1.733,3.869,3.872l0,0
			c0,2.135-1.731,3.865-3.869,3.865h-13.395C155.39,26.343,153.658,24.612,153.658,22.478L153.658,22.478z"/>
		<rect x="125.68" y="165.564" fill="#E6DAC4" width="38.544" height="21.478"/>
	</g>
	<g>
		<path fill="#DEDEDE" d="M164.009,84.939h43.287c0-11.928-9.703-21.648-21.656-21.648
			C173.718,63.291,164.009,73.012,164.009,84.939z"/>
		<path fill="#E5E5E5" d="M44.963,88.338v146.51h76.519c0,11.922,9.716,21.641,21.639,21.641c11.945,0,21.66-9.719,21.66-21.641
			h-0.02V88.338c0-6.933,2.826-13.245,7.363-17.783c4.541-4.538,10.854-7.364,17.762-7.364H70.091
			c-6.929,0-13.222,2.826-17.764,7.364C47.771,75.093,44.963,81.406,44.963,88.338z"/>
		<path fill="#F2F2F2" d="M1.594,231.448h119.795c0,6.902,2.804,13.188,7.36,17.708c4.537,4.519,10.852,7.332,17.762,7.332H26.718
			c-6.937,0-13.225-2.813-17.763-7.332C4.397,244.636,1.594,238.351,1.594,231.448z"/>
		<rect x="55.118" y="90.133" fill="#CDCCCC" width="99.926" height="6.704"/>
		<rect x="55.118" y="102.509" fill="#CDCCCC" width="99.926" height="6.705"/>
		<rect x="55.118" y="114.886" fill="#CDCCCC" width="99.926" height="6.705"/>
		<rect x="55.118" y="127.265" fill="#CDCCCC" width="99.926" height="6.706"/>
		<rect x="55.118" y="139.644" fill="#CDCCCC" width="99.926" height="6.705"/>
		<rect x="55.118" y="152.019" fill="#CDCCCC" width="99.926" height="6.706"/>
		<rect x="55.118" y="164.396" fill="#CDCCCC" width="99.926" height="6.705"/>
		<rect x="55.118" y="176.773" fill="#CDCCCC" width="99.926" height="6.706"/>
		<rect x="123.841" y="203.593" fill="#CDCCCC" width="31.203" height="7.223"/>
		<path opacity="0.3" fill="#FFFFFF" enable-background="new    " d="M164.712,193.876V88.338c0-6.933,2.824-13.245,7.365-17.783
			c4.532-4.538,10.85-7.364,17.758-7.364H70.042c-6.929,0-13.226,2.826-17.762,7.364c-1.856,1.837-3.402,3.962-4.6,6.292
			L164.712,193.876z"/>
		<path fill="#FED018" d="M56.868,209.433c0,10.252,8.316,18.564,18.565,18.564c4.292,0,8.252-1.463,11.389-3.92
			c3.633-2.805,6.188-6.949,6.951-11.697c0.144-0.948,0.226-1.937,0.226-2.947c0-10.253-8.312-18.568-18.564-18.568
			c-1.998,0-3.92,0.309-5.731,0.93c-4.499,1.443-8.254,4.58-10.502,8.664C57.714,203.12,56.868,206.171,56.868,209.433z
			 M61.51,209.433c0-2.104,0.474-4.086,1.321-5.859c2.023-4.396,6.272-7.529,11.307-7.982c0.432-0.064,0.864-0.084,1.297-0.084
			c7.406,0,13.45,5.756,13.883,13.057c0.045,0.29,0.045,0.577,0.045,0.868c0,4.825-2.437,9.058-6.171,11.552
			c-2.208,1.505-4.887,2.376-7.757,2.376C67.762,223.359,61.51,217.128,61.51,209.433z"/>
		<path fill="#FED018" d="M63.678,209.433c0,6.5,5.261,11.775,11.757,11.775c2.208,0,4.271-0.615,6.043-1.689
			c3.423-2.041,5.736-5.794,5.736-10.086c0-1.053-0.144-2.064-0.413-3.014c-1.219-4.683-5.239-8.209-10.17-8.705
			c-0.391-0.043-0.783-0.063-1.195-0.063c-4.95,0-9.158,3.057-10.894,7.385C63.987,206.399,63.678,207.887,63.678,209.433z"/>
		<path fill="#F6E217" d="M83.191,220.984l3.632,3.095c3.633-2.806,6.188-6.951,6.951-11.697l-4.457-3.813
			c0.045,0.288,0.045,0.575,0.045,0.867C89.362,214.259,86.927,218.489,83.191,220.984z"/>
		<path fill="#F6E217" d="M64.541,205.038l16.938,14.48c3.423-2.041,5.736-5.794,5.736-10.086c0-1.053-0.144-2.064-0.413-3.014
			l-10.17-8.705c-0.391-0.043-0.783-0.063-1.195-0.063C70.483,197.652,66.276,200.708,64.541,205.038z"/>
		<path fill="#F6E217" d="M59.199,200.458l3.632,3.116c2.023-4.395,6.272-7.53,11.307-7.983l-4.435-3.799
			C65.203,193.237,61.449,196.374,59.199,200.458z"/>
		<g>
			<path fill="#F4D915" d="M15.621,208.739l5.025,14.641l0.02,0.039v-0.039l-0.02-12.404c0.02-0.567,0.438-1.027,0.985-1.027
				c0.535,0,0.974,0.46,0.974,1.027l0.016,12.404l5.041-14.658c-2.194-0.881-2.657-4.104-2.71-6.469h-6.618
				C18.279,204.616,17.839,207.841,15.621,208.739z"/>
			<rect x="13.722" y="92.233" fill="#4D4448" width="15.837" height="64.512"/>
			<polygon fill="#4D4448" points="16,206.027 27.396,206.027 29.56,161.65 13.722,161.65 			"/>
			<rect x="13.722" y="156.745" fill="#F3B818" width="15.837" height="4.904"/>
			<rect x="13.729" y="87.329" fill="#F3B818" width="15.824" height="4.909"/>
			<path fill="#D2B919" d="M20.646,210.907l0.02,11.588h1.955l-0.016-11.588c0-0.529-0.438-0.96-0.974-0.96
				C21.085,209.947,20.665,210.378,20.646,210.907z"/>
			<path fill="#4D4448" d="M13.729,87.329h15.824c0-4.375-3.547-7.926-7.922-7.926C17.259,79.403,13.729,82.954,13.729,87.329z"/>
			<path fill="#FED018" d="M22.293,127.974c0,1.458,1.185,2.646,2.642,2.646l0,0c1.462,0,2.646-1.188,2.646-2.646V92.774
				c0-1.46-1.185-2.642-2.646-2.642l0,0c-1.457,0-2.642,1.182-2.642,2.642V127.974L22.293,127.974z"/>
			<path opacity="0.5" fill="#1D1D1B" enable-background="new    " d="M16.014,206.027h1.794c-0.396,1.218-1.057,2.248-2.171,2.705
				l5.014,14.646l0.02,0.039v-0.928h0.973V79.403c-4.375,0-7.899,3.551-7.899,7.926v74.326L16.014,206.027z"/>
		</g>
	</g>
</g>
</svg>
