<?xml version="1.0" encoding="utf-8"?>
<!-- Generator: Adobe Illustrator 15.1.0, SVG Export Plug-In . SVG Version: 6.00 Build 0)  -->
<!DOCTYPE svg PUBLIC "-//W3C//DTD SVG 1.1//EN" "http://www.w3.org/Graphics/SVG/1.1/DTD/svg11.dtd">
<svg version="1.1" id="Capa_1" xmlns="http://www.w3.org/2000/svg" xmlns:xlink="http://www.w3.org/1999/xlink" x="0px" y="0px"
	 width="48.189px" height="48.188px" viewBox="0 0 48.189 48.188" enable-background="new 0 0 48.189 48.188" xml:space="preserve">
<g>
	<g>
		<path fill="#0174A0" d="M24.095,45.978c-12.067,0-21.885-9.817-21.885-21.885c0-12.066,9.817-21.882,21.885-21.882
			s21.885,9.816,21.885,21.882C45.979,36.16,36.162,45.978,24.095,45.978z"/>
		<path fill="#FFFFFF" d="M24.095,2.836c11.742,0,21.26,9.517,21.26,21.257c0,11.743-9.518,21.26-21.26,21.26
			s-21.26-9.517-21.26-21.26C2.835,12.353,12.353,2.836,24.095,2.836 M24.095,1.586c-12.412,0-22.51,10.097-22.51,22.507
			c0,12.412,10.098,22.51,22.51,22.51s22.51-10.098,22.51-22.51C46.604,11.683,36.507,1.586,24.095,1.586L24.095,1.586z"/>
	</g>
	<g>
		<rect x="11.132" y="18.658" fill="#FFFFFF" width="5.705" height="17.042"/>
		<path fill="#FFFFFF" d="M13.985,16.331h-0.039c-1.912,0-3.152-1.309-3.152-2.946c0-1.671,1.276-2.944,3.227-2.944
			c1.951,0,3.15,1.273,3.189,2.944C17.21,15.022,15.972,16.331,13.985,16.331"/>
		<path fill="#FFFFFF" d="M37.396,35.7h-5.702v-9.117c0-2.291-0.826-3.854-2.887-3.854c-1.579,0-2.515,1.055-2.926,2.072
			c-0.153,0.364-0.19,0.872-0.19,1.381V35.7h-5.7c0,0,0.074-15.442,0-17.042h5.701v2.417c0.758-1.162,2.109-2.817,5.138-2.817
			c3.753,0,6.566,2.435,6.566,7.671V35.7z"/>
	</g>
</g>
</svg>
