<?xml version="1.0" encoding="utf-8"?>
<!-- Generator: Adobe Illustrator 15.1.0, SVG Export Plug-In . SVG Version: 6.00 Build 0)  -->
<!DOCTYPE svg PUBLIC "-//W3C//DTD SVG 1.1//EN" "http://www.w3.org/Graphics/SVG/1.1/DTD/svg11.dtd">
<svg version="1.1" id="Capa_1" xmlns="http://www.w3.org/2000/svg" xmlns:xlink="http://www.w3.org/1999/xlink" x="0px" y="0px"
	 width="382.676px" height="93.543px" viewBox="0 0 382.676 93.543" enable-background="new 0 0 382.676 93.543"
	 xml:space="preserve">
<g>
	<path fill="#6D6E70" d="M49.88,67.482l-0.959-2.752C40.897,41.703,35.4,30.158,25.869,26.836
		c-4.748-1.654-10.252-1.074-17.268,1.885c-1.385,3.202-2.406,6.595-3.027,10.127c5.874-2.941,10.449-4.389,13.998-4.389
		c1.275,0,2.422,0.183,3.454,0.543c7.158,2.497,12.838,17.957,21.342,43.125l2.67,7.891l48.175-67.389V3.983L49.88,67.482z"/>
	<path fill="#231F20" d="M120.532,54.378h2.493c0.925,0,1.407,0.062,1.65,0.108v10.263h-14.887V54.486
		c0.242-0.047,0.721-0.108,1.646-0.108h2.493v-2.503h-10.319v2.503h1.849c0.922,0,1.403,0.062,1.65,0.108v24.94
		c-0.22,0.052-0.696,0.134-1.65,0.134h-1.849v2.492h10.319v-2.492h-2.493c-0.955,0-1.426-0.082-1.646-0.134V67.344h14.887v12.084
		c-0.223,0.053-0.697,0.135-1.65,0.135h-2.493v2.492h10.32v-2.492h-1.85c-0.953,0-1.43-0.082-1.648-0.135V54.486
		c0.245-0.047,0.726-0.108,1.648-0.108h1.85v-2.503h-10.32V54.378z"/>
	<path fill="#231F20" d="M144.01,51.874h-11.689v2.503h1.849c0.922,0,1.401,0.051,1.647,0.1V79.43
		c-0.227,0.055-0.695,0.133-1.647,0.133h-1.849v2.492h11.689c8.429,0,14.543-6.343,14.543-15.09
		C158.553,58.223,152.438,51.874,144.01,51.874 M138.5,54.471h5.421c6.924,0,11.949,5.258,11.949,12.494
		c0,7.245-5.025,12.503-11.949,12.503H138.5V54.471z"/>
	<path fill="#231F20" d="M185.793,79.141c-0.229,0.18-0.644,0.42-1.621,0.42c-0.5,0-1.393-0.262-2.229-0.765
		c1.938-1.662,2.986-3.799,2.986-6.147c0-1.885-0.633-3.896-1.728-5.521c-0.009-0.017-0.016-0.024-0.025-0.041
		c0.43-0.098,0.845-0.252,1.24-0.457c1.058-0.539,1.69-1.588,1.69-2.784c0-0.365-0.063-0.763-0.188-1.199l-0.073-0.184
		c-0.237-0.474-0.681-0.762-1.177-0.762c-0.721,0-1.296,0.574-1.296,1.294l0.011,0.269l0.059,0.139
		c0.028,0.125,0.076,0.313,0.076,0.4c0,0.1,0,0.336-0.327,0.51c-0.528,0.272-1.277,0.272-2.111,0.217
		c-0.35-0.031-0.698-0.053-1.048-0.053c-0.627,0-1.566,0.063-2.533,0.582c-1.061,0.539-1.688,1.594-1.688,2.811
		c0,0.365,0.06,0.73,0.203,1.207c0.179,0.545,0.663,0.9,1.238,0.9c0.714,0,1.295-0.569,1.295-1.279l-0.016-0.534l-0.108-0.106
		c-0.021-0.095-0.021-0.141-0.021-0.166c0-0.176,0.036-0.358,0.338-0.516c0.259-0.139,0.555-0.189,0.831-0.215
		c0.271,0,0.654,0.359,1.231,1.16c0.905,1.256,1.447,2.869,1.447,4.328c0,1.635-0.779,3.141-2.213,4.322
		c-0.005-0.005-0.016-0.021-0.016-0.025l-9.957-12.576c-0.802-1.018-1.247-2.215-1.247-3.375c0-2.328,1.553-3.947,3.779-3.947
		c2.256,0,3.376,0.965,4.169,1.918c0.321,0.373,0.373,0.473,0.404,1.529l0.077,2.165h2.585l-0.231-8.188l-2.588,0.122l0.034,1.162
		c-1.044-0.709-2.451-1.305-4.45-1.305c-3.723,0-6.429,2.748-6.429,6.543c0,1.563,0.587,3.215,1.658,4.676
		c-4.146,0.021-7.154,3.438-7.154,8.146c0,4.824,4.45,8.336,10.586,8.336c3.166,0,6.024-0.616,8.337-1.793
		c1.415,1.283,3.1,1.979,4.829,1.979c0.154,0,3.807-0.021,3.807-2.086C188.229,79.155,186.894,78.344,185.793,79.141
		 M167.852,68.266c0.945,0,2.299,0.405,2.548,0.698l7.396,9.369c-1.824,0.808-4.06,1.228-6.539,1.228
		c-4.582,0-7.903-2.414-7.903-5.744C163.353,70.545,165.205,68.266,167.852,68.266"/>
	<path fill="#231F20" d="M214.028,78.77l-8.623-24.058c-0.264-0.728-0.391-1.244-0.391-1.537c0-0.719-0.58-1.301-1.301-1.301h-0.494
		c-0.523,0-1.002,0.329-1.219,0.868l-9.375,26.201c-0.162,0.451-0.219,0.617-1.508,0.617H190v2.492h8.479v-2.492h-1.863
		c-0.727,0-1.184-0.026-1.467-0.057l2.264-6.275h11.793l2.277,6.316c-0.176,0.01-0.389,0.016-0.684,0.016h-2.955v2.492h9.396v-2.492
		h-1.848C214.321,79.561,214.264,79.407,214.028,78.77 M198.338,70.639l4.977-13.892l4.969,13.892H198.338z"/>
	<path fill="#231F20" d="M228.45,69.175l-0.822-0.237c-2.486-0.713-5.309-1.526-5.309-2.72c0-1.721,2.137-3.012,4.959-3.012
		c2.006,0,3.598,0.5,4.855,1.538c0.586,0.474,0.803,1.525,0.947,2.59c0,0.7,0.555,1.244,1.264,1.244
		c0.703,0,1.254-0.544,1.254-1.279l-0.246-6.595h-2.51l0.047,1.394c-1.582-0.996-3.428-1.48-5.611-1.48
		c-4.43,0-7.645,2.355-7.645,5.602c0,3.249,3.76,4.34,7.393,5.389l0.564,0.164c3.656,1.063,6.668,2.152,6.668,4.691
		c0,1.742-2.818,3.1-6.43,3.1c-2.4,0-3.701-0.438-5.359-1.782c-0.598-0.494-1.307-1.363-1.307-2.699v-1.31H218.7l-0.301,8.283h2.5
		l0.08-2.102c2.264,1.824,4.314,2.197,6.85,2.197c5.281,0,9.111-2.394,9.111-5.688C236.94,71.655,231.633,70.105,228.45,69.175"/>
	<path fill="#231F20" d="M249.002,60.616c-5.875,0-10.131,4.528-10.131,10.764c0,6.238,4.256,10.771,10.131,10.771
		c5.859,0,10.121-4.532,10.121-10.771C259.124,65.145,254.86,60.616,249.002,60.616 M249.002,79.563
		c-4.385,0-7.447-3.361-7.447-8.183c0-4.815,3.064-8.173,7.447-8.173c4.379,0,7.438,3.355,7.438,8.173
		C256.438,76.2,253.381,79.563,249.002,79.563"/>
	<path fill="#231F20" d="M278.006,77.43c-1.605,1.354-3.805,2.133-6.041,2.133c-4.594,0-7.807-3.348-7.807-8.142
		c0-4.836,3.039-8.214,7.385-8.214c2.98,0,5.16,1.443,5.16,2.193c0,0.854,0.645,1.5,1.502,1.5c0.854,0,1.5-0.646,1.5-1.5
		c0-2.461-3.938-4.783-8.104-4.783c-5.871,0-10.127,4.538-10.127,10.804c0,6.212,4.41,10.729,10.49,10.729
		c2.848,0,5.66-1.002,7.713-2.75l0.855-0.725l-1.686-1.951L278.006,77.43z"/>
	<path fill="#231F20" d="M287.805,79.432v-18.81l-5.074,0.082v2.502h1.568c0.416,0,0.672,0.021,0.822,0.042v16.184
		c-0.227,0.059-0.705,0.131-1.645,0.131h-1.852v2.492h9.584v-2.492h-1.756C288.508,79.563,288.038,79.489,287.805,79.432"/>
	<path fill="#231F20" d="M285.618,57.409c1,0,1.85-0.847,1.85-1.849c0-0.998-0.85-1.847-1.85-1.847
		c-0.998,0-1.848,0.849-1.848,1.847C283.77,56.563,284.62,57.409,285.618,57.409"/>
	<path fill="#231F20" d="M311.118,79.446c-0.072-0.179-0.186-0.55-0.309-1.259l-0.275-1.653v-8.851c0-4.097-3.014-7.067-7.162-7.067
		c-4.764,0-8.488,2.253-8.488,5.135c0,0.858,0.635,1.5,1.494,1.5c0.857,0,1.496-0.642,1.496-1.5c0-1.196,2.379-2.545,5.549-2.545
		c2.594,0,4.412,1.846,4.426,4.59c0,0.031-0.004,0.119-0.045,0.263c-0.387,1.271-4.234,1.625-5.879,1.772l-0.822,0.078
		c-5.408,0.562-8.15,2.662-8.15,6.255c0,3.469,3.482,5.986,8.283,5.986c2.646,0,5.176-1.26,6.943-3.396
		c0.166,0.987,0.646,3.396,2.643,3.396h0.094l3.139-0.432l-0.246-2.535L311.118,79.446z M307.848,71.333v1.428
		c0,3.214-2.826,6.8-6.613,6.8c-3.248,0-5.607-1.434-5.607-3.396c0-1.321,0.596-3.142,5.736-3.675
		c0.246-0.026,0.533-0.051,0.85-0.072C303.881,72.282,306.127,72.104,307.848,71.333"/>
	<path fill="#231F20" d="M333.079,79.523c-0.129-0.252-0.289-0.733-0.35-1.418l-0.164-1.742V51.797l-5.443,0.078v2.503h1.943
		c0.41,0,0.664,0.021,0.814,0.047v7.956c-2.014-1.16-4.027-1.765-5.914-1.765c-5.262,0-9.076,4.528-9.076,10.764
		c0,6.238,3.896,10.771,9.262,10.771c2.354,0,4.482-0.932,6.102-2.65c0.416,1.645,1.371,2.65,2.58,2.65h0.129l3.021-0.487
		l-0.504-2.58L333.079,79.523z M324.151,79.563c-3.809,0-6.576-3.439-6.576-8.183c0-4.733,2.686-8.173,6.393-8.173
		c1.818,0,3.859,0.775,5.914,2.257v9.591C328.954,77.886,326.819,79.563,324.151,79.563"/>
	<path fill="#231F20" d="M347.161,60.616c-5.869,0-10.125,4.528-10.125,10.764c0,6.238,4.256,10.771,10.125,10.771
		c5.865,0,10.127-4.532,10.127-10.771C357.288,65.145,353.026,60.616,347.161,60.616 M347.161,79.563
		c-4.385,0-7.447-3.361-7.447-8.183c0-4.815,3.063-8.173,7.447-8.173c4.379,0,7.443,3.355,7.443,8.173
		C354.604,76.2,351.54,79.563,347.161,79.563"/>
	<path fill="#231F20" d="M369.317,69.175l-0.828-0.237c-2.486-0.713-5.303-1.526-5.303-2.72c0-1.721,2.127-3.012,4.961-3.012
		c2.002,0,3.584,0.5,4.855,1.538c0.58,0.474,0.795,1.525,0.945,2.59c0,0.7,0.559,1.244,1.254,1.244c0.709,0,1.264-0.544,1.264-1.279
		l-0.242-6.595h-2.52l0.053,1.394c-1.582-0.996-3.422-1.48-5.609-1.48c-4.432,0-7.65,2.355-7.65,5.602
		c0,3.249,3.762,4.34,7.396,5.389l0.564,0.164c3.65,1.063,6.672,2.152,6.672,4.691c0,1.742-2.832,3.1-6.436,3.1
		c-2.4,0-3.705-0.438-5.363-1.782c-0.596-0.494-1.301-1.363-1.301-2.699v-1.31h-2.463l-0.299,8.283h2.492l0.088-2.102
		c2.258,1.824,4.307,2.197,6.846,2.197c5.277,0,9.111-2.394,9.111-5.688C377.805,71.655,372.495,70.105,369.317,69.175"/>
	<path fill="#F26F21" d="M27.343,22.604c10.409,3.628,16.351,14.403,23.897,35.26l31.051-43.495
		C74.078,6.274,62.812,1.273,50.371,1.273c-16.348,0-30.664,8.636-38.685,21.581C17.604,21.064,22.673,20.978,27.343,22.604"/>
	<path fill="#0078BF" d="M21.55,39.235c-2.602-0.905-7.369,0.315-13.969,3.621l-2.611,1.31c-0.051,0.864-0.098,1.729-0.098,2.605
		c0,23.06,17.159,42.088,39.402,45.069L40.12,79.564C34.345,62.467,27.156,41.19,21.55,39.235"/>
	<path fill="#87AB2E" d="M50.371,92.27C75.5,92.27,95.87,71.9,95.87,46.771c0-5.947-1.157-11.622-3.233-16.83L48.133,92.195
		C48.875,92.232,49.619,92.27,50.371,92.27"/>
</g>
</svg>
