<?xml version="1.0" encoding="utf-8"?>
<!-- Generator: Adobe Illustrator 15.1.0, SVG Export Plug-In . SVG Version: 6.00 Build 0)  -->
<!DOCTYPE svg PUBLIC "-//W3C//DTD SVG 1.1//EN" "http://www.w3.org/Graphics/SVG/1.1/DTD/svg11.dtd">
<svg version="1.1" id="Capa_1" xmlns="http://www.w3.org/2000/svg" xmlns:xlink="http://www.w3.org/1999/xlink" x="0px" y="0px"
	 width="229.606px" height="59.527px" viewBox="83.622 19.843 229.606 59.527"
	 enable-background="new 83.622 19.843 229.606 59.527" xml:space="preserve">
<g>
	<g>
		<path fill="#444A52" d="M196.779,69.178l-1.034,0.658c0,0.001,0.022,0.065,0.011,0.088c-0.038,0.075-0.328,0.293-1.216,0.37
			c-0.591,0.05-1.266-0.35-1.978-1.002c1.296-1.135,2.021-2.756,2.053-4.778c0.025-1.634-0.458-2.633-1.04-3.247
			c0.589-0.146,1.057-0.432,1.39-0.863c0.723-0.939,0.5-2.14,0.471-2.277l-1.2,0.25c0.001,0.005,0.147,0.78-0.245,1.285
			c-0.231,0.295-0.636,0.461-1.201,0.491c-2.559,0.134-3.832,1.08-3.783,2.809l1.225-0.036c-0.011-0.374-0.026-1.085,1.446-1.405
			c0.361,0.06,1.751,0.45,1.712,2.975c-0.026,1.67-0.617,2.99-1.692,3.91c-0.881-0.985-1.787-2.225-2.643-3.396
			c-0.6-0.822-1.221-1.673-1.833-2.445c-2.556-3.221-2.987-4.094-2.987-4.834c0-0.599,0.865-2.937,3.314-2.937
			c1.932,0,2.464,0.711,2.582,0.926v2.354h1.225v-4.955h-1.225v1.006c-0.568-0.313-1.391-0.557-2.582-0.557
			c-3.19,0-4.54,2.978-4.54,4.163c0,0.651,0.177,1.275,0.883,2.388c-2.181,0.536-3.723,2.7-3.724,5.455
			c-0.001,1.712,0.517,3.063,1.537,4.015c1.106,1.032,2.783,1.555,4.983,1.555c1.942,0,3.576-0.395,4.85-1.124
			c0.96,0.92,1.918,1.508,2.895,1.508c0.071,0,0.143-0.002,0.215-0.01c1.191-0.106,1.913-0.447,2.207-1.049
			C197.171,69.826,196.819,69.241,196.779,69.178z M182.542,68.689c-0.762-0.711-1.147-1.76-1.147-3.119
			c0-2.071,1.121-4.162,3.262-4.342c0.424,0.581,0.949,1.267,1.606,2.096c0.597,0.751,1.21,1.592,1.804,2.403
			c0.881,1.212,1.743,2.389,2.6,3.369c-1.052,0.536-2.389,0.819-3.977,0.819C184.809,69.916,183.415,69.504,182.542,68.689z"/>
		<g>
			<g>
				<polygon fill="#444A52" points="155.706,54.746 157.903,54.746 157.903,61.277 148.531,61.277 148.531,54.746 150.705,54.746 
					150.705,53.584 145.037,53.584 145.037,54.746 147.111,54.746 147.111,69.796 145.037,69.796 145.037,70.932 150.705,70.932 
					150.705,69.796 148.531,69.796 148.531,62.438 157.903,62.438 157.903,69.796 155.706,69.796 155.706,70.932 161.42,70.932 
					161.42,69.796 159.322,69.796 159.322,54.746 161.42,54.746 161.42,53.584 155.706,53.584 				"/>
				<path fill="#444A52" d="M178.021,58.672c-0.193-0.509-0.449-1.023-0.767-1.538c-0.316-0.514-0.664-0.954-1.042-1.325
					c-0.567-0.568-1.215-1.017-1.943-1.346c-0.729-0.33-1.522-0.559-2.377-0.687c-0.856-0.128-1.828-0.192-2.915-0.192h-6.827v1.162
					h2.382v15.05h-2.382v1.136h6.987c1.136,0,2.134-0.067,2.995-0.204c0.86-0.136,1.61-0.353,2.252-0.652
					c0.642-0.302,1.209-0.698,1.704-1.193c0.576-0.592,1.054-1.248,1.432-1.968c0.379-0.722,0.657-1.489,0.833-2.304
					c0.177-0.814,0.266-1.649,0.266-2.505c0-0.593-0.052-1.187-0.154-1.779C178.362,59.733,178.214,59.182,178.021,58.672z
					 M176.682,65.505c-0.347,0.968-0.848,1.78-1.506,2.439c-0.47,0.469-1.008,0.837-1.617,1.105c-0.609,0.267-1.276,0.458-2,0.572
					c-0.724,0.115-1.515,0.174-2.371,0.174h-3.234v-15.05h3.184c0.931,0,1.743,0.057,2.439,0.167
					c0.695,0.111,1.351,0.31,1.969,0.599c0.617,0.287,1.185,0.69,1.704,1.21c0.453,0.461,0.821,0.985,1.106,1.568
					c0.283,0.584,0.495,1.198,0.636,1.845c0.139,0.646,0.208,1.319,0.208,2.02C177.199,63.422,177.027,64.538,176.682,65.505z"/>
				<path fill="#444A52" d="M207.335,52.784c0,0-0.907-0.867-1.36,0c-0.246,0.473-6.095,17.013-6.095,17.013h-2.173v1.136h5.815
					v-1.136h-2.247l1.839-5.47h6.927l1.901,5.47h-2.148v1.136h5.693v-1.136h-2.126L207.335,52.784z M203.522,63.191l2.987-8.768
					h0.174l2.988,8.768H203.522z"/>
				<path fill="#444A52" d="M224.232,65.277c-0.67-0.462-1.652-0.823-2.949-1.087c-1.297-0.265-2.225-0.515-2.778-0.753
					c-0.557-0.238-0.833-0.724-0.833-1.456c0-0.568,0.215-1.076,0.655-1.525c0.436-0.449,1.084-0.673,1.949-0.673
					c0.626,0,1.18,0.127,1.666,0.384c0.486,0.254,0.873,0.613,1.162,1.078c0.286,0.465,0.443,0.99,0.469,1.574h1.112v-3.976h-1.112
					v1.421h-0.063c-0.756-1.062-1.851-1.594-3.282-1.594c-0.692,0-1.324,0.142-1.896,0.425c-0.572,0.284-1.022,0.677-1.352,1.176
					c-0.331,0.496-0.495,1.059-0.495,1.686c0,1.06,0.323,1.811,0.967,2.251c0.646,0.441,1.603,0.789,2.868,1.044
					s2.197,0.524,2.804,0.809c0.604,0.283,0.905,0.83,0.905,1.637c0,0.46-0.143,0.873-0.426,1.234
					c-0.282,0.361-0.68,0.645-1.188,0.854c-0.511,0.204-1.08,0.307-1.712,0.307c-1.094,0-1.985-0.307-2.676-0.927
					c-0.689-0.616-1.035-1.428-1.035-2.432h-1.159v4.198h1.159v-1.52h0.051c0.739,1.128,1.952,1.693,3.641,1.693
					c0.924,0,1.726-0.143,2.407-0.428c0.686-0.283,1.213-0.689,1.587-1.221c0.374-0.53,0.563-1.151,0.563-1.859
					C225.24,66.512,224.902,65.738,224.232,65.277z"/>
				<path fill="#444A52" d="M237.438,60.333c-0.536-0.573-1.168-1.02-1.897-1.341c-0.728-0.32-1.514-0.481-2.362-0.481
					c-1.104,0-2.107,0.28-3.02,0.84c-0.909,0.56-1.624,1.332-2.142,2.314c-0.519,0.983-0.779,2.069-0.779,3.254
					c0,1.17,0.261,2.245,0.779,3.228c0.518,0.985,1.232,1.755,2.142,2.309c0.911,0.558,1.916,0.835,3.02,0.835
					c1.095,0,2.103-0.277,3.023-0.835c0.922-0.554,1.646-1.32,2.167-2.301c0.523-0.979,0.783-2.058,0.783-3.236
					c0-0.896-0.151-1.741-0.456-2.536C238.393,61.587,237.972,60.905,237.438,60.333z M237.45,66.971
					c-0.239,0.644-0.563,1.198-0.975,1.663c-0.412,0.464-0.9,0.82-1.464,1.069c-0.566,0.252-1.176,0.378-1.833,0.378
					c-0.863,0-1.649-0.224-2.352-0.671c-0.705-0.447-1.254-1.063-1.649-1.849c-0.394-0.784-0.593-1.665-0.593-2.643
					c0-0.738,0.112-1.428,0.341-2.068c0.227-0.639,0.55-1.193,0.976-1.66c0.424-0.471,0.915-0.828,1.476-1.074
					c0.56-0.246,1.161-0.369,1.803-0.369c0.881,0,1.67,0.221,2.37,0.659c0.698,0.44,1.25,1.058,1.654,1.854
					c0.404,0.796,0.604,1.683,0.604,2.659C237.808,65.643,237.689,66.325,237.45,66.971z"/>
				<path fill="#444A52" d="M247.08,70.079c-0.648,0-1.254-0.123-1.814-0.369c-0.56-0.247-1.048-0.602-1.465-1.067
					c-0.412-0.466-0.73-1.007-0.943-1.627c-0.214-0.621-0.32-1.313-0.32-2.078c0-0.987,0.187-1.862,0.563-2.626
					c0.372-0.764,0.896-1.363,1.566-1.79c0.671-0.426,1.443-0.64,2.315-0.64c0.69,0,1.32,0.146,1.894,0.438
					c0.571,0.293,1.031,0.709,1.376,1.251c0.346,0.544,0.52,1.168,0.52,1.875h1.085v-4.602h-1.085v1.592h-0.05
					c-0.421-0.582-0.951-1.022-1.6-1.319c-0.646-0.297-1.377-0.445-2.19-0.445c-0.806,0-1.558,0.155-2.253,0.463
					c-0.696,0.31-1.311,0.76-1.845,1.353c-0.535,0.592-0.942,1.281-1.223,2.068c-0.28,0.785-0.42,1.615-0.42,2.487
					c0,0.891,0.144,1.721,0.433,2.494c0.287,0.773,0.701,1.442,1.24,2.006c0.537,0.563,1.164,0.996,1.875,1.296
					c0.713,0.302,1.503,0.452,2.366,0.452c1.201,0,2.255-0.323,3.158-0.966c0.908-0.644,1.583-1.53,2.026-2.662l-1.063-0.456
					C250.381,69.122,248.999,70.079,247.08,70.079z"/>
				<path fill="#444A52" d="M256.037,55.389c0.279,0,0.521-0.109,0.727-0.323c0.201-0.217,0.303-0.464,0.303-0.746
					c0-0.281-0.099-0.519-0.301-0.715c-0.199-0.194-0.442-0.29-0.729-0.29c-0.277,0-0.515,0.095-0.711,0.284
					c-0.196,0.191-0.293,0.432-0.293,0.721c0,0.29,0.099,0.539,0.301,0.751C255.531,55.281,255.767,55.389,256.037,55.389z"/>
				<polygon fill="#444A52" points="257.066,58.845 253.661,58.845 253.661,60.006 255.758,60.006 255.758,69.796 253.661,69.796 
					253.661,70.932 259.118,70.932 259.118,69.796 257.066,69.796 				"/>
				<path fill="#444A52" d="M270.033,61.931c0-0.682-0.154-1.282-0.465-1.795c-0.308-0.514-0.789-0.914-1.444-1.197
					c-0.653-0.285-1.483-0.428-2.486-0.428c-1.228,0-2.213,0.222-2.958,0.656c-0.746,0.436-1.353,1.142-1.82,2.111l0.988,0.246
					c0.647-1.364,1.88-2.048,3.691-2.048c2.122,0,3.185,0.834,3.185,2.506v2.827c-1.268-0.675-2.48-1.014-3.641-1.014
					c-0.841,0-1.601,0.161-2.278,0.483c-0.68,0.319-1.21,0.77-1.588,1.344c-0.378,0.578-0.567,1.219-0.567,1.927
					c0,0.972,0.357,1.809,1.067,2.507c0.713,0.701,1.572,1.05,2.574,1.05c1.475,0,2.951-0.639,4.434-1.915v1.741h3.285v-1.136
					h-1.976L270.033,61.931L270.033,61.931z M268.723,68.081c-0.345,0.393-0.743,0.739-1.192,1.035
					c-0.448,0.297-0.938,0.534-1.461,0.71c-0.528,0.179-1.009,0.267-1.445,0.267c-0.503,0-0.951-0.108-1.354-0.319
					c-0.399-0.217-0.711-0.512-0.937-0.886c-0.228-0.373-0.341-0.795-0.341-1.265c0-0.839,0.309-1.519,0.926-2.036
					c0.616-0.519,1.412-0.778,2.385-0.778c0.565,0,1.115,0.08,1.648,0.247c0.529,0.164,1.119,0.437,1.771,0.813V68.081z"/>
				<path fill="#444A52" d="M285.02,53.584h-3.642v1.162h2.33v6.544h-0.047c-0.501-0.885-1.154-1.568-1.957-2.053
					c-0.804-0.483-1.71-0.728-2.724-0.728c-1.085,0-2.071,0.274-2.956,0.823c-0.885,0.546-1.581,1.305-2.093,2.277
					c-0.511,0.97-0.765,2.053-0.765,3.246c0,0.865,0.145,1.681,0.432,2.45c0.287,0.772,0.699,1.438,1.234,2.008
					c0.534,0.566,1.169,1.008,1.901,1.319c0.733,0.313,1.507,0.471,2.32,0.471c1.995,0,3.528-0.842,4.606-2.521h0.049v2.348h3.482
					v-1.136h-2.173V53.584z M283.138,67.515c-0.401,0.789-0.952,1.405-1.656,1.844c-0.701,0.44-1.511,0.66-2.426,0.66
					c-0.863,0-1.654-0.224-2.37-0.673c-0.715-0.448-1.275-1.068-1.678-1.861c-0.403-0.794-0.606-1.675-0.606-2.646
					c0-0.962,0.203-1.842,0.61-2.638c0.408-0.797,0.965-1.425,1.669-1.875s1.479-0.679,2.325-0.679c0.873,0,1.674,0.229,2.396,0.679
					c0.726,0.45,1.294,1.076,1.711,1.868c0.415,0.793,0.622,1.675,0.622,2.645C283.736,65.835,283.535,66.726,283.138,67.515z"/>
				<path fill="#444A52" d="M298.514,60.333c-0.535-0.573-1.167-1.02-1.896-1.341c-0.729-0.32-1.516-0.481-2.363-0.481
					c-1.103,0-2.108,0.28-3.019,0.84c-0.911,0.56-1.624,1.332-2.144,2.314c-0.519,0.983-0.777,2.069-0.777,3.254
					c0,1.17,0.259,2.245,0.777,3.228c0.52,0.985,1.232,1.755,2.144,2.309c0.909,0.558,1.915,0.835,3.019,0.835
					c1.095,0,2.104-0.277,3.025-0.835c0.92-0.554,1.643-1.32,2.165-2.301c0.524-0.979,0.783-2.058,0.783-3.236
					c0-0.896-0.152-1.741-0.456-2.536S299.048,60.905,298.514,60.333z M298.528,66.971c-0.24,0.644-0.564,1.198-0.976,1.663
					c-0.413,0.464-0.9,0.82-1.463,1.069c-0.563,0.252-1.175,0.378-1.834,0.378c-0.864,0-1.649-0.224-2.353-0.671
					c-0.704-0.447-1.254-1.063-1.648-1.849c-0.395-0.784-0.593-1.665-0.593-2.643c0-0.738,0.114-1.428,0.341-2.068
					c0.227-0.639,0.55-1.193,0.974-1.66c0.425-0.471,0.918-0.828,1.477-1.074s1.162-0.369,1.803-0.369
					c0.882,0,1.671,0.221,2.371,0.659c0.701,0.44,1.25,1.058,1.654,1.854c0.403,0.796,0.606,1.683,0.606,2.659
					C298.886,65.643,298.766,66.325,298.528,66.971z"/>
				<path fill="#444A52" d="M310.596,65.277c-0.673-0.462-1.657-0.823-2.952-1.087c-1.297-0.265-2.222-0.515-2.777-0.753
					s-0.834-0.724-0.834-1.456c0-0.568,0.219-1.076,0.653-1.525c0.438-0.449,1.089-0.673,1.954-0.673
					c0.623,0,1.179,0.127,1.665,0.384c0.483,0.254,0.872,0.613,1.162,1.078c0.286,0.465,0.444,0.99,0.468,1.574h1.11v-3.976h-1.11
					v1.421h-0.061c-0.759-1.062-1.852-1.594-3.285-1.594c-0.692,0-1.322,0.142-1.896,0.425c-0.572,0.284-1.022,0.677-1.351,1.176
					c-0.332,0.496-0.494,1.059-0.494,1.686c0,1.06,0.32,1.811,0.968,2.251c0.645,0.441,1.601,0.789,2.864,1.044
					c1.267,0.255,2.201,0.524,2.806,0.809c0.604,0.283,0.905,0.83,0.905,1.637c0,0.46-0.143,0.873-0.425,1.234
					c-0.284,0.361-0.681,0.645-1.189,0.854c-0.512,0.204-1.08,0.307-1.715,0.307c-1.091,0-1.983-0.307-2.674-0.927
					c-0.69-0.616-1.035-1.428-1.035-2.432h-1.161v4.198h1.161v-1.52h0.051c0.739,1.128,1.953,1.693,3.643,1.693
					c0.919,0,1.724-0.143,2.408-0.428c0.682-0.283,1.209-0.689,1.585-1.221c0.376-0.53,0.563-1.151,0.563-1.859
					C311.602,66.512,311.267,65.738,310.596,65.277z"/>
			</g>
		</g>
	</g>
	<g>
		<g>
			<path fill="#EB5B25" d="M97.611,30.237c1.293,0,2.567,0.133,3.787,0.397c3.261,0.708,9.241,3.222,12.604,12.052l2.177,5.468
				l14.387-19.414c-4.806-3.988-10.902-6.482-17.636-6.482c-7.871,0-14.942,3.306-19.996,8.563
				C94.469,30.478,96.027,30.237,97.611,30.237z"/>
			<path fill="#88AB2F" d="M116.352,72.796l-3.532,5.001c0.038,0,0.072,0.013,0.111,0.013c15.339,0,27.774-12.438,27.774-27.776
				c0-3.275-0.669-6.375-1.71-9.294L116.352,72.796z"/>
			<path fill="#1A5CA8" d="M109.491,71.928l-9.294-24.408c-0.77-2.017-1.887-2.257-2.43-2.373c-0.107-0.023-0.291-0.053-0.566-0.053
				c-3.215,0-8.79,3.218-11.954,5.864c0.486,14.476,12.003,26.069,26.432,26.723L109.491,71.928z"/>
		</g>
		<path fill="#404D52" d="M140.705,21.405l-25.712,34.693l-4.775-11.999c-2.549-6.688-6.669-8.996-9.795-9.672
			c-3.842-0.833-7.817,0.126-11.391,1.726c-1.554,2.851-2.628,5.965-3.123,9.301c4.014-2.594,9.137-4.913,12.542-4.174
			c0.667,0.146,3.693,0.689,5.261,4.81l9.294,24.407l27.216-38.553L140.705,21.405z"/>
	</g>
</g>
</svg>
