<?xml version="1.0" encoding="utf-8"?>
<!-- Generator: Adobe Illustrator 15.1.0, SVG Export Plug-In . SVG Version: 6.00 Build 0)  -->
<!DOCTYPE svg PUBLIC "-//W3C//DTD SVG 1.1//EN" "http://www.w3.org/Graphics/SVG/1.1/DTD/svg11.dtd">
<svg version="1.1" id="Capa_1" xmlns="http://www.w3.org/2000/svg" xmlns:xlink="http://www.w3.org/1999/xlink" x="0px" y="0px"
	 width="1259.433px" height="51.023px" viewBox="0 26.929 1259.433 51.023" enable-background="new 0 26.929 1259.433 51.023"
	 xml:space="preserve">
<g>
	<path fill="#ED6F26" d="M328.548,28.171l-22.4,22.402l22.4,22.4l22.401-22.4L328.548,28.171z M346.303,50.574l-17.755,17.754
		l-17.756-17.754h0.001l17.755-17.754L346.303,50.574L346.303,50.574z"/>
	<path fill="#ED6F26" d="M316.003,50.574l12.545,12.545l12.545-12.545l-12.545-12.543L316.003,50.574z M336.447,50.574
		L336.447,50.574l-7.899,7.898l-7.897-7.898l0,0l7.897-7.897L336.447,50.574z"/>
	<path fill="#ED6F26" d="M383.307,28.171l-22.401,22.402l22.4,22.4l22.4-22.4L383.307,28.171z M401.061,50.574l-17.755,17.754
		L365.55,50.574h0.001l17.756-17.754L401.061,50.574L401.061,50.574z"/>
	<path fill="#ED6F26" d="M370.761,50.574l12.545,12.545l12.544-12.545l-12.543-12.543L370.761,50.574z M391.204,50.574
		L391.204,50.574l-7.898,7.898l-7.898-7.898h0.001l7.898-7.897L391.204,50.574z"/>
	<path fill="#88AB2F" d="M273.791,28.171l-22.402,22.402l22.401,22.4l22.401-22.4L273.791,28.171z M291.545,50.574L273.79,68.328
		l-17.755-17.754h0.001l17.755-17.754L291.545,50.574L291.545,50.574z"/>
	<path fill="#88AB2F" d="M261.245,50.574l12.545,12.545l12.545-12.545l-12.544-12.543L261.245,50.574z M281.688,50.574
		L281.688,50.574l-7.898,7.898l-7.898-7.898l0,0l7.899-7.897L281.688,50.574z"/>
	<path fill="#0C79BE" d="M219.032,28.171l-22.4,22.402l22.4,22.4l22.402-22.4L219.032,28.171z M236.786,50.574l-17.754,17.754
		l-17.756-17.754h0.001l17.755-17.754L236.786,50.574L236.786,50.574z"/>
	<path fill="#0C79BE" d="M206.487,50.574l12.545,12.545l12.545-12.545l-12.545-12.543L206.487,50.574z M226.931,50.574
		L226.931,50.574l-7.898,7.898l-7.897-7.898l0,0l7.897-7.897L226.931,50.574z"/>
	<path fill="#0C79BE" d="M164.275,28.171l-22.401,22.402l22.4,22.4l22.402-22.4L164.275,28.171z M182.028,50.574l-17.754,17.754
		L146.52,50.574h0.001l17.755-17.754L182.028,50.574L182.028,50.574z"/>
	<path fill="#0C79BE" d="M151.729,50.574l12.545,12.545l12.545-12.545l-12.544-12.543L151.729,50.574z M172.175,50.574h-0.002
		l-7.898,7.898l-7.898-7.898l0,0l7.899-7.897L172.175,50.574z"/>
	<path fill="#ED6F26" d="M109.518,28.171L87.116,50.574l22.4,22.4l22.401-22.4L109.518,28.171z M127.271,50.574l-17.754,17.754
		L91.763,50.574l0,0l17.755-17.754L127.271,50.574L127.271,50.574z"/>
	<path fill="#ED6F26" d="M96.972,50.574l12.545,12.545l12.545-12.545l-12.544-12.543L96.972,50.574z M117.416,50.574h-0.002
		l-7.897,7.898l-7.897-7.898l0,0l7.898-7.897L117.416,50.574z"/>
	<path fill="#88AB2F" d="M54.76,28.171L32.357,50.574l22.401,22.4l22.401-22.4L54.76,28.171z M72.513,50.574L54.759,68.328
		L37.003,50.574h0.001L54.76,32.82L72.513,50.574L72.513,50.574z"/>
	<path fill="#88AB2F" d="M42.214,50.574l12.545,12.545l12.545-12.545L54.76,38.031L42.214,50.574z M62.658,50.574h-0.002
		l-7.897,7.898l-7.898-7.898l0,0l7.899-7.897L62.658,50.574z"/>
	<path fill="#ED6F26" d="M711.853,28.171l-22.4,22.402l22.398,22.4l22.402-22.4L711.853,28.171z M729.607,50.574l-17.756,17.754
		l-17.754-17.754l0,0l17.756-17.754L729.607,50.574L729.607,50.574z"/>
	<path fill="#ED6F26" d="M699.308,50.574l12.543,12.545l12.547-12.545l-12.545-12.543L699.308,50.574z M719.751,50.574
		L719.751,50.574l-7.9,7.898l-7.896-7.898l0,0l7.898-7.897L719.751,50.574z"/>
	<path fill="#ED6F26" d="M766.613,28.171L744.21,50.574l22.4,22.4l22.4-22.4L766.613,28.171z M784.365,50.574l-17.754,17.754
		l-17.754-17.754l0,0l17.756-17.754L784.365,50.574L784.365,50.574z"/>
	<path fill="#ED6F26" d="M754.066,50.574l12.545,12.545l12.543-12.545l-12.541-12.543L754.066,50.574z M774.509,50.574
		L774.509,50.574l-7.896,7.898l-7.9-7.898l0,0l7.902-7.897L774.509,50.574z"/>
	<path fill="#88AB2F" d="M657.095,28.171l-22.4,22.402l22.4,22.4l22.4-22.4L657.095,28.171z M674.849,50.574l-17.754,17.754
		l-17.756-17.754l0,0l17.756-17.754L674.849,50.574L674.849,50.574z"/>
	<path fill="#88AB2F" d="M644.55,50.574l12.545,12.545l12.545-12.545l-12.545-12.543L644.55,50.574z M664.996,50.574h-0.002
		l-7.898,7.898l-7.898-7.898l0,0l7.898-7.897L664.996,50.574z"/>
	<path fill="#0C79BE" d="M602.338,28.171l-22.4,22.402l22.399,22.4l22.401-22.4L602.338,28.171z M620.093,50.574l-17.756,17.754
		l-17.754-17.754h0.001l17.754-17.754L620.093,50.574L620.093,50.574z"/>
	<path fill="#0C79BE" d="M589.794,50.574l12.543,12.545l12.545-12.545l-12.544-12.543L589.794,50.574z M610.236,50.574
		L610.236,50.574l-7.899,7.898l-7.897-7.898l0,0l7.898-7.897L610.236,50.574z"/>
	<path fill="#0C79BE" d="M547.581,28.171l-22.4,22.402l22.399,22.4l22.402-22.4L547.581,28.171z M565.335,50.574L547.58,68.328
		l-17.756-17.754l0,0l17.757-17.754L565.335,50.574L565.335,50.574z"/>
	<path fill="#0C79BE" d="M535.035,50.574l12.545,12.545l12.545-12.545l-12.544-12.543L535.035,50.574z M555.479,50.574
		L555.479,50.574l-7.897,7.898l-7.899-7.898l0,0l7.9-7.897L555.479,50.574z"/>
	<path fill="#ED6F26" d="M492.823,28.171l-22.402,22.402l22.402,22.4l22.398-22.4L492.823,28.171z M510.577,50.574l-17.754,17.754
		l-17.756-17.754h0.001l17.755-17.754L510.577,50.574L510.577,50.574z"/>
	<path fill="#ED6F26" d="M480.277,50.574l12.546,12.545l12.544-12.545l-12.544-12.543L480.277,50.574z M500.721,50.574
		L500.721,50.574l-7.896,7.898l-7.899-7.898l0,0l7.899-7.897L500.721,50.574z"/>
	<path fill="#88AB2F" d="M438.065,28.171l-22.401,22.402l22.4,22.4l22.401-22.4L438.065,28.171z M455.818,50.574l-17.754,17.754
		l-17.757-17.754h0.001l17.757-17.754L455.818,50.574L455.818,50.574z"/>
	<path fill="#88AB2F" d="M425.52,50.574l12.546,12.545l12.545-12.545l-12.544-12.543L425.52,50.574z M445.963,50.574L445.963,50.574
		l-7.897,7.898l-7.898-7.898l0,0l7.899-7.897L445.963,50.574z"/>
	<path fill="#ED6F26" d="M1095.16,28.171l-22.402,22.402l22.402,22.4l22.4-22.4L1095.16,28.171z M1112.914,50.574l-17.754,17.754
		l-17.756-17.754l0,0l17.756-17.754L1112.914,50.574L1112.914,50.574z"/>
	<path fill="#ED6F26" d="M1082.615,50.574l12.545,12.545l12.545-12.545l-12.545-12.543L1082.615,50.574z M1103.058,50.574
		L1103.058,50.574l-7.898,7.898l-7.896-7.898l0,0l7.896-7.897L1103.058,50.574z"/>
	<path fill="#ED6F26" d="M1149.917,28.171l-22.4,22.402l22.4,22.4l22.398-22.4L1149.917,28.171z M1167.671,50.574l-17.754,17.754
		l-17.756-17.754h0.002l17.754-17.754L1167.671,50.574L1167.671,50.574z"/>
	<path fill="#ED6F26" d="M1137.373,50.574l12.545,12.545l12.543-12.545l-12.543-12.543L1137.373,50.574z M1157.814,50.574
		L1157.814,50.574l-7.896,7.898l-7.9-7.898h0.002l7.898-7.897L1157.814,50.574z"/>
	<path fill="#88AB2F" d="M1040.404,28.171l-22.402,22.402l22.4,22.4l22.4-22.4L1040.404,28.171z M1058.158,50.574l-17.756,17.754
		l-17.756-17.754l0,0l17.758-17.754L1058.158,50.574L1058.158,50.574z"/>
	<path fill="#88AB2F" d="M1027.859,50.574l12.543,12.545l12.545-12.545l-12.543-12.543L1027.859,50.574z M1048.3,50.574
		L1048.3,50.574l-7.898,7.898l-7.898-7.898l0,0l7.9-7.897L1048.3,50.574z"/>
	<path fill="#0C79BE" d="M985.644,28.171l-22.4,22.402l22.4,22.4l22.402-22.4L985.644,28.171z M1003.396,50.574l-17.752,17.754
		l-17.756-17.754l0,0l17.756-17.754L1003.396,50.574L1003.396,50.574z"/>
	<path fill="#0C79BE" d="M973.099,50.574l12.545,12.545l12.545-12.545l-12.545-12.543L973.099,50.574z M993.542,50.574
		L993.542,50.574l-7.898,7.898l-7.898-7.898l0,0l7.898-7.897L993.542,50.574z"/>
	<path fill="#0C79BE" d="M930.886,28.171l-22.402,22.402l22.402,22.4l22.402-22.4L930.886,28.171z M948.64,50.574l-17.754,17.754
		L913.13,50.574h0.002l17.754-17.754L948.64,50.574L948.64,50.574z"/>
	<path fill="#0C79BE" d="M918.341,50.574l12.545,12.545l12.545-12.545l-12.545-12.543L918.341,50.574z M938.787,50.574h-0.002
		l-7.898,7.898l-7.898-7.898l0,0l7.898-7.897L938.787,50.574z"/>
	<path fill="#ED6F26" d="M876.128,28.171l-22.402,22.402l22.402,22.4l22.402-22.4L876.128,28.171z M893.882,50.574l-17.754,17.754
		l-17.754-17.754l0,0l17.754-17.754l17.756,17.754H893.882z"/>
	<path fill="#ED6F26" d="M863.583,50.574l12.545,12.545l12.545-12.545l-12.545-12.543L863.583,50.574z M884.029,50.574h-0.002
		l-7.898,7.898l-7.896-7.898l0,0l7.896-7.897L884.029,50.574z"/>
	<path fill="#88AB2F" d="M821.371,28.171l-22.4,22.402l22.4,22.4l22.4-22.4L821.371,28.171z M839.125,50.574l-17.754,17.754
		l-17.756-17.754h0.002l17.754-17.754L839.125,50.574L839.125,50.574z"/>
	<path fill="#88AB2F" d="M808.826,50.574l12.545,12.545l12.545-12.545l-12.545-12.543L808.826,50.574z M829.271,50.574h-0.002
		l-7.898,7.898l-7.896-7.898l0,0l7.898-7.897L829.271,50.574z"/>
	<path fill="#88AB2F" d="M1204.677,28.171l-22.402,22.402l22.4,22.4l22.402-22.4L1204.677,28.171z M1222.429,50.574l-17.754,17.754
		l-17.756-17.754h0.002l17.756-17.754L1222.429,50.574L1222.429,50.574z"/>
	<path fill="#88AB2F" d="M1192.13,50.574l12.545,12.545l12.545-12.545l-12.543-12.543L1192.13,50.574z M1212.574,50.574h-0.002
		l-7.896,7.898l-7.896-7.898l0,0l7.898-7.897L1212.574,50.574z"/>
	<polygon fill="#ED6F26" points="1259.433,58.472 1251.535,50.574 1259.433,42.676 1259.433,38.031 1246.888,50.574 
		1259.433,63.119 	"/>
	<polygon fill="#ED6F26" points="1259.433,68.328 1241.679,50.574 1259.433,32.82 1259.433,28.171 1237.033,50.574 1259.433,72.974 
			"/>
	<polygon fill="#ED6F26" points="0.001,28.171 0,28.173 0,32.82 0.001,32.82 17.757,50.574 0,68.328 0,72.974 22.403,50.574 	"/>
	<polygon fill="#ED6F26" points="0.001,38.031 0,38.031 0,42.677 0.001,42.676 7.9,50.574 7.899,50.574 0,58.472 0,63.119 
		12.546,50.574 	"/>
	<g>
		<polygon fill="#0C79BE" points="8.426,77.953 12.641,77.953 14.742,75.844 16.851,77.953 16.852,77.953 18.958,75.844 
			14.741,71.635 		"/>
		<polygon fill="#0C79BE" points="4.211,77.953 14.741,67.423 23.17,75.844 21.062,77.953 25.274,77.953 27.713,75.513 
			35.803,67.424 27.38,59 21.062,65.316 25.273,69.533 27.38,67.424 25.273,65.316 27.38,63.212 31.593,67.423 25.273,73.742 
			16.851,65.315 27.38,54.785 37.003,64.408 50.548,77.953 50.547,77.953 54.759,77.953 54.76,77.953 27.38,50.574 0.001,77.953 		
			"/>
		<polygon fill="#0C79BE" points="30.12,77.322 29.489,77.953 33.7,77.953 37.91,73.742 42.12,77.953 42.12,77.953 46.337,77.953 
			46.338,77.953 37.91,69.531 		"/>
		<polygon fill="#0C79BE" points="37.91,77.953 37.911,77.953 37.91,77.953 		"/>
	</g>
	<g>
		<polygon fill="#0C79BE" points="63.185,77.953 67.397,77.953 69.5,75.844 71.607,77.953 71.608,77.953 73.714,75.844 69.5,71.635 
					"/>
		<polygon fill="#0C79BE" points="58.971,77.953 69.5,67.423 77.926,75.844 75.817,77.953 80.033,77.953 82.47,75.513 
			90.561,67.424 82.139,59 75.819,65.316 80.03,69.533 82.139,67.424 80.03,65.316 82.139,63.212 86.349,67.423 80.03,73.742 
			71.608,65.315 82.138,54.785 91.762,64.408 105.306,77.953 105.306,77.953 109.517,77.953 109.517,77.953 82.138,50.574 
			54.76,77.953 		"/>
		<polygon fill="#0C79BE" points="92.667,77.953 92.668,77.953 92.668,77.953 		"/>
		<polygon fill="#0C79BE" points="84.878,77.322 84.247,77.953 88.457,77.953 92.668,73.742 96.878,77.953 96.877,77.953 
			101.095,77.953 101.095,77.953 92.668,69.531 		"/>
	</g>
	<g>
		<polygon fill="#88AB2F" points="117.943,77.953 122.158,77.953 124.259,75.844 126.367,77.953 126.368,77.953 128.474,75.844 
			124.258,71.635 		"/>
		<polygon fill="#88AB2F" points="113.729,77.953 124.258,67.423 132.687,75.844 130.579,77.953 134.792,77.953 137.23,75.513 
			145.319,67.424 136.897,59 130.578,65.316 134.789,69.533 136.897,67.424 134.789,65.316 136.897,63.212 141.108,67.423 
			134.789,73.742 126.367,65.315 136.897,54.785 146.52,64.408 160.065,77.953 160.064,77.953 164.274,77.953 164.275,77.953 
			136.896,50.574 109.517,77.953 109.518,77.953 		"/>
		<polygon fill="#88AB2F" points="139.636,77.322 139.005,77.953 143.216,77.953 147.426,73.742 151.637,77.953 151.637,77.953 
			155.853,77.953 155.853,77.953 147.426,69.531 		"/>
		<polygon fill="#88AB2F" points="147.425,77.953 147.426,77.953 147.426,77.953 		"/>
	</g>
	<g>
		<polygon fill="#88AB2F" points="172.7,77.953 176.915,77.953 179.015,75.844 181.124,77.953 181.125,77.953 183.23,75.844 
			179.014,71.635 		"/>
		<polygon fill="#88AB2F" points="168.485,77.953 179.014,67.423 187.443,75.844 185.334,77.953 189.547,77.953 191.986,75.513 
			200.076,67.424 191.654,59 185.335,65.316 189.546,69.533 191.654,67.424 189.546,65.316 191.654,63.212 195.865,67.423 
			189.546,73.742 181.124,65.315 191.654,54.785 201.276,64.408 214.82,77.953 214.819,77.953 219.032,77.953 219.032,77.953 
			191.654,50.574 164.275,77.953 164.275,77.953 		"/>
		<polygon fill="#88AB2F" points="194.392,77.322 193.761,77.953 197.973,77.953 202.184,73.742 206.394,77.953 206.394,77.953 
			210.609,77.953 210.61,77.953 202.184,69.531 		"/>
		<polygon fill="#88AB2F" points="202.184,77.953 202.185,77.953 202.184,77.953 		"/>
	</g>
	<g>
		<polygon fill="#ED6F26" points="223.243,77.953 233.773,67.423 242.201,75.844 240.093,77.953 244.306,77.953 246.744,75.513 
			254.834,67.424 246.412,59 240.093,65.316 244.304,69.533 246.412,67.424 244.304,65.316 246.412,63.212 250.624,67.423 
			244.304,73.742 235.883,65.315 246.411,54.785 256.035,64.408 269.579,77.953 269.579,77.953 273.791,77.953 273.791,77.953 
			246.411,50.574 219.032,77.953 219.033,77.953 		"/>
		<polygon fill="#ED6F26" points="227.458,77.953 231.671,77.953 233.774,75.844 235.882,77.953 235.883,77.953 237.989,75.844 
			233.773,71.635 		"/>
		<polygon fill="#ED6F26" points="256.941,77.953 256.942,77.953 256.942,77.953 		"/>
		<polygon fill="#ED6F26" points="249.15,77.322 248.519,77.953 252.731,77.953 256.942,73.742 261.152,77.953 261.151,77.953 
			265.368,77.953 265.368,77.953 256.942,69.531 		"/>
	</g>
	<g>
		<polygon fill="#0C79BE" points="282.215,77.953 286.431,77.953 288.531,75.844 290.64,77.953 290.641,77.953 292.748,75.844 
			288.53,71.635 		"/>
		<polygon fill="#0C79BE" points="278.001,77.953 288.53,67.423 296.958,75.844 294.85,77.953 299.063,77.953 301.502,75.513 
			309.592,67.424 301.169,59 294.85,65.316 299.061,69.533 301.169,67.424 299.061,65.316 301.169,63.212 305.38,67.423 
			299.061,73.742 290.64,65.315 301.169,54.785 310.792,64.408 324.337,77.953 324.336,77.953 328.547,77.953 328.548,77.953 
			301.169,50.574 273.791,77.953 273.792,77.953 		"/>
		<polygon fill="#0C79BE" points="311.699,77.953 311.7,77.953 311.699,77.953 		"/>
		<polygon fill="#0C79BE" points="303.908,77.322 303.277,77.953 307.488,77.953 311.699,73.742 315.909,77.953 315.909,77.953 
			320.125,77.953 320.126,77.953 311.699,69.531 		"/>
	</g>
	<g>
		<polygon fill="#0C79BE" points="336.972,77.953 341.188,77.953 343.29,75.844 345.398,77.953 345.399,77.953 347.506,75.844 
			343.289,71.635 		"/>
		<polygon fill="#0C79BE" points="332.759,77.953 343.289,67.423 351.718,75.844 349.609,77.953 353.822,77.953 356.26,75.513 
			364.35,67.424 355.928,59 349.609,65.316 353.82,69.533 355.928,67.424 353.82,65.316 355.928,63.212 360.138,67.423 
			353.82,73.742 345.398,65.315 355.927,54.785 365.55,64.408 379.095,77.953 379.094,77.953 383.306,77.953 383.307,77.953 
			355.927,50.574 328.548,77.953 328.548,77.953 		"/>
		<polygon fill="#0C79BE" points="358.666,77.322 358.035,77.953 362.246,77.953 366.457,73.742 370.668,77.953 370.667,77.953 
			374.882,77.953 374.883,77.953 366.457,69.531 		"/>
		<polygon fill="#0C79BE" points="366.457,77.953 366.458,77.953 366.457,77.953 		"/>
	</g>
	<g>
		<polygon fill="#0C79BE" points="391.733,77.953 395.947,77.953 398.049,75.844 400.157,77.953 400.158,77.953 402.263,75.844 
			398.048,71.635 		"/>
		<polygon fill="#0C79BE" points="387.518,77.953 398.048,67.423 406.476,75.844 404.368,77.953 408.58,77.953 411.018,75.513 
			419.109,67.424 410.688,59 404.367,65.316 408.579,69.533 410.688,67.424 408.579,65.316 410.688,63.212 414.897,67.423 
			408.579,73.742 400.157,65.315 410.686,54.785 420.309,64.408 433.854,77.953 433.853,77.953 438.066,77.953 438.066,77.953 
			410.686,50.574 383.307,77.953 383.307,77.953 		"/>
		<polygon fill="#0C79BE" points="413.427,77.322 412.795,77.953 417.006,77.953 421.216,73.742 425.426,77.953 425.425,77.953 
			429.643,77.953 429.644,77.953 421.216,69.531 		"/>
		<polygon fill="#0C79BE" points="421.215,77.953 421.216,77.953 421.216,77.953 		"/>
	</g>
	<g>
		<polygon fill="#0C79BE" points="446.489,77.953 450.702,77.953 452.805,75.844 454.914,77.953 454.915,77.953 457.021,75.844 
			452.804,71.635 		"/>
		<polygon fill="#0C79BE" points="442.275,77.953 452.804,67.423 461.231,75.844 459.124,77.953 463.336,77.953 465.775,75.513 
			473.867,67.424 465.444,59 459.124,65.316 463.336,69.533 465.444,67.424 463.336,65.316 465.444,63.212 469.654,67.423 
			463.336,73.742 454.914,65.315 465.443,54.785 475.066,64.408 488.611,77.953 488.611,77.953 492.823,77.953 492.823,77.953 
			465.443,50.574 438.065,77.953 438.066,77.953 		"/>
		<polygon fill="#0C79BE" points="468.18,77.322 467.549,77.953 471.762,77.953 475.973,73.742 480.183,77.953 480.182,77.953 
			484.399,77.953 484.399,77.953 475.973,69.531 		"/>
		<polygon fill="#0C79BE" points="475.972,77.953 475.973,77.953 475.973,77.953 		"/>
	</g>
	<g>
		<polygon fill="#88AB2F" points="497.034,77.953 507.563,67.423 515.992,75.844 513.883,77.953 518.096,77.953 520.534,75.513 
			528.623,67.424 520.2,59 513.884,65.316 518.093,69.533 520.2,67.424 518.093,65.316 520.2,63.212 524.413,67.423 518.093,73.742 
			509.672,65.315 520.2,54.785 529.824,64.408 543.368,77.953 543.368,77.953 547.581,77.953 547.581,77.953 520.2,50.574 
			492.823,77.953 492.824,77.953 		"/>
		<polygon fill="#88AB2F" points="501.249,77.953 505.461,77.953 507.564,75.844 509.671,77.953 509.672,77.953 511.779,75.844 
			507.563,71.635 		"/>
		<polygon fill="#88AB2F" points="530.731,77.953 530.732,77.953 530.731,77.953 		"/>
		<polygon fill="#88AB2F" points="522.942,77.322 522.311,77.953 526.521,77.953 530.731,73.742 534.942,77.953 534.942,77.953 
			539.158,77.953 539.158,77.953 530.73,69.531 		"/>
	</g>
	<g>
		<polygon fill="#88AB2F" points="556.004,77.953 560.22,77.953 562.322,75.844 564.429,77.953 564.43,77.953 566.536,75.844 
			562.321,71.635 		"/>
		<polygon fill="#88AB2F" points="551.792,77.953 562.321,67.423 570.749,75.844 568.641,77.953 572.853,77.953 575.292,75.513 
			583.382,67.424 574.96,59 568.64,65.316 572.852,69.533 574.96,67.424 572.852,65.316 574.96,63.212 579.171,67.423 
			572.852,73.742 564.43,65.315 574.959,54.785 584.583,64.408 598.127,77.953 598.126,77.953 602.337,77.953 602.338,77.953 
			574.959,50.574 547.581,77.953 547.582,77.953 		"/>
		<polygon fill="#88AB2F" points="577.697,77.322 577.066,77.953 581.279,77.953 585.489,73.742 589.7,77.953 589.7,77.953 
			593.915,77.953 593.915,77.953 585.489,69.531 		"/>
		<polygon fill="#88AB2F" points="585.489,77.953 585.49,77.953 585.489,77.953 		"/>
	</g>
	<g>
		<polygon fill="#ED6F26" points="610.763,77.953 614.977,77.953 617.08,75.844 619.187,77.953 619.188,77.953 621.296,75.844 
			617.079,71.635 		"/>
		<polygon fill="#ED6F26" points="606.549,77.953 617.079,67.423 625.506,75.844 623.398,77.953 627.611,77.953 630.049,75.513 
			638.14,67.424 629.717,59 623.399,65.316 627.61,69.533 629.717,67.424 627.61,65.316 629.717,63.212 633.927,67.423 
			627.61,73.742 619.188,65.315 629.717,54.785 639.339,64.408 652.884,77.953 652.884,77.953 657.095,77.953 657.095,77.953 
			629.717,50.574 602.338,77.953 602.338,77.953 		"/>
		<polygon fill="#ED6F26" points="640.246,77.953 640.246,77.953 640.246,77.953 		"/>
		<polygon fill="#ED6F26" points="632.455,77.322 631.824,77.953 636.036,77.953 640.246,73.742 644.457,77.953 644.457,77.953 
			648.673,77.953 648.673,77.953 640.246,69.531 		"/>
	</g>
	<g>
		<polygon fill="#0C79BE" points="716.064,77.953 726.593,67.423 735.021,75.844 732.913,77.953 737.126,77.953 739.564,75.513 
			747.654,67.424 739.232,59 732.916,65.316 737.125,69.533 739.232,67.424 737.125,65.316 739.232,63.212 743.443,67.423 
			737.125,73.742 728.703,65.315 739.234,54.785 748.857,64.408 762.4,77.953 762.4,77.953 766.613,77.953 766.613,77.953 
			739.234,50.574 711.851,77.953 711.851,77.953 		"/>
		<polygon fill="#0C79BE" points="720.279,77.953 724.492,77.953 726.595,75.844 728.703,77.953 728.703,77.953 730.808,75.844 
			726.593,71.635 		"/>
		<polygon fill="#0C79BE" points="741.97,77.322 741.338,77.953 745.55,77.953 749.761,73.742 753.97,77.953 753.97,77.953 
			758.187,77.953 758.187,77.953 749.761,69.531 		"/>
		<polygon fill="#0C79BE" points="749.761,77.953 749.761,77.953 749.761,77.953 		"/>
	</g>
	<g>
		<polygon fill="#0C79BE" points="665.519,77.953 669.734,77.953 671.835,75.844 673.945,77.953 673.945,77.953 676.052,75.844 
			671.835,71.635 		"/>
		<polygon fill="#0C79BE" points="661.306,77.953 671.835,67.423 680.263,75.844 678.155,77.953 682.369,77.953 684.806,75.513 
			692.898,67.424 684.474,59 678.156,65.316 682.367,69.533 684.474,67.424 682.367,65.316 684.474,63.212 688.687,67.423 
			682.367,73.742 673.945,65.315 684.474,54.785 694.097,64.408 707.642,77.953 707.642,77.953 711.853,77.953 711.853,77.953 
			684.474,50.574 657.095,77.953 657.095,77.953 		"/>
		<polygon fill="#0C79BE" points="695.003,77.953 695.003,77.953 695.003,77.953 		"/>
		<polygon fill="#0C79BE" points="687.214,77.322 686.583,77.953 690.793,77.953 695.003,73.742 699.214,77.953 699.214,77.953 
			703.433,77.953 703.433,77.953 695.003,69.531 		"/>
	</g>
	<g>
		<polygon fill="#0C79BE" points="775.037,77.953 779.251,77.953 781.353,75.844 783.46,77.953 783.46,77.953 785.57,75.844 
			781.353,71.635 		"/>
		<polygon fill="#0C79BE" points="770.822,77.953 781.353,67.423 789.781,75.844 787.672,77.953 791.886,77.953 794.324,75.513 
			802.416,67.424 793.994,59 787.673,65.316 791.884,69.533 793.994,67.424 791.884,65.316 793.994,63.212 798.203,67.423 
			791.884,73.742 783.46,65.315 793.992,54.785 803.615,64.408 817.16,77.953 817.16,77.953 821.371,77.953 821.371,77.953 
			793.992,50.574 766.613,77.953 766.613,77.953 		"/>
		<polygon fill="#0C79BE" points="804.523,77.953 804.523,77.953 804.523,77.953 		"/>
		<polygon fill="#0C79BE" points="796.73,77.322 796.099,77.953 800.312,77.953 804.523,73.742 808.732,77.953 808.732,77.953 
			812.949,77.953 812.949,77.953 804.521,69.531 		"/>
	</g>
	<g>
		<polygon fill="#0C79BE" points="825.58,77.953 836.113,67.423 844.539,75.844 842.43,77.953 846.643,77.953 849.083,75.513 
			857.171,67.424 848.75,59 842.429,65.316 846.642,69.533 848.75,67.424 846.642,65.316 848.75,63.212 852.96,67.423 
			846.642,73.742 838.22,65.315 848.75,54.785 858.373,64.408 871.917,77.953 871.917,77.953 876.128,77.953 876.128,77.953 
			848.75,50.574 821.371,77.953 821.371,77.953 		"/>
		<polygon fill="#0C79BE" points="829.794,77.953 834.009,77.953 836.113,75.844 838.22,77.953 838.22,77.953 840.326,75.844 
			836.113,71.635 		"/>
		<polygon fill="#0C79BE" points="859.279,77.953 859.279,77.953 859.279,77.953 		"/>
		<polygon fill="#0C79BE" points="851.488,77.322 850.857,77.953 855.069,77.953 859.279,73.742 863.49,77.953 863.49,77.953 
			867.707,77.953 867.707,77.953 859.279,69.531 		"/>
	</g>
	<g>
		<polygon fill="#88AB2F" points="884.554,77.953 888.767,77.953 890.871,75.844 892.978,77.953 892.978,77.953 895.085,75.844 
			890.869,71.635 		"/>
		<polygon fill="#88AB2F" points="880.339,77.953 890.869,67.423 899.296,75.844 897.188,77.953 901.402,77.953 903.841,75.513 
			911.929,67.424 903.507,59 897.189,65.316 901.4,69.533 903.507,67.424 901.4,65.316 903.507,63.212 907.72,67.423 901.4,73.742 
			892.978,65.315 903.507,54.785 913.13,64.408 926.675,77.953 926.675,77.953 930.886,77.953 930.886,77.953 903.507,50.574 
			876.128,77.953 876.128,77.953 		"/>
		<polygon fill="#88AB2F" points="914.039,77.953 914.039,77.953 914.039,77.953 		"/>
		<polygon fill="#88AB2F" points="906.248,77.322 905.617,77.953 909.829,77.953 914.039,73.742 918.248,77.953 918.248,77.953 
			922.464,77.953 922.464,77.953 914.039,69.531 		"/>
	</g>
	<g>
		<polygon fill="#88AB2F" points="935.097,77.953 945.626,67.423 954.056,75.844 951.948,77.953 956.16,77.953 958.597,75.513 
			966.687,67.424 958.265,59 951.949,65.316 956.158,69.533 958.265,67.424 956.158,65.316 958.265,63.212 962.478,67.423 
			956.158,73.742 947.738,65.315 958.265,54.785 967.888,64.408 981.433,77.953 981.433,77.953 985.644,77.953 985.644,77.953 
			958.265,50.574 930.886,77.953 930.886,77.953 		"/>
		<polygon fill="#88AB2F" points="939.31,77.953 943.523,77.953 945.628,75.844 947.738,77.953 947.738,77.953 949.843,75.844 
			945.626,71.635 		"/>
		<polygon fill="#88AB2F" points="961.003,77.322 960.373,77.953 964.584,77.953 968.794,73.742 973.005,77.953 973.005,77.953 
			977.222,77.953 977.222,77.953 968.794,69.531 		"/>
		<polygon fill="#88AB2F" points="968.794,77.953 968.794,77.953 968.794,77.953 		"/>
	</g>
	<g>
		<polygon fill="#ED6F26" points="989.853,77.953 1000.384,67.423 1008.812,75.844 1006.704,77.953 1010.917,77.953 
			1013.355,75.513 1021.447,67.424 1013.023,59 1006.705,65.316 1010.917,69.533 1013.023,67.424 1010.917,65.316 1013.023,63.212 
			1017.236,67.423 1010.917,73.742 1002.494,65.315 1013.021,54.785 1022.646,64.408 1036.191,77.953 1036.191,77.953 
			1040.404,77.953 1040.404,77.953 1013.021,50.574 985.644,77.953 985.644,77.953 		"/>
		<polygon fill="#ED6F26" points="1023.554,77.953 1023.554,77.953 1023.554,77.953 		"/>
		<polygon fill="#ED6F26" points="994.068,77.953 998.283,77.953 1000.384,75.844 1002.494,77.953 1002.494,77.953 1004.601,75.844 
			1000.384,71.635 		"/>
		<polygon fill="#ED6F26" points="1015.761,77.322 1015.13,77.953 1019.341,77.953 1023.554,73.742 1027.761,77.953 
			1027.761,77.953 1031.978,77.953 1031.978,77.953 1023.554,69.531 		"/>
	</g>
	<g>
		<polygon fill="#0C79BE" points="1048.828,77.953 1053.041,77.953 1055.142,75.844 1057.25,77.953 1057.25,77.953 1059.357,75.844 
			1055.14,71.635 		"/>
		<polygon fill="#0C79BE" points="1044.611,77.953 1055.14,67.423 1063.57,75.844 1061.461,77.953 1065.673,77.953 1068.113,75.513 
			1076.205,67.424 1067.781,59 1061.462,65.316 1065.673,69.533 1067.781,67.424 1065.673,65.316 1067.781,63.212 1071.992,67.423 
			1065.673,73.742 1057.25,65.315 1067.781,54.785 1077.404,64.408 1090.949,77.953 1090.949,77.953 1095.16,77.953 1095.16,77.953 
			1067.781,50.574 1040.404,77.953 1040.404,77.953 		"/>
		<polygon fill="#0C79BE" points="1070.519,77.322 1069.888,77.953 1074.099,77.953 1078.312,73.742 1082.521,77.953 
			1082.521,77.953 1086.736,77.953 1086.736,77.953 1078.312,69.531 		"/>
		<polygon fill="#0C79BE" points="1078.312,77.953 1078.312,77.953 1078.312,77.953 		"/>
	</g>
	<g>
		<polygon fill="#0C79BE" points="1099.371,77.953 1109.9,67.423 1118.328,75.844 1116.219,77.953 1120.432,77.953 1122.873,75.513 
			1130.96,67.424 1122.539,59 1116.22,65.316 1120.429,69.533 1122.539,67.424 1120.429,65.316 1122.539,63.212 1126.751,67.423 
			1120.429,73.742 1112.009,65.315 1122.539,54.785 1132.162,64.408 1145.707,77.953 1145.707,77.953 1149.917,77.953 
			1149.917,77.953 1122.539,50.574 1095.16,77.953 1095.16,77.953 		"/>
		<polygon fill="#0C79BE" points="1103.583,77.953 1107.798,77.953 1109.902,75.844 1112.009,77.953 1112.009,77.953 
			1114.117,75.844 1109.9,71.635 		"/>
		<polygon fill="#0C79BE" points="1133.068,77.953 1133.068,77.953 1133.068,77.953 		"/>
		<polygon fill="#0C79BE" points="1125.279,77.322 1124.647,77.953 1128.858,77.953 1133.068,73.742 1137.279,77.953 
			1137.279,77.953 1141.496,77.953 1141.496,77.953 1133.068,69.531 		"/>
	</g>
	<g>
		<polygon fill="#0C79BE" points="1154.13,77.953 1164.66,67.423 1173.085,75.844 1170.978,77.953 1175.191,77.953 1177.63,75.513 
			1185.718,67.424 1177.298,59 1170.978,65.316 1175.189,69.533 1177.298,67.424 1175.189,65.316 1177.298,63.212 1181.507,67.423 
			1175.189,73.742 1166.769,65.315 1177.296,54.785 1186.919,64.408 1200.464,77.953 1200.464,77.953 1204.677,77.953 
			1204.677,77.953 1177.296,50.574 1149.917,77.953 1149.917,77.953 		"/>
		<polygon fill="#0C79BE" points="1158.343,77.953 1162.556,77.953 1164.66,75.844 1166.769,77.953 1166.769,77.953 
			1168.875,75.844 1164.66,71.635 		"/>
		<polygon fill="#0C79BE" points="1180.039,77.322 1179.407,77.953 1183.616,77.953 1187.826,73.742 1192.039,77.953 
			1192.039,77.953 1196.253,77.953 1196.253,77.953 1187.826,69.531 		"/>
		<polygon fill="#0C79BE" points="1187.826,77.953 1187.826,77.953 1187.826,77.953 		"/>
	</g>
	<g>
		<polygon fill="#0C79BE" points="1213.097,77.953 1217.314,77.953 1219.417,75.844 1221.525,77.953 1221.525,77.953 
			1223.632,75.844 1219.417,71.635 		"/>
		<polygon fill="#0C79BE" points="1234.794,77.322 1234.164,77.953 1238.375,77.953 1242.587,73.742 1246.794,77.953 
			1246.794,77.953 1251.011,77.953 1251.011,77.953 1242.587,69.531 		"/>
		<polygon fill="#0C79BE" points="1208.886,77.953 1219.417,67.423 1227.843,75.844 1225.736,77.953 1229.947,77.953 
			1232.386,75.513 1240.478,67.424 1232.056,59 1225.736,65.316 1229.947,69.533 1232.056,67.424 1229.947,65.316 1232.056,63.212 
			1236.267,67.423 1229.947,73.742 1221.527,65.315 1232.054,54.785 1241.677,64.408 1255.222,77.953 1255.222,77.953 
			1259.433,77.953 1259.433,77.953 1232.054,50.574 1204.677,77.953 1204.677,77.953 		"/>
		<polygon fill="#0C79BE" points="1242.587,77.953 1242.587,77.953 1242.587,77.953 		"/>
	</g>
</g>
</svg>
