<?xml version="1.0" encoding="utf-8"?>
<!-- Generator: Adobe Illustrator 15.1.0, SVG Export Plug-In . SVG Version: 6.00 Build 0)  -->
<!DOCTYPE svg PUBLIC "-//W3C//DTD SVG 1.1//EN" "http://www.w3.org/Graphics/SVG/1.1/DTD/svg11.dtd">
<svg version="1.1" id="Capa_1" xmlns="http://www.w3.org/2000/svg" xmlns:xlink="http://www.w3.org/1999/xlink" x="0px" y="0px"
	 width="48.189px" height="48.188px" viewBox="0 0 48.189 48.188" enable-background="new 0 0 48.189 48.188" xml:space="preserve">
<g>
	<g>
		<path fill="#009ED1" d="M24.095,45.979c-12.067,0-21.885-9.817-21.885-21.885c0-12.067,9.817-21.884,21.885-21.884
			s21.885,9.817,21.885,21.884C45.979,36.161,36.162,45.979,24.095,45.979z"/>
		<path fill="#FFFFFF" d="M24.095,2.835c11.742,0,21.26,9.517,21.26,21.259s-9.518,21.26-21.26,21.26s-21.26-9.518-21.26-21.26
			S12.353,2.835,24.095,2.835 M24.095,1.585c-12.412,0-22.51,10.098-22.51,22.509c0,12.412,10.098,22.51,22.51,22.51
			s22.51-10.098,22.51-22.51C46.604,11.683,36.507,1.585,24.095,1.585L24.095,1.585z"/>
	</g>
	<path fill="#FFFFFF" d="M39.563,15.063c-1.092,0.485-2.266,0.812-3.497,0.958c1.257-0.753,2.224-1.946,2.678-3.369
		c-1.175,0.698-2.479,1.206-3.867,1.479c-1.112-1.184-2.695-1.924-4.445-1.924c-3.364,0-6.092,2.728-6.092,6.091
		c0,0.479,0.054,0.942,0.158,1.387c-5.062-0.252-9.549-2.677-12.554-6.364c-0.524,0.9-0.824,1.947-0.824,3.063
		c0,2.113,1.075,3.978,2.708,5.069c-0.998-0.03-1.937-0.306-2.758-0.762v0.077c0,2.95,2.1,5.414,4.885,5.972
		c-0.511,0.138-1.05,0.215-1.604,0.215c-0.392,0-0.774-0.039-1.146-0.111c0.775,2.421,3.024,4.182,5.689,4.231
		c-2.084,1.633-4.709,2.607-7.564,2.607c-0.491,0-0.976-0.029-1.452-0.086c2.695,1.727,5.897,2.735,9.338,2.735
		c11.202,0,17.327-9.278,17.327-17.329c0-0.262-0.006-0.525-0.016-0.789C37.714,17.357,38.745,16.285,39.563,15.063"/>
</g>
</svg>
