<?xml version="1.0" encoding="utf-8"?>
<!-- Generator: Adobe Illustrator 15.1.0, SVG Export Plug-In . SVG Version: 6.00 Build 0)  -->
<!DOCTYPE svg PUBLIC "-//W3C//DTD SVG 1.1//EN" "http://www.w3.org/Graphics/SVG/1.1/DTD/svg11.dtd">
<svg version="1.1" id="Layer_1" xmlns="http://www.w3.org/2000/svg" xmlns:xlink="http://www.w3.org/1999/xlink" x="0px" y="0px"
	 width="283.465px" height="212.599px" viewBox="73.268 53.701 283.465 212.599"
	 enable-background="new 73.268 53.701 283.465 212.599" xml:space="preserve">
<g>
	<g>
		<g>
			<g>
				<path fill="#DADADA" d="M199.122,156.568h-2.175v-25.473c0-2.938-2.391-5.328-5.327-5.328h-12.547
					c-4.138,0-7.503-3.365-7.503-7.502V86.369h2.175v31.897c0,2.938,2.39,5.328,5.327,5.328h12.547c4.137,0,7.502,3.365,7.502,7.502
					L199.122,156.568L199.122,156.568z"/>
			</g>
			<g>
				<path fill="#DADADA" d="M244.042,158.712h-2.175V127c0-4.137,3.365-7.503,7.503-7.503h1.142c2.938,0,5.328-2.391,5.328-5.328
					V89.168h2.174v25.001c0,4.137-3.364,7.502-7.502,7.502h-1.142c-2.938,0-5.328,2.391-5.328,5.329V158.712L244.042,158.712z"/>
			</g>
			<g>
				<path fill="#DADADA" d="M161.942,197.497h-56.21c-4.137,0-7.502-3.365-7.502-7.502v-60.161h2.174v60.161
					c0,2.938,2.391,5.327,5.328,5.327h56.21V197.497z"/>
			</g>
			<g>
				<path fill="#DADADA" d="M322.138,203.69h-55.874v-2.176h55.874c2.938,0,5.326-2.388,5.326-5.328v-74.718h2.176v74.718
					C329.64,200.323,326.273,203.69,322.138,203.69z"/>
			</g>
			<g>
				<g>
					<path fill="#C6C6C6" d="M291.175,249.482h-152.35c-3.078,0-5.574-2.495-5.574-5.574v-93.348c0-3.078,2.496-5.572,5.574-5.572
						h152.35c3.08,0,5.574,2.495,5.574,5.572v93.348C296.749,246.987,294.255,249.482,291.175,249.482z"/>
					<path fill="#575756" d="M134.828,242.332v-90.194c0-3.078,2.495-5.573,5.573-5.573h149.199c3.075,0,5.572,2.495,5.572,5.573
						v90.194c0,3.079-2.495,5.574-5.572,5.574H140.401C137.323,247.906,134.828,245.411,134.828,242.332z"/>
					<path fill="#40BCD4" d="M143.836,233.325v-72.179c0-3.078,2.495-5.573,5.574-5.573h131.181c3.078,0,5.574,2.495,5.574,5.573
						v72.179c0,3.077-2.494,5.574-5.574,5.574H149.409C146.331,238.899,143.836,236.402,143.836,233.325z"/>
					<rect x="125.819" y="245.542" fill="#DADADA" width="178.362" height="7.881"/>
					<path fill="#B2B2B2" d="M288.87,259.007H141.129c-5.553,0-10.925-1.966-15.167-5.551l0,0h178.075l0,0
						C299.796,257.04,294.423,259.007,288.87,259.007z"/>
				</g>
				<path fill="#F6F6F6" d="M228.159,249.482h-26.318c-2.102,0-3.806-1.702-3.806-3.806v-0.137h33.93v0.137
					C231.965,247.78,230.263,249.482,228.159,249.482z"/>
				<rect x="149.132" y="162.441" fill="#F6F6F6" width="131.737" height="73.133"/>
				<rect x="149.132" y="158.712" fill="#DADADA" width="131.737" height="3.731"/>
				<circle fill="#EB645A" cx="151.455" cy="160.602" r="1.088"/>
				<circle fill="#FFD920" cx="154.87" cy="160.602" r="1.088"/>
				<circle fill="#92BF33" cx="158.286" cy="160.602" r="1.088"/>
				<rect x="152.544" y="165.031" fill="#EB645A" width="55.024" height="4.954"/>
				<rect x="152.544" y="172.049" fill="#B2B2B2" width="38.199" height="1.953"/>
				<rect x="152.544" y="175.202" fill="#B2B2B2" width="32.404" height="1.953"/>
				<rect x="152.544" y="178.355" fill="#B2B2B2" width="36.609" height="1.954"/>
				<rect x="152.544" y="181.509" fill="#B2B2B2" width="29.864" height="1.951"/>
				<rect x="152.544" y="184.661" fill="#B2B2B2" width="34.617" height="1.952"/>
				<rect x="201.172" y="172.049" fill="#B2B2B2" width="6.396" height="1.953"/>
				<rect x="203.299" y="175.202" fill="#B2B2B2" width="4.27" height="1.953"/>
				<rect x="202.305" y="178.355" fill="#B2B2B2" width="5.264" height="1.954"/>
				<rect x="204.574" y="181.509" fill="#B2B2B2" width="2.994" height="1.951"/>
				<rect x="202.879" y="184.661" fill="#B2B2B2" width="4.689" height="1.952"/>
				<rect x="152.544" y="191.455" fill="#17B1A1" width="55.024" height="4.955"/>
				<rect x="152.544" y="198.475" fill="#B2B2B2" width="34.642" height="1.951"/>
				<rect x="152.544" y="201.626" fill="#B2B2B2" width="36.25" height="1.953"/>
				<rect x="152.544" y="204.778" fill="#B2B2B2" width="38.871" height="1.954"/>
				<rect x="152.544" y="207.932" fill="#B2B2B2" width="32.176" height="1.952"/>
				<rect x="152.544" y="211.086" fill="#B2B2B2" width="27.566" height="1.952"/>
				<rect x="152.544" y="218.742" fill="#B2B2B2" width="54.877" height="1.952"/>
				<rect x="152.544" y="222.12" fill="#B2B2B2" width="54.877" height="1.952"/>
				<rect x="152.544" y="225.499" fill="#B2B2B2" width="54.877" height="1.951"/>
				<rect x="152.544" y="228.876" fill="#B2B2B2" width="40.227" height="1.952"/>
				<rect x="202.957" y="198.475" fill="#B2B2B2" width="4.611" height="1.951"/>
				<rect x="199.756" y="201.626" fill="#B2B2B2" width="7.813" height="1.953"/>
				<rect x="204.222" y="204.778" fill="#B2B2B2" width="3.347" height="1.954"/>
				<rect x="202.541" y="207.932" fill="#B2B2B2" width="5.027" height="1.952"/>
				<rect x="204.479" y="211.086" fill="#B2B2B2" width="3.09" height="1.952"/>
			</g>
			<g>
				<polygon fill="#F6F6F6" points="110.616,91.705 80.354,91.705 80.354,139.873 122.542,139.873 122.542,103.63 				"/>
				<g>
					<path fill="#EB645A" d="M91.281,107.002h-3.976l-1.034,2.255h-1.51l4.596-9.87l4.432,9.87h-1.533L91.281,107.002z
						 M90.709,105.685l-1.377-3.157l-1.442,3.157H90.709z"/>
				</g>
				<rect x="96.12" y="99.886" fill="#556F7B" width="21.854" height="1.388"/>
				<rect x="96.12" y="103.63" fill="#556F7B" width="21.854" height="1.387"/>
				<rect x="96.12" y="107.373" fill="#556F7B" width="21.854" height="1.388"/>
				<rect x="84.762" y="111.117" fill="#556F7B" width="33.213" height="1.387"/>
				<rect x="84.762" y="114.861" fill="#556F7B" width="33.213" height="1.387"/>
				<rect x="84.762" y="118.604" fill="#556F7B" width="33.213" height="1.387"/>
				<rect x="84.762" y="122.347" fill="#556F7B" width="33.213" height="1.387"/>
				<rect x="84.762" y="126.091" fill="#556F7B" width="33.213" height="1.387"/>
				<rect x="84.762" y="129.834" fill="#556F7B" width="33.213" height="1.387"/>
				<rect x="84.762" y="133.578" fill="#556F7B" width="23.905" height="1.387"/>
				<polygon fill="#DADADA" points="110.616,103.63 122.542,103.63 110.616,91.705 				"/>
			</g>
			<g>
				<polygon fill="#F6F6F6" points="182.596,60.994 152.334,60.994 152.334,109.162 194.521,109.162 194.521,72.919 				"/>
				<rect x="159.002" y="69.871" fill="#556F7B" width="28.85" height="32.998"/>
				<rect x="160.524" y="71.392" fill="#99D6F6" width="25.805" height="24.827"/>
				<polygon fill="#92BE33" points="160.524,86.369 167.031,79.861 183.382,96.212 160.524,96.212 				"/>
				<polygon fill="#699E2F" points="186.33,96.212 183.382,96.212 175.221,88.05 181.146,82.125 186.329,87.308 				"/>
				<circle fill="#FFD920" cx="174.514" cy="78.428" r="3.044"/>
				<polygon fill="#DADADA" points="182.596,72.919 194.521,72.919 182.596,60.994 				"/>
			</g>
			<g>
				<polygon fill="#F6F6F6" points="265.664,60.994 235.399,60.994 235.399,109.162 277.589,109.162 277.589,72.919 				"/>
				<polygon fill="#DADADA" points="265.664,72.919 277.589,72.919 265.664,60.994 				"/>
				<g>
					<polygon fill="#F59E00" points="268.888,78.214 240.545,78.214 242.367,99.086 270.71,99.086 					"/>
					<rect x="242.955" y="78.621" fill="#C6C6C6" width="24.835" height="20.466"/>
					<rect x="244.119" y="77.288" fill="#DADADA" width="24.837" height="21.799"/>
					<rect x="245.287" y="75.782" fill="#EDEDED" width="24.834" height="23.305"/>
					<path fill="#FCC400" d="M262.541,78.214L262.541,78.214c-0.094,0.909-0.91,1.647-1.818,1.647H244.43l-2.015,19.225h28.343
						l2.014-19.225l0.173-1.647c0.094-0.91-0.565-1.646-1.476-1.646h-7.107C263.451,76.568,262.637,77.305,262.541,78.214z"/>
				</g>
			</g>
			<g>
				<polygon fill="#F6F6F6" points="337.721,91.705 307.459,91.705 307.459,139.873 349.646,139.873 349.646,103.63 				"/>
				<g>
					<rect x="313.336" y="102.373" fill="#8DCBC7" width="9.854" height="3.661"/>
					<rect x="323.626" y="102.373" fill="#8DCBC7" width="9.854" height="3.661"/>
					<rect x="333.914" y="102.373" fill="#8DCBC7" width="9.853" height="3.661"/>
					<path fill="#009588" d="M333.914,101.938h-0.436h-9.853h-0.437h-10.287v4.096v0.435v3.66v0.436v3.661v0.435v3.66v0.435v3.661
						v0.435v3.661v0.435v3.661v0.435v4.095h10.288h0.436h9.854h0.435h10.288v-4.095v-0.435v-3.661v-0.435v-3.661v-0.435v-3.661
						v-0.435v-3.66v-0.435v-3.661v-0.436v-3.66v-0.435v-4.096H333.914z M343.767,134.701h-9.853v-3.66h9.853V134.701z
						 M333.479,134.701h-9.854v-3.66h9.854V134.701z M323.189,134.701h-9.854v-3.66h9.854V134.701z M313.336,102.373h9.854v3.661
						h-9.854V102.373z M323.626,102.373h9.854v3.661h-9.854V102.373z M333.479,110.129h-9.854v-3.66h9.854V110.129z
						 M333.479,114.224h-9.854v-3.66h9.854V114.224z M333.479,118.319h-9.854v-3.66h9.854V118.319z M333.479,122.416h-9.854v-3.661
						h9.854V122.416z M333.479,126.511h-9.854v-3.66h9.854V126.511z M333.479,130.606h-9.854v-3.661h9.854V130.606z
						 M313.336,106.469h9.854v3.66h-9.854V106.469z M313.336,110.564h9.854v3.66h-9.854V110.564z M313.336,114.659h9.854v3.66
						h-9.854V114.659z M313.336,118.755h9.854v3.661h-9.854V118.755z M313.336,122.851h9.854v3.66h-9.854V122.851z M313.336,126.946
						h9.854v3.661h-9.854V126.946z M343.767,130.606h-9.853v-3.661h9.853V130.606z M343.767,126.511h-9.853v-3.66h9.853V126.511z
						 M343.767,122.416h-9.853v-3.661h9.853V122.416z M343.767,118.319h-9.853v-3.66h9.853V118.319z M343.767,114.224h-9.853v-3.66
						h9.853V114.224z M343.767,110.129h-9.853v-3.66h9.853V110.129z M343.767,106.034h-9.853v-3.661h9.853V106.034z"/>
					<rect x="313.336" y="106.469" fill="#8DCBC7" width="9.854" height="3.66"/>
					<rect x="323.626" y="106.469" fill="#FFFFFF" width="9.854" height="3.66"/>
					<rect x="333.914" y="106.469" fill="#FFFFFF" width="9.853" height="3.66"/>
					<rect x="313.336" y="110.564" fill="#8DCBC7" width="9.854" height="3.66"/>
					<rect x="323.626" y="110.564" fill="#FFFFFF" width="9.854" height="3.66"/>
					<rect x="333.914" y="110.564" fill="#FFFFFF" width="9.853" height="3.66"/>
					<rect x="313.336" y="114.659" fill="#8DCBC7" width="9.854" height="3.66"/>
					<rect x="323.626" y="114.659" fill="#FFFFFF" width="9.854" height="3.66"/>
					<rect x="333.914" y="114.659" fill="#FFFFFF" width="9.853" height="3.66"/>
					<rect x="313.336" y="118.755" fill="#8DCBC7" width="9.854" height="3.661"/>
					<rect x="323.626" y="118.755" fill="#FFFFFF" width="9.854" height="3.661"/>
					<rect x="333.914" y="118.755" fill="#FFFFFF" width="9.853" height="3.661"/>
					<rect x="313.336" y="122.851" fill="#8DCBC7" width="9.854" height="3.66"/>
					<rect x="323.626" y="122.851" fill="#FFFFFF" width="9.854" height="3.66"/>
					<rect x="333.914" y="122.851" fill="#FFFFFF" width="9.853" height="3.66"/>
					<rect x="313.336" y="126.946" fill="#8DCBC7" width="9.854" height="3.661"/>
					<rect x="323.626" y="126.946" fill="#FFFFFF" width="9.854" height="3.661"/>
					<rect x="333.914" y="126.946" fill="#FFFFFF" width="9.853" height="3.661"/>
					<rect x="313.336" y="131.041" fill="#8DCBC7" width="9.854" height="3.66"/>
					<rect x="323.626" y="131.041" fill="#FFFFFF" width="9.854" height="3.66"/>
					<rect x="333.914" y="131.041" fill="#FFFFFF" width="9.853" height="3.66"/>
				</g>
				<polygon fill="#DADADA" points="337.721,103.63 349.646,103.63 337.721,91.705 				"/>
			</g>
		</g>
	</g>
	<rect x="219.247" y="165.574" fill="#808080" width="55.025" height="4.957"/>
	<rect x="219.247" y="172.595" fill="#999999" width="38.201" height="1.951"/>
	<rect x="219.247" y="175.748" fill="#999999" width="32.404" height="1.951"/>
	<rect x="219.247" y="178.9" fill="#999999" width="36.61" height="1.951"/>
	<rect x="219.247" y="182.054" fill="#999999" width="29.866" height="1.951"/>
	<rect x="219.247" y="185.205" fill="#999999" width="34.619" height="1.953"/>
	<rect x="267.876" y="172.595" fill="#999999" width="6.396" height="1.951"/>
	<rect x="270.004" y="175.748" fill="#999999" width="4.269" height="1.951"/>
	<rect x="269.009" y="178.9" fill="#999999" width="5.264" height="1.951"/>
	<rect x="271.278" y="182.054" fill="#999999" width="2.994" height="1.951"/>
	<rect x="269.582" y="185.205" fill="#999999" width="4.69" height="1.953"/>
	<rect x="219.247" y="192" fill="#BABABA" width="55.025" height="4.954"/>
	<rect x="219.247" y="199.018" fill="#999999" width="34.643" height="1.953"/>
	<rect x="219.247" y="202.172" fill="#999999" width="36.251" height="1.95"/>
	<rect x="219.247" y="205.324" fill="#999999" width="38.872" height="1.951"/>
	<rect x="219.247" y="208.477" fill="#999999" width="32.176" height="1.952"/>
	<rect x="219.247" y="211.63" fill="#999999" width="27.568" height="1.952"/>
	<rect x="219.247" y="219.286" fill="#999999" width="54.878" height="1.953"/>
	<rect x="219.247" y="222.664" fill="#999999" width="54.878" height="1.952"/>
	<rect x="219.247" y="226.042" fill="#999999" width="54.878" height="1.953"/>
	<rect x="219.247" y="229.42" fill="#999999" width="40.229" height="1.952"/>
	<rect x="269.661" y="199.018" fill="#999999" width="4.611" height="1.953"/>
	<rect x="266.461" y="202.172" fill="#999999" width="7.813" height="1.95"/>
	<rect x="270.927" y="205.324" fill="#999999" width="3.346" height="1.951"/>
	<rect x="269.246" y="208.477" fill="#999999" width="5.026" height="1.952"/>
	<rect x="271.182" y="211.63" fill="#999999" width="3.091" height="1.952"/>
</g>
</svg>
