<?xml version="1.0" encoding="utf-8"?>
<!-- Generator: Adobe Illustrator 15.1.0, SVG Export Plug-In . SVG Version: 6.00 Build 0)  -->
<!DOCTYPE svg PUBLIC "-//W3C//DTD SVG 1.1//EN" "http://www.w3.org/Graphics/SVG/1.1/DTD/svg11.dtd">
<svg version="1.1" id="Capa_1" xmlns="http://www.w3.org/2000/svg" xmlns:xlink="http://www.w3.org/1999/xlink" x="0px" y="0px"
	 width="28.346px" height="28.346px" viewBox="2.126 2.126 28.346 28.346" enable-background="new 2.126 2.126 28.346 28.346"
	 xml:space="preserve">
<g>
	<path fill="#8A8A8A" d="M27.714,14.01H4.884c-1.264,0-2.289,1.024-2.289,2.289s1.025,2.29,2.289,2.29h22.83
		c1.265,0,2.289-1.025,2.289-2.29S28.979,14.01,27.714,14.01z"/>
	<path fill="#8A8A8A" d="M27.714,4.283H4.884c-1.264,0-2.289,1.023-2.289,2.289c0,1.265,1.025,2.289,2.289,2.289h22.83
		c1.265,0,2.289-1.024,2.289-2.289C30.003,5.307,28.979,4.283,27.714,4.283z"/>
	<path fill="#8A8A8A" d="M27.714,23.737H4.884c-1.264,0-2.289,1.025-2.289,2.289c0,1.265,1.025,2.289,2.289,2.289h22.83
		c1.265,0,2.289-1.024,2.289-2.289C30.003,24.762,28.979,23.737,27.714,23.737z"/>
</g>
</svg>
