<?xml version="1.0" encoding="utf-8"?>
<!-- Generator: Adobe Illustrator 15.1.0, SVG Export Plug-In . SVG Version: 6.00 Build 0)  -->
<!DOCTYPE svg PUBLIC "-//W3C//DTD SVG 1.1//EN" "http://www.w3.org/Graphics/SVG/1.1/DTD/svg11.dtd">
<svg version="1.1" id="Capa_1" xmlns="http://www.w3.org/2000/svg" xmlns:xlink="http://www.w3.org/1999/xlink" x="0px" y="0px"
	 width="18.425px" height="18.425px" viewBox="0 0 18.425 18.425" enable-background="new 0 0 18.425 18.425" xml:space="preserve">
<path fill="#676767" d="M18.438,13.856c0.037,0.276-0.048,0.517-0.252,0.721l-2.395,2.376c-0.108,0.12-0.249,0.223-0.423,0.307
	s-0.345,0.138-0.514,0.162c-0.012,0-0.048,0.003-0.108,0.009c-0.06,0.006-0.138,0.009-0.233,0.009c-0.228,0-0.597-0.038-1.106-0.117
	c-0.511-0.077-1.135-0.27-1.873-0.576c-0.738-0.306-1.575-0.765-2.512-1.377c-0.936-0.612-1.933-1.453-2.989-2.521
	c-0.84-0.828-1.536-1.62-2.088-2.376C3.393,9.716,2.949,9.017,2.612,8.374C2.276,7.732,2.024,7.149,1.856,6.628
	C1.688,6.106,1.574,5.656,1.515,5.277C1.454,4.899,1.43,4.602,1.442,4.386C1.454,4.17,1.46,4.05,1.46,4.026
	c0.024-0.168,0.078-0.339,0.162-0.513C1.707,3.339,1.809,3.198,1.928,3.09l2.395-2.395c0.168-0.168,0.36-0.252,0.576-0.252
	c0.156,0,0.294,0.045,0.415,0.135c0.12,0.089,0.222,0.201,0.306,0.333l1.926,3.655c0.108,0.192,0.138,0.402,0.09,0.63
	c-0.047,0.228-0.15,0.42-0.306,0.576L6.447,6.654C6.424,6.679,6.403,6.718,6.384,6.772C6.367,6.826,6.358,6.871,6.358,6.908
	c0.047,0.251,0.156,0.54,0.324,0.864c0.144,0.288,0.366,0.639,0.667,1.053c0.3,0.414,0.726,0.892,1.278,1.432
	c0.54,0.553,1.02,0.981,1.44,1.287c0.42,0.307,0.771,0.532,1.054,0.676s0.498,0.23,0.648,0.261l0.224,0.045
	c0.024,0,0.064-0.01,0.118-0.027s0.093-0.038,0.116-0.063l1.026-1.045c0.217-0.191,0.469-0.287,0.757-0.287
	c0.204,0,0.366,0.035,0.486,0.108h0.018l3.475,2.052C18.241,13.419,18.391,13.616,18.438,13.856"/>
</svg>
